SplineFontDB: 3.0
FontName: Kimono
FullName: KimonoItalic
FamilyName: Kimono
Weight: Book
Copyright: Copyright (c) 2014 by P. Wiegel. All rights reserved.
Version: 1.0
ItalicAngle: 0
UnderlinePosition: -2
UnderlineWidth: 1
Ascent: 768
Descent: 256
InvalidEm: 0
sfntRevision: 0x00010000
LayerCount: 2
Layer: 0 1 "Back" 1
Layer: 1 1 "Fore" 0
XUID: [1021 853 -550055878 24140]
StyleMap: 0x0001
FSType: 0
OS2Version: 2
OS2_WeightWidthSlopeOnly: 0
OS2_UseTypoMetrics: 0
CreationTime: 1477073475
ModificationTime: 1477074608
PfmFamily: 81
TTFWeight: 400
TTFWidth: 5
LineGap: 0
VLineGap: 0
Panose: 0 0 0 0 0 0 0 0 0 0
OS2TypoAscent: 768
OS2TypoAOffset: 0
OS2TypoDescent: -256
OS2TypoDOffset: 0
OS2TypoLinegap: 100
OS2WinAscent: 768
OS2WinAOffset: 0
OS2WinDescent: 256
OS2WinDOffset: 0
HheadAscent: 768
HheadAOffset: 0
HheadDescent: -256
HheadDOffset: 0
OS2SubXSize: 40
OS2SubYSize: 40
OS2SubXOff: 40
OS2SubYOff: 40
OS2SupXSize: 40
OS2SupYSize: 40
OS2SupXOff: 40
OS2SupYOff: 40
OS2StrikeYSize: 40
OS2StrikeYPos: 200
OS2CapHeight: 768
OS2XHeight: 329
OS2Vendor: 'Bird'
OS2CodePages: 203f00ff.cffd0000
OS2UnicodeRanges: 00000001.00000000.00000000.00000000
Lookup: 258 0 0 "'kern' Horizontal Kerning in Latin lookup 0" { "'kern' Horizontal Kerning in Latin lookup 0 subtable"  } ['kern' ('DFLT' <'dflt' > 'latn' <'dflt' > ) ]
DEI: 91125
ShortTable: maxp 16
  1
  0
  174
  192
  4
  0
  0
  1
  0
  0
  0
  0
  0
  0
  0
  0
EndShort
LangName: 1033 "" "" "Regular" "1.0;Kimono;RegularItalic" "" "1.0" "" "flottflott is a trademark of P. Wiegel." "" "" "Copyright (c) 2014 by P. Wiegel. All rights reserved." "" "" "SIL Open Font License (OFL)" "http://scripts.sil.org/OFL"
GaspTable: 1 65535 2 0
Encoding: UnicodeBmp
UnicodeInterp: none
NameList: AGL For New Fonts
DisplaySize: -48
AntiAlias: 1
FitToEm: 0
WinInfo: 0 38 13
BeginChars: 65538 156

StartChar: exclam
Encoding: 33 33 0
Width: 614
Flags: W
LayerCount: 2
Fore
SplineSet
489 850 m 1,0,1
 464 798 464 798 446 745 c 0,2,3
 426 690 426 690 403 637 c 0,4,5
 385 595 385 595 368 554 c 0,6,7
 350 512 350 512 332 471 c 0,8,9
 324 454 324 454 313 437 c 0,10,11
 302 421 302 421 295 403 c 0,12,13
 290 391 290 391 287 378 c 0,14,15
 283 367 283 367 278 354 c 0,16,17
 268 326 268 326 255 299 c 256,18,19
 242 272 242 272 231 243 c 1,20,21
 188 238 188 238 104 228 c 1,22,23
 126 289 126 289 156 348 c 0,24,25
 185 407 185 407 212 467 c 0,26,27
 238 529 238 529 265 590 c 0,28,29
 291 651 291 651 318 712 c 0,30,31
 322 723 322 723 328 740 c 0,32,33
 334 758 334 758 341 775 c 0,34,35
 347 793 347 793 355 809 c 0,36,37
 363 824 363 824 372 829 c 0,38,39
 380 835 380 835 395 838 c 0,40,41
 411 841 411 841 428 842 c 0,42,43
 445 845 445 845 462 848 c 0,44,45
 478 849 478 849 489 850 c 1,0,1
96 185 m 0,46,47
 113 185 113 185 131 178 c 0,48,49
 150 172 150 172 164 160 c 256,50,51
 178 148 178 148 187 131 c 0,52,53
 196 116 196 116 196 98 c 0,54,55
 196 58 196 58 172 27 c 0,56,57
 147 -4 147 -4 105 -4 c 0,58,59
 62 -3 62 -3 38 25 c 0,60,61
 13 52 13 52 13 94 c 0,62,63
 13 129 13 129 35 157 c 0,64,65
 56 185 56 185 92 185 c 0,66,67
 95 185 95 185 96 185 c 0,46,47
EndSplineSet
EndChar

StartChar: quotedbl
Encoding: 34 34 1
Width: 614
Flags: W
LayerCount: 2
Fore
SplineSet
602 627 m 1,0,1
 569 623 569 623 474 611 c 1,2,3
 491 651 491 651 497 663 c 0,4,5
 502 675 502 675 500 672 c 0,6,7
 499 671 499 671 494 662 c 0,8,9
 490 653 490 653 489 650 c 0,10,11
 488 649 488 649 493 660 c 0,12,13
 498 672 498 672 515 712 c 0,14,15
 519 723 519 723 525 740 c 0,16,17
 532 758 532 758 538 775 c 0,18,19
 545 793 545 793 551 809 c 0,20,21
 559 824 559 824 568 829 c 0,22,23
 576 835 576 835 593 838 c 0,24,25
 608 841 608 841 624 842 c 0,26,27
 642 845 642 845 658 848 c 0,28,29
 675 849 675 849 685 850 c 1,30,31
 658 776 658 776 602 627 c 1,0,1
404 627 m 1,32,33
 373 623 373 623 277 611 c 1,34,35
 294 651 294 651 299 663 c 256,36,37
 304 675 304 675 303 672 c 0,38,39
 302 671 302 671 298 662 c 0,40,41
 292 653 292 653 291 650 c 0,42,43
 290 649 290 649 295 660 c 0,44,45
 299 672 299 672 318 712 c 0,46,47
 322 723 322 723 328 740 c 0,48,49
 334 758 334 758 341 775 c 0,50,51
 347 793 347 793 355 809 c 0,52,53
 363 824 363 824 372 829 c 0,54,55
 380 835 380 835 395 838 c 0,56,57
 411 841 411 841 428 842 c 0,58,59
 445 845 445 845 462 848 c 0,60,61
 478 849 478 849 489 850 c 1,62,63
 460 776 460 776 404 627 c 1,32,33
EndSplineSet
EndChar

StartChar: dollar
Encoding: 36 36 2
Width: 614
Flags: W
LayerCount: 2
Fore
SplineSet
786 940 m 0,0,1
 833 940 833 940 857 910 c 0,2,3
 879 883 879 883 879 844 c 0,4,5
 879 841 879 841 879 838 c 0,6,7
 879 798 879 798 854 749 c 0,8,9
 829 699 829 699 794 649 c 0,10,11
 762 598 762 598 724 552 c 0,12,13
 686 507 686 507 662 478 c 1,14,15
 608 478 608 478 502 478 c 1,16,17
 521 508 521 508 556 550 c 0,18,19
 590 592 590 592 623 634 c 0,20,21
 656 679 656 679 682 722 c 0,22,23
 710 764 710 764 716 796 c 1,24,25
 711 796 711 796 703 796 c 0,26,27
 679 796 679 796 644 786 c 0,28,29
 608 777 608 777 569 760 c 0,30,31
 532 744 532 744 493 723 c 0,32,33
 454 701 454 701 424 673 c 0,34,35
 393 649 393 649 373 620 c 0,36,37
 354 593 354 593 354 564 c 0,38,39
 354 545 354 545 369 521 c 0,40,41
 385 498 385 498 408 473 c 0,42,43
 433 447 433 447 460 419 c 0,44,45
 488 390 488 390 511 359 c 0,46,47
 536 330 536 330 551 298 c 0,48,49
 567 266 567 266 567 233 c 0,50,51
 567 207 567 207 559 179 c 0,52,53
 550 153 550 153 536 127 c 0,54,55
 521 103 521 103 503 81 c 0,56,57
 485 60 485 60 463 47 c 0,58,59
 445 35 445 35 422 27 c 0,60,61
 399 20 399 20 376 16 c 0,62,63
 351 12 351 12 328 12 c 0,64,65
 303 10 303 10 282 10 c 0,66,67
 257 10 257 10 208 10 c 1,68,69
 192 -23 192 -23 179 -60 c 0,70,71
 166 -95 166 -95 153 -130 c 1,72,73
 107 -130 107 -130 14 -130 c 1,74,75
 21 -92 21 -92 36 -60 c 0,76,77
 51 -26 51 -26 66 8 c 1,78,79
 10 6 10 6 -44 6 c 0,80,81
 -99 5 -99 5 -155 6 c 1,82,83
 -138 43 -138 43 -117 74 c 0,84,85
 -96 107 -96 107 -74 140 c 1,86,87
 40 139 40 139 272 138 c 0,88,89
 291 138 291 138 317 142 c 256,90,91
 343 146 343 146 367 155 c 0,92,93
 389 164 389 164 406 179 c 0,94,95
 422 196 422 196 422 222 c 0,96,97
 422 246 422 246 406 270 c 0,98,99
 389 294 389 294 365 320 c 0,100,101
 341 344 341 344 312 372 c 0,102,103
 283 398 283 398 259 428 c 0,104,105
 234 456 234 456 218 489 c 0,106,107
 203 521 203 521 203 558 c 0,108,109
 203 580 203 580 209 602 c 0,110,111
 216 624 216 624 226 645 c 0,112,113
 255 692 255 692 295 733 c 0,114,115
 337 775 337 775 386 810 c 0,116,117
 437 844 437 844 493 870 c 256,118,119
 549 896 549 896 607 913 c 1,120,121
 618 944 618 944 627 974 c 0,122,123
 636 1002 636 1002 651 1031 c 0,124,125
 658 1043 658 1043 662 1048 c 0,126,127
 667 1054 667 1054 672 1057 c 0,128,129
 677 1061 677 1061 685 1062 c 0,130,131
 694 1063 694 1063 706 1067 c 0,132,133
 728 1074 728 1074 751 1083 c 256,134,135
 774 1092 774 1092 796 1092 c 0,136,137
 803 1092 803 1092 818 1089 c 1,138,139
 798 1052 798 1052 783 1014 c 0,140,141
 766 978 766 978 750 939 c 1,142,143
 760 939 760 939 768 939 c 0,144,145
 777 940 777 940 786 940 c 0,0,1
EndSplineSet
EndChar

StartChar: ampersand
Encoding: 38 38 3
Width: 614
Flags: W
LayerCount: 2
Fore
SplineSet
450 750 m 0,0,1
 507 750 507 750 543 710 c 0,2,3
 580 671 580 671 580 615 c 0,4,5
 580 577 580 577 560 545 c 0,6,7
 540 511 540 511 508 482 c 0,8,9
 478 454 478 454 445 429 c 0,10,11
 410 404 410 404 385 385 c 1,12,13
 389 378 389 378 396 361 c 0,14,15
 404 343 404 343 413 325 c 0,16,17
 424 307 424 307 433 291 c 0,18,19
 442 277 442 277 448 277 c 0,20,21
 456 277 456 277 476 292 c 0,22,23
 495 308 495 308 516 326 c 0,24,25
 540 346 540 346 559 365 c 256,26,27
 578 384 578 384 588 390 c 1,28,29
 598 364 598 364 607 337 c 0,30,31
 616 311 616 311 629 283 c 1,32,33
 597 259 597 259 563 233 c 0,34,35
 530 208 530 208 497 182 c 1,36,37
 508 162 508 162 517 142 c 0,38,39
 528 120 528 120 545 103 c 0,40,41
 554 94 554 94 555 95 c 0,42,43
 556 98 556 98 566 92 c 1,44,45
 592 92 592 92 616 95 c 0,46,47
 642 98 642 98 667 98 c 1,48,49
 662 86 662 86 656 68 c 0,50,51
 653 51 653 51 645 35 c 0,52,53
 637 18 637 18 627 8 c 0,54,55
 615 -4 615 -4 598 -4 c 0,56,57
 555 -4 555 -4 469 -4 c 1,58,59
 454 25 454 25 437 53 c 256,60,61
 420 81 420 81 400 108 c 1,62,63
 372 90 372 90 346 69 c 256,64,65
 320 48 320 48 291 31 c 0,66,67
 265 13 265 13 235 3 c 0,68,69
 205 -9 205 -9 168 -9 c 0,70,71
 134 -9 134 -9 105 4 c 0,72,73
 77 16 77 16 56 38 c 0,74,75
 36 58 36 58 25 87 c 0,76,77
 13 116 13 116 13 150 c 0,78,79
 13 195 13 195 36 233 c 0,80,81
 60 270 60 270 94 302 c 0,82,83
 127 334 127 334 168 359 c 0,84,85
 208 385 208 385 240 406 c 1,86,87
 234 437 234 437 220 467 c 0,88,89
 205 497 205 497 205 530 c 0,90,91
 205 573 205 573 228 614 c 0,92,93
 251 653 251 653 286 682 c 0,94,95
 322 714 322 714 365 732 c 256,96,97
 408 750 408 750 450 750 c 0,0,1
318 545 m 0,98,99
 318 530 318 530 325 515 c 256,100,101
 332 500 332 500 338 486 c 1,102,103
 350 494 350 494 374 510 c 0,104,105
 398 525 398 525 422 543 c 0,106,107
 446 562 446 562 463 581 c 0,108,109
 481 601 481 601 481 616 c 0,110,111
 481 624 481 624 473 634 c 0,112,113
 464 646 464 646 455 646 c 0,114,115
 437 646 437 646 413 637 c 0,116,117
 390 629 390 629 369 615 c 0,118,119
 347 602 347 602 333 584 c 0,120,121
 318 564 318 564 318 545 c 0,98,99
118 130 m 1,122,123
 130 124 130 124 143 114 c 256,124,125
 156 104 156 104 170 104 c 0,126,127
 188 104 188 104 214 116 c 0,128,129
 239 127 239 127 265 146 c 0,130,131
 291 162 291 162 315 179 c 0,132,133
 338 198 338 198 352 209 c 1,134,135
 337 231 337 231 322 256 c 0,136,137
 308 280 308 280 294 304 c 1,138,139
 266 291 266 291 237 276 c 0,140,141
 207 261 207 261 179 239 c 0,142,143
 155 220 155 220 136 192 c 0,144,145
 120 166 120 166 118 130 c 1,122,123
EndSplineSet
EndChar

StartChar: quotesingle
Encoding: 39 39 4
Width: 614
Flags: W
LayerCount: 2
Fore
SplineSet
404 627 m 1,0,1
 373 623 373 623 277 611 c 1,2,3
 294 651 294 651 299 663 c 256,4,5
 304 675 304 675 303 672 c 0,6,7
 302 671 302 671 298 662 c 0,8,9
 292 653 292 653 291 650 c 0,10,11
 290 649 290 649 295 660 c 0,12,13
 299 672 299 672 318 712 c 0,14,15
 322 723 322 723 328 740 c 0,16,17
 334 758 334 758 341 775 c 0,18,19
 347 793 347 793 355 809 c 0,20,21
 363 824 363 824 372 829 c 0,22,23
 380 835 380 835 395 838 c 0,24,25
 411 841 411 841 428 842 c 0,26,27
 445 845 445 845 462 848 c 0,28,29
 478 849 478 849 489 850 c 1,30,31
 460 776 460 776 404 627 c 1,0,1
EndSplineSet
EndChar

StartChar: parenleft
Encoding: 40 40 5
Width: 614
Flags: W
LayerCount: 2
Fore
SplineSet
602 998 m 0,0,1
 606 1000 606 1000 615 1000 c 0,2,3
 636 1000 636 1000 656 991 c 0,4,5
 677 983 677 983 698 976 c 1,6,7
 660 924 660 924 620 874 c 0,8,9
 580 823 580 823 543 770 c 0,10,11
 521 738 521 738 495 701 c 0,12,13
 469 663 469 663 445 621 c 0,14,15
 420 581 420 581 396 542 c 0,16,17
 373 503 373 503 356 471 c 0,18,19
 303 363 303 363 261 263 c 0,20,21
 218 164 218 164 188 64 c 0,22,23
 160 -36 160 -36 144 -143 c 0,24,25
 127 -248 127 -248 127 -373 c 0,26,27
 127 -381 127 -381 125 -389 c 0,28,29
 122 -396 122 -396 116 -402 c 1,30,31
 90 -398 90 -398 64 -393 c 0,32,33
 39 -387 39 -387 14 -376 c 1,34,35
 13 -365 13 -365 13 -355 c 0,36,37
 13 -346 13 -346 13 -337 c 0,38,39
 13 -190 13 -190 47 -44 c 0,40,41
 81 103 81 103 138 243 c 0,42,43
 196 385 196 385 270 517 c 0,44,45
 344 651 344 651 426 770 c 0,46,47
 467 829 467 829 508 888 c 0,48,49
 550 946 550 946 602 998 c 0,0,1
EndSplineSet
EndChar

StartChar: parenright
Encoding: 41 41 6
Width: 614
Flags: W
LayerCount: 2
Fore
SplineSet
-108 -400 m 0,0,1
 -112 -402 -112 -402 -121 -402 c 0,2,3
 -143 -402 -143 -402 -162 -394 c 0,4,5
 -183 -385 -183 -385 -204 -378 c 1,6,7
 -166 -326 -166 -326 -126 -276 c 0,8,9
 -87 -225 -87 -225 -49 -172 c 0,10,11
 -29 -142 -29 -142 -3 -103 c 0,12,13
 23 -65 23 -65 49 -23 c 0,14,15
 74 16 74 16 98 55 c 0,16,17
 121 95 121 95 136 126 c 0,18,19
 190 235 190 235 233 335 c 0,20,21
 276 434 276 434 304 534 c 0,22,23
 334 633 334 633 350 740 c 0,24,25
 367 846 367 846 367 970 c 0,26,27
 367 979 367 979 369 987 c 0,28,29
 372 994 372 994 378 1000 c 1,30,31
 404 996 404 996 430 991 c 0,32,33
 455 985 455 985 480 974 c 1,34,35
 481 962 481 962 481 953 c 256,36,37
 481 944 481 944 481 935 c 0,38,39
 481 788 481 788 447 642 c 0,40,41
 412 495 412 495 355 354 c 256,42,43
 298 213 298 213 224 79 c 0,44,45
 150 -53 150 -53 68 -172 c 0,46,47
 26 -231 26 -231 -14 -290 c 0,48,49
 -56 -348 -56 -348 -108 -400 c 0,0,1
EndSplineSet
EndChar

StartChar: plus
Encoding: 43 43 7
Width: 614
Flags: W
LayerCount: 2
Fore
SplineSet
205 179 m 1,0,1
 217 212 217 212 252 308 c 1,2,3
 217 308 217 308 116 308 c 1,4,5
 126 335 126 335 159 420 c 1,6,7
 192 420 192 420 292 420 c 1,8,9
 304 451 304 451 339 547 c 1,10,11
 369 547 369 547 458 549 c 1,12,13
 446 516 446 516 411 420 c 1,14,15
 446 420 446 420 549 420 c 1,16,17
 538 391 538 391 506 308 c 1,18,19
 472 308 472 308 370 308 c 1,20,21
 359 276 359 276 325 181 c 1,22,23
 295 181 295 181 205 179 c 1,0,1
EndSplineSet
EndChar

StartChar: comma
Encoding: 44 44 8
Width: 614
Flags: W
LayerCount: 2
Fore
SplineSet
125 192 m 0,0,1
 172 192 172 192 203 169 c 0,2,3
 234 144 234 144 234 95 c 0,4,5
 234 72 234 72 225 46 c 0,6,7
 214 18 214 18 200 -8 c 0,8,9
 185 -35 185 -35 168 -58 c 0,10,11
 151 -82 151 -82 135 -100 c 0,12,13
 125 -113 125 -113 110 -118 c 0,14,15
 96 -122 96 -122 79 -122 c 0,16,17
 69 -122 69 -122 58 -122 c 256,18,19
 47 -122 47 -122 36 -118 c 0,20,21
 26 -116 26 -116 20 -109 c 0,22,23
 13 -103 13 -103 13 -90 c 1,24,25
 30 -64 30 -64 49 -43 c 0,26,27
 70 -21 70 -21 82 6 c 1,28,29
 75 22 75 22 69 31 c 0,30,31
 62 40 62 40 56 48 c 0,32,33
 51 57 51 57 47 69 c 0,34,35
 44 79 44 79 44 103 c 0,36,37
 44 117 44 117 51 133 c 0,38,39
 58 150 58 150 69 162 c 0,40,41
 81 176 81 176 96 185 c 0,42,43
 110 192 110 192 125 192 c 0,0,1
EndSplineSet
EndChar

StartChar: hyphen
Encoding: 45 45 9
Width: 614
Flags: W
LayerCount: 2
Fore
SplineSet
159 420 m 1,0,1
 256 420 256 420 549 420 c 1,2,3
 538 391 538 391 506 308 c 1,4,5
 408 308 408 308 116 308 c 1,6,7
 126 335 126 335 159 420 c 1,0,1
EndSplineSet
EndChar

StartChar: period
Encoding: 46 46 10
Width: 614
Flags: W
LayerCount: 2
Fore
SplineSet
112 200 m 0,0,1
 151 200 151 200 178 170 c 256,2,3
 205 140 205 140 205 103 c 0,4,5
 205 84 205 84 196 65 c 0,6,7
 186 47 186 47 170 32 c 0,8,9
 156 17 156 17 136 8 c 0,10,11
 118 -3 118 -3 101 -3 c 0,12,13
 79 -3 79 -3 64 8 c 0,14,15
 48 18 48 18 36 35 c 0,16,17
 25 52 25 52 20 73 c 0,18,19
 13 94 13 94 13 112 c 0,20,21
 13 152 13 152 44 176 c 0,22,23
 74 200 74 200 112 200 c 0,0,1
EndSplineSet
EndChar

StartChar: slash
Encoding: 47 47 11
Width: 614
Flags: W
LayerCount: 2
Fore
SplineSet
740 926 m 0,0,1
 746 926 746 926 760 923 c 1,2,3
 680 820 680 820 612 712 c 0,4,5
 545 606 545 606 468 502 c 0,6,7
 381 380 381 380 296 256 c 0,8,9
 213 133 213 133 131 8 c 1,10,11
 114 8 114 8 81 8 c 0,12,13
 58 8 58 8 -5 8 c 1,14,15
 13 51 13 51 40 87 c 0,16,17
 66 124 66 124 95 162 c 0,18,19
 181 287 181 287 265 412 c 0,20,21
 350 537 350 537 438 662 c 0,22,23
 474 712 474 712 507 764 c 0,24,25
 541 816 541 816 577 864 c 0,26,27
 588 876 588 876 594 881 c 0,28,29
 601 888 601 888 607 890 c 0,30,31
 614 894 614 894 621 896 c 0,32,33
 629 897 629 897 644 901 c 0,34,35
 667 907 667 907 692 916 c 0,36,37
 718 926 718 926 740 926 c 0,0,1
EndSplineSet
EndChar

StartChar: zero
Encoding: 48 48 12
Width: 614
Flags: W
LayerCount: 2
Fore
SplineSet
415 737 m 0,0,1
 476 737 476 737 525 716 c 0,2,3
 575 696 575 696 611 658 c 0,4,5
 647 621 647 621 667 571 c 0,6,7
 685 520 685 520 685 460 c 0,8,9
 685 377 685 377 655 294 c 0,10,11
 624 212 624 212 569 146 c 0,12,13
 516 79 516 79 441 39 c 0,14,15
 367 -1 367 -1 278 -1 c 0,16,17
 233 -1 233 -1 188 13 c 0,18,19
 146 29 146 29 109 55 c 0,20,21
 73 81 73 81 48 120 c 0,22,23
 22 157 22 157 17 204 c 0,24,25
 13 235 13 235 13 268 c 0,26,27
 13 313 13 313 23 363 c 0,28,29
 34 412 34 412 52 460 c 0,30,31
 70 510 70 510 98 554 c 0,32,33
 124 598 124 598 157 629 c 0,34,35
 181 651 181 651 212 671 c 0,36,37
 242 690 242 690 277 706 c 0,38,39
 312 720 312 720 347 729 c 0,40,41
 382 737 382 737 415 737 c 0,0,1
126 254 m 0,42,43
 126 242 126 242 130 229 c 0,44,45
 133 216 133 216 138 202 c 0,46,47
 146 187 146 187 152 176 c 0,48,49
 160 164 160 164 166 156 c 0,50,51
 185 135 185 135 216 126 c 256,52,53
 247 117 247 117 272 117 c 0,54,55
 326 117 326 117 372 140 c 0,56,57
 417 164 417 164 451 200 c 0,58,59
 486 237 486 237 511 283 c 0,60,61
 536 330 536 330 550 377 c 0,62,63
 556 398 556 398 560 417 c 0,64,65
 564 437 564 437 564 459 c 0,66,67
 564 462 564 462 564 464 c 0,68,69
 564 533 564 533 525 575 c 0,70,71
 486 618 486 618 412 618 c 0,72,73
 342 618 342 618 292 586 c 256,74,75
 242 554 242 554 209 503 c 256,76,77
 176 452 176 452 156 391 c 256,78,79
 136 330 136 330 129 273 c 0,80,81
 126 260 126 260 126 254 c 0,42,43
EndSplineSet
EndChar

StartChar: one
Encoding: 49 49 13
Width: 614
Flags: W
LayerCount: 2
Fore
SplineSet
442 731 m 1,0,1
 367 556 367 556 298 382 c 256,2,3
 229 208 229 208 152 34 c 1,4,5
 124 29 124 29 96 22 c 0,6,7
 68 17 68 17 39 17 c 0,8,9
 32 17 32 17 26 17 c 256,10,11
 20 17 20 17 13 18 c 1,12,13
 55 105 55 105 91 192 c 0,14,15
 126 281 126 281 164 369 c 0,16,17
 186 421 186 421 211 473 c 0,18,19
 234 525 234 525 251 581 c 1,20,21
 212 573 212 573 173 563 c 0,22,23
 134 552 134 552 96 541 c 1,24,25
 88 564 88 564 81 588 c 0,26,27
 73 611 73 611 69 636 c 1,28,29
 82 641 82 641 113 649 c 0,30,31
 144 656 144 656 182 667 c 0,32,33
 221 677 221 677 263 689 c 0,34,35
 304 701 304 701 341 710 c 256,36,37
 378 719 378 719 406 725 c 0,38,39
 433 731 433 731 442 731 c 1,0,1
EndSplineSet
EndChar

StartChar: two
Encoding: 50 50 14
Width: 614
Flags: W
LayerCount: 2
Fore
SplineSet
588 731 m 0,0,1
 625 731 625 731 659 719 c 0,2,3
 694 707 694 707 719 684 c 0,4,5
 745 662 745 662 760 630 c 0,6,7
 775 599 775 599 775 559 c 0,8,9
 775 523 775 523 763 490 c 0,10,11
 753 458 753 458 733 428 c 0,12,13
 716 398 716 398 694 370 c 0,14,15
 671 342 671 342 649 318 c 0,16,17
 595 261 595 261 530 220 c 0,18,19
 464 179 464 179 398 138 c 1,20,21
 415 136 415 136 432 136 c 0,22,23
 448 136 448 136 464 136 c 0,24,25
 533 135 533 135 599 139 c 0,26,27
 666 143 666 143 733 143 c 1,28,29
 720 110 720 110 701 84 c 0,30,31
 680 57 680 57 668 25 c 1,32,33
 536 26 536 26 269 26 c 0,34,35
 240 26 240 26 214 18 c 0,36,37
 187 9 187 9 160 -1 c 0,38,39
 133 -12 133 -12 105 -21 c 0,40,41
 78 -30 78 -30 49 -30 c 0,42,43
 31 -30 31 -30 13 -25 c 1,44,45
 16 -18 16 -18 35 6 c 0,46,47
 53 31 53 31 74 58 c 0,48,49
 98 87 98 87 117 109 c 0,50,51
 135 131 135 131 143 134 c 0,52,53
 161 144 161 144 182 142 c 0,54,55
 204 138 204 138 222 150 c 0,56,57
 281 181 281 181 338 214 c 0,58,59
 395 248 395 248 446 292 c 0,60,61
 469 313 469 313 504 342 c 0,62,63
 540 372 540 372 571 404 c 0,64,65
 603 438 603 438 625 474 c 0,66,67
 649 510 649 510 649 545 c 0,68,69
 649 576 649 576 623 594 c 256,70,71
 597 612 597 612 566 612 c 0,72,73
 517 612 517 612 473 594 c 0,74,75
 428 576 428 576 385 550 c 0,76,77
 342 523 342 523 303 491 c 256,78,79
 264 459 264 459 228 432 c 1,80,81
 229 464 229 464 233 504 c 0,82,83
 237 543 237 543 244 575 c 0,84,85
 248 592 248 592 260 599 c 0,86,87
 270 608 270 608 282 618 c 0,88,89
 316 641 316 641 352 660 c 0,90,91
 389 681 389 681 428 698 c 0,92,93
 465 714 465 714 507 723 c 0,94,95
 547 731 547 731 588 731 c 0,0,1
EndSplineSet
EndChar

StartChar: three
Encoding: 51 51 15
Width: 614
Flags: W
LayerCount: 2
Fore
SplineSet
434 718 m 0,0,1
 467 718 467 718 506 710 c 0,2,3
 543 703 543 703 573 685 c 0,4,5
 606 670 606 670 627 641 c 0,6,7
 647 612 647 612 647 571 c 0,8,9
 647 546 647 546 637 514 c 0,10,11
 628 482 628 482 615 459 c 0,12,13
 607 445 607 445 593 432 c 0,14,15
 577 420 577 420 560 408 c 0,16,17
 543 399 543 399 525 391 c 0,18,19
 507 382 507 382 493 374 c 1,20,21
 536 351 536 351 559 309 c 0,22,23
 584 268 584 268 584 220 c 0,24,25
 584 160 584 160 552 120 c 0,26,27
 523 78 523 78 478 53 c 0,28,29
 434 29 434 29 380 18 c 0,30,31
 326 8 326 8 277 8 c 0,32,33
 259 8 259 8 226 10 c 0,34,35
 192 13 192 13 157 17 c 256,36,37
 122 21 122 21 91 27 c 0,38,39
 60 34 60 34 44 40 c 1,40,41
 31 70 31 70 27 104 c 0,42,43
 23 136 23 136 13 168 c 1,44,45
 48 162 48 162 78 156 c 0,46,47
 109 151 109 151 140 146 c 0,48,49
 170 142 170 142 202 138 c 0,50,51
 233 135 233 135 269 135 c 0,52,53
 289 135 289 135 321 138 c 0,54,55
 352 140 352 140 384 148 c 0,56,57
 413 157 413 157 436 173 c 0,58,59
 458 188 458 188 458 217 c 0,60,61
 458 238 458 238 445 252 c 1,62,63
 430 285 430 285 398 299 c 0,64,65
 365 315 365 315 326 318 c 0,66,67
 287 322 287 322 247 321 c 0,68,69
 208 320 208 320 178 322 c 1,70,71
 190 356 190 356 205 390 c 0,72,73
 221 422 221 422 237 455 c 1,74,75
 261 452 261 452 285 451 c 0,76,77
 309 448 309 448 333 448 c 0,78,79
 355 448 355 448 386 454 c 0,80,81
 419 459 419 459 446 473 c 0,82,83
 476 486 476 486 495 507 c 0,84,85
 515 528 515 528 515 558 c 0,86,87
 515 572 515 572 502 580 c 0,88,89
 488 589 488 589 467 593 c 0,90,91
 448 597 448 597 429 597 c 0,92,93
 408 598 408 598 398 598 c 0,94,95
 344 599 344 599 292 589 c 0,96,97
 240 578 240 578 190 567 c 1,98,99
 199 601 199 601 212 630 c 0,100,101
 225 660 225 660 243 689 c 0,102,103
 252 705 252 705 261 705 c 0,104,105
 272 705 272 705 286 706 c 0,106,107
 324 708 324 708 359 712 c 0,108,109
 395 718 395 718 434 718 c 0,0,1
EndSplineSet
EndChar

StartChar: four
Encoding: 52 52 16
Width: 614
Flags: W
LayerCount: 2
Fore
SplineSet
611 718 m 1,0,1
 630 720 630 720 650 723 c 0,2,3
 670 725 670 725 689 725 c 0,4,5
 699 725 699 725 707 725 c 0,6,7
 715 724 715 724 723 723 c 1,8,9
 723 714 723 714 728 712 c 1,10,11
 698 650 698 650 672 586 c 0,12,13
 647 521 647 521 620 458 c 0,14,15
 610 432 610 432 599 407 c 0,16,17
 589 382 589 382 577 355 c 0,18,19
 572 341 572 341 569 326 c 0,20,21
 566 312 566 312 562 296 c 1,22,23
 597 296 597 296 668 296 c 1,24,25
 656 269 656 269 620 185 c 1,26,27
 594 185 594 185 514 185 c 1,28,29
 495 143 495 143 481 100 c 0,30,31
 465 58 465 58 443 20 c 1,32,33
 408 12 408 12 374 8 c 0,34,35
 339 4 339 4 304 0 c 1,36,37
 328 46 328 46 350 91 c 0,38,39
 373 135 373 135 386 186 c 1,40,41
 324 186 324 186 261 185 c 0,42,43
 200 183 200 183 136 183 c 0,44,45
 74 183 74 183 13 187 c 1,46,47
 25 225 25 225 40 260 c 0,48,49
 56 295 56 295 88 320 c 0,50,51
 218 421 218 421 350 517 c 0,52,53
 482 614 482 614 611 718 c 1,0,1
537 537 m 1,54,55
 499 516 499 516 472 489 c 256,56,57
 445 462 445 462 412 436 c 0,58,59
 368 396 368 396 317 365 c 256,60,61
 266 334 266 334 221 292 c 1,62,63
 281 292 281 292 402 291 c 1,64,65
 413 295 413 295 426 295 c 0,66,67
 438 295 438 295 445 308 c 0,68,69
 450 316 450 316 454 326 c 0,70,71
 456 338 456 338 460 348 c 0,72,73
 480 395 480 395 502 441 c 0,74,75
 523 488 523 488 537 537 c 1,76,77
 537 537 537 537 537 537 c 1,54,55
EndSplineSet
EndChar

StartChar: five
Encoding: 53 53 17
Width: 614
Flags: W
LayerCount: 2
Fore
SplineSet
313 715 m 0,0,1
 402 715 402 715 670 714 c 1,2,3
 662 681 662 681 649 653 c 0,4,5
 634 623 634 623 621 593 c 1,6,7
 575 593 575 593 529 594 c 0,8,9
 484 595 484 595 437 595 c 0,10,11
 413 595 413 595 391 594 c 0,12,13
 368 594 368 594 344 593 c 1,14,15
 333 552 333 552 313 516 c 0,16,17
 292 480 292 480 280 439 c 1,18,19
 315 442 315 442 348 450 c 0,20,21
 382 456 382 456 417 456 c 0,22,23
 434 456 434 456 455 454 c 0,24,25
 477 450 477 450 497 442 c 0,26,27
 517 436 517 436 537 425 c 0,28,29
 555 413 555 413 567 400 c 0,30,31
 578 386 578 386 585 360 c 0,32,33
 590 334 590 334 590 316 c 0,34,35
 590 243 590 243 555 195 c 0,36,37
 520 146 520 146 464 103 c 0,38,39
 389 46 389 46 302 26 c 0,40,41
 214 6 214 6 121 6 c 0,42,43
 77 6 77 6 57 10 c 0,44,45
 38 13 38 13 30 26 c 0,46,47
 22 40 22 40 21 66 c 0,48,49
 20 94 20 94 13 142 c 1,50,51
 51 138 51 138 88 135 c 0,52,53
 125 133 125 133 162 133 c 0,54,55
 242 133 242 133 309 159 c 0,56,57
 377 183 377 183 434 240 c 0,58,59
 454 261 454 261 458 278 c 0,60,61
 460 294 460 294 465 321 c 1,62,63
 425 339 425 339 374 339 c 0,64,65
 321 341 321 341 269 326 c 0,66,67
 218 312 218 312 168 300 c 1,68,69
 160 322 160 322 151 343 c 256,70,71
 142 364 142 364 142 386 c 0,72,73
 142 391 142 391 150 411 c 0,74,75
 159 432 159 432 169 455 c 0,76,77
 181 480 181 480 191 500 c 0,78,79
 203 521 203 521 207 530 c 0,80,81
 224 571 224 571 238 612 c 0,82,83
 254 654 254 654 270 696 c 0,84,85
 277 711 277 711 287 714 c 0,86,87
 294 715 294 715 303 715 c 0,88,89
 308 715 308 715 313 715 c 0,0,1
EndSplineSet
EndChar

StartChar: six
Encoding: 54 54 18
Width: 614
Flags: W
LayerCount: 2
Fore
SplineSet
458 776 m 1,0,1
 493 776 493 776 525 770 c 0,2,3
 558 763 558 763 592 755 c 1,4,5
 568 716 568 716 532 685 c 0,6,7
 494 655 494 655 463 621 c 0,8,9
 425 578 425 578 381 542 c 256,10,11
 337 506 337 506 302 456 c 1,12,13
 317 458 317 458 330 459 c 256,14,15
 343 460 343 460 358 460 c 0,16,17
 426 460 426 460 463 424 c 0,18,19
 500 387 500 387 500 320 c 0,20,21
 500 264 500 264 473 205 c 0,22,23
 445 147 445 147 399 99 c 0,24,25
 354 51 354 51 298 21 c 0,26,27
 240 -9 240 -9 183 -9 c 0,28,29
 146 -9 146 -9 114 4 c 256,30,31
 82 17 82 17 60 40 c 0,32,33
 39 64 39 64 26 96 c 0,34,35
 14 127 14 127 14 166 c 0,36,37
 14 234 14 234 53 311 c 0,38,39
 92 386 92 386 148 458 c 0,40,41
 204 532 204 532 265 595 c 0,42,43
 328 659 328 659 373 702 c 0,44,45
 394 722 394 722 412 742 c 0,46,47
 430 764 430 764 458 776 c 1,0,1
131 191 m 0,48,49
 131 156 131 156 142 134 c 0,50,51
 151 112 151 112 192 112 c 0,52,53
 229 112 229 112 261 130 c 0,54,55
 294 150 294 150 320 178 c 0,56,57
 346 208 346 208 361 243 c 0,58,59
 377 278 377 278 377 313 c 0,60,61
 377 342 377 342 352 359 c 0,62,63
 328 376 328 376 300 376 c 0,64,65
 294 376 294 376 289 374 c 0,66,67
 282 374 282 374 276 373 c 0,68,69
 242 365 242 365 221 342 c 0,70,71
 200 320 200 320 179 292 c 0,72,73
 165 272 165 272 148 244 c 0,74,75
 131 218 131 218 131 191 c 0,48,49
EndSplineSet
EndChar

StartChar: seven
Encoding: 55 55 19
Width: 614
Flags: W
LayerCount: 2
Fore
SplineSet
79 711 m 1,0,1
 104 710 104 710 127 710 c 0,2,3
 152 710 152 710 174 710 c 0,4,5
 277 710 277 710 377 714 c 0,6,7
 478 718 478 718 580 720 c 1,8,9
 572 685 572 685 551 660 c 0,10,11
 532 634 532 634 511 608 c 0,12,13
 428 495 428 495 350 377 c 0,14,15
 272 260 272 260 212 130 c 0,16,17
 202 108 202 108 191 84 c 0,18,19
 182 60 182 60 168 40 c 1,20,21
 129 26 129 26 91 16 c 0,22,23
 52 5 52 5 13 -3 c 1,24,25
 30 48 30 48 56 96 c 0,26,27
 82 146 82 146 105 195 c 0,28,29
 129 247 129 247 159 298 c 0,30,31
 188 347 188 347 222 396 c 0,32,33
 256 446 256 446 289 494 c 0,34,35
 321 543 321 543 351 593 c 1,36,37
 270 594 270 594 188 592 c 0,38,39
 108 589 108 589 26 589 c 1,40,41
 35 621 35 621 48 651 c 0,42,43
 62 681 62 681 79 711 c 1,0,1
EndSplineSet
EndChar

StartChar: eight
Encoding: 56 56 20
Width: 614
Flags: W
LayerCount: 2
Fore
SplineSet
400 724 m 0,0,1
 439 724 439 724 476 712 c 0,2,3
 512 702 512 702 541 680 c 0,4,5
 569 660 569 660 588 628 c 0,6,7
 604 597 604 597 604 554 c 0,8,9
 604 515 604 515 590 486 c 0,10,11
 576 458 576 458 554 436 c 0,12,13
 533 412 533 412 504 396 c 0,14,15
 476 380 476 380 445 367 c 1,16,17
 471 335 471 335 484 298 c 0,18,19
 497 260 497 260 497 221 c 0,20,21
 497 165 497 165 476 125 c 0,22,23
 454 86 454 86 419 58 c 0,24,25
 384 34 384 34 338 21 c 0,26,27
 291 9 291 9 240 9 c 0,28,29
 192 9 192 9 146 20 c 0,30,31
 99 31 99 31 61 53 c 0,32,33
 23 77 23 77 1 116 c 256,34,35
 -21 155 -21 155 -21 211 c 0,36,37
 -21 252 -21 252 -4 290 c 0,38,39
 14 328 14 328 44 355 c 0,40,41
 74 384 74 384 114 399 c 0,42,43
 153 415 153 415 195 415 c 1,44,45
 178 442 178 442 165 471 c 0,46,47
 153 500 153 500 153 533 c 0,48,49
 153 581 153 581 176 618 c 0,50,51
 199 654 199 654 234 677 c 0,52,53
 270 702 270 702 315 712 c 0,54,55
 358 724 358 724 400 724 c 0,0,1
361 618 m 0,56,57
 344 618 344 618 328 611 c 0,58,59
 311 603 311 603 294 592 c 1,60,61
 280 578 280 578 269 563 c 0,62,63
 260 547 260 547 260 532 c 0,64,65
 260 510 260 510 269 495 c 0,66,67
 278 481 278 481 292 471 c 0,68,69
 309 463 309 463 326 460 c 0,70,71
 344 456 344 456 363 456 c 0,72,73
 384 456 384 456 407 463 c 0,74,75
 430 468 430 468 448 481 c 0,76,77
 467 493 467 493 480 511 c 256,78,79
 493 529 493 529 493 554 c 0,80,81
 493 564 493 564 489 571 c 0,82,83
 485 577 485 577 478 585 c 0,84,85
 451 610 451 610 424 614 c 0,86,87
 395 618 395 618 361 618 c 0,56,57
94 209 m 0,88,89
 94 185 94 185 104 170 c 0,90,91
 116 155 116 155 133 144 c 0,92,93
 152 134 152 134 173 130 c 0,94,95
 195 126 195 126 213 126 c 0,96,97
 239 126 239 126 269 130 c 256,98,99
 299 134 299 134 325 147 c 0,100,101
 350 159 350 159 367 179 c 0,102,103
 384 202 384 202 384 235 c 0,104,105
 384 263 384 263 370 280 c 0,106,107
 358 296 358 296 338 308 c 0,108,109
 320 318 320 318 296 322 c 0,110,111
 274 326 274 326 254 326 c 0,112,113
 225 326 225 326 198 320 c 0,114,115
 169 315 169 315 146 299 c 0,116,117
 122 286 122 286 108 264 c 0,118,119
 94 240 94 240 94 209 c 0,88,89
EndSplineSet
EndChar

StartChar: nine
Encoding: 57 57 21
Width: 614
Flags: W
LayerCount: 2
Fore
SplineSet
391 785 m 0,0,1
 484 784 484 784 528 736 c 0,2,3
 571 686 571 686 571 598 c 0,4,5
 571 546 571 546 546 488 c 0,6,7
 520 430 520 430 484 373 c 0,8,9
 447 316 447 316 406 265 c 0,10,11
 364 214 364 214 329 178 c 0,12,13
 285 133 285 133 242 86 c 256,14,15
 199 39 199 39 147 3 c 0,16,17
 140 0 140 0 131 0 c 0,18,19
 124 0 124 0 117 0 c 0,20,21
 91 0 91 0 65 6 c 0,22,23
 40 13 40 13 13 20 c 1,24,25
 21 43 21 43 42 60 c 0,26,27
 61 75 61 75 77 95 c 0,28,29
 129 151 129 151 186 202 c 0,30,31
 242 254 242 254 286 317 c 1,32,33
 270 315 270 315 255 313 c 0,34,35
 238 312 238 312 222 312 c 0,36,37
 148 313 148 313 117 352 c 256,38,39
 86 391 86 391 86 462 c 0,40,41
 86 519 86 519 112 577 c 0,42,43
 136 634 136 634 178 681 c 0,44,45
 221 728 221 728 276 757 c 0,46,47
 332 785 332 785 391 785 c 0,0,1
213 463 m 0,48,49
 213 436 213 436 231 415 c 0,50,51
 248 395 248 395 278 395 c 0,52,53
 309 395 309 395 339 416 c 0,54,55
 370 437 370 437 394 467 c 0,56,57
 419 499 419 499 433 534 c 0,58,59
 448 569 448 569 448 598 c 0,60,61
 448 628 448 628 434 645 c 256,62,63
 420 662 420 662 389 662 c 0,64,65
 351 662 351 662 320 644 c 0,66,67
 287 625 287 625 264 597 c 0,68,69
 240 568 240 568 228 533 c 0,70,71
 213 498 213 498 213 463 c 0,48,49
EndSplineSet
EndChar

StartChar: colon
Encoding: 58 58 22
Width: 614
Flags: W
LayerCount: 2
Fore
SplineSet
204 424 m 0,0,1
 259 424 259 424 280 390 c 0,2,3
 300 356 300 356 300 309 c 0,4,5
 300 273 300 273 273 251 c 0,6,7
 246 228 246 228 212 228 c 0,8,9
 165 228 165 228 138 254 c 0,10,11
 112 280 112 280 112 326 c 0,12,13
 112 367 112 367 136 395 c 0,14,15
 162 424 162 424 204 424 c 0,0,1
103 200 m 0,16,17
 150 200 150 200 179 170 c 0,18,19
 209 140 209 140 209 94 c 0,20,21
 209 47 209 47 178 22 c 0,22,23
 147 -1 147 -1 104 -1 c 0,24,25
 66 -1 66 -1 40 29 c 0,26,27
 13 58 13 58 13 95 c 0,28,29
 13 112 13 112 20 131 c 0,30,31
 26 151 26 151 39 165 c 0,32,33
 51 179 51 179 66 190 c 0,34,35
 82 200 82 200 103 200 c 0,16,17
EndSplineSet
EndChar

StartChar: semicolon
Encoding: 59 59 23
Width: 614
Flags: W
LayerCount: 2
Fore
SplineSet
246 412 m 0,0,1
 266 412 266 412 285 403 c 0,2,3
 303 394 303 394 317 380 c 0,4,5
 332 365 332 365 341 346 c 0,6,7
 348 326 348 326 348 307 c 0,8,9
 348 264 348 264 316 239 c 0,10,11
 283 214 283 214 246 214 c 0,12,13
 208 214 208 214 179 243 c 0,14,15
 151 272 151 272 151 311 c 0,16,17
 151 351 151 351 177 382 c 0,18,19
 204 412 204 412 246 412 c 0,0,1
51 88 m 0,20,21
 51 108 51 108 58 126 c 0,22,23
 65 146 65 146 78 160 c 0,24,25
 92 176 92 176 109 185 c 0,26,27
 127 195 127 195 148 195 c 0,28,29
 186 195 186 195 214 165 c 0,30,31
 243 135 243 135 243 98 c 0,32,33
 243 70 243 70 233 46 c 0,34,35
 222 21 222 21 207 -3 c 0,36,37
 190 -26 190 -26 173 -48 c 0,38,39
 155 -70 155 -70 142 -91 c 0,40,41
 125 -114 125 -114 92 -114 c 0,42,43
 72 -114 72 -114 52 -109 c 0,44,45
 34 -104 34 -104 13 -101 c 1,46,47
 31 -72 31 -72 53 -48 c 0,48,49
 75 -23 75 -23 94 5 c 1,50,51
 82 23 82 23 66 44 c 0,52,53
 51 65 51 65 51 88 c 0,20,21
EndSplineSet
EndChar

StartChar: less
Encoding: 60 60 24
Width: 614
Flags: W
LayerCount: 2
Fore
SplineSet
482 627 m 1,0,1
 402 552 402 552 322 478 c 0,2,3
 243 404 243 404 162 332 c 1,4,5
 224 251 224 251 287 173 c 0,6,7
 351 95 351 95 411 10 c 1,8,9
 385 12 385 12 358 10 c 0,10,11
 330 9 330 9 303 9 c 0,12,13
 289 9 289 9 274 10 c 0,14,15
 261 10 261 10 246 12 c 1,16,17
 198 73 198 73 148 133 c 0,18,19
 99 191 99 191 51 254 c 0,20,21
 38 270 38 270 27 290 c 0,22,23
 17 309 17 309 17 332 c 0,24,25
 17 343 17 343 20 351 c 0,26,27
 22 359 22 359 30 370 c 0,28,29
 46 398 46 398 68 421 c 0,30,31
 90 443 90 443 113 463 c 0,32,33
 136 484 136 484 162 503 c 0,34,35
 187 521 187 521 212 545 c 0,36,37
 240 572 240 572 296 628 c 1,38,39
 343 628 343 628 482 627 c 1,0,1
EndSplineSet
EndChar

StartChar: equal
Encoding: 61 61 25
Width: 614
Flags: W
LayerCount: 2
Fore
SplineSet
118 311 m 1,0,1
 216 311 216 311 508 311 c 1,2,3
 498 282 498 282 465 199 c 1,4,5
 368 199 368 199 75 199 c 1,6,7
 87 226 87 226 118 311 c 1,0,1
200 530 m 1,8,9
 298 530 298 530 590 530 c 1,10,11
 578 502 578 502 547 419 c 1,12,13
 450 419 450 419 157 419 c 1,14,15
 168 446 168 446 200 530 c 1,8,9
EndSplineSet
EndChar

StartChar: greater
Encoding: 62 62 26
Width: 614
Flags: W
LayerCount: 2
Fore
SplineSet
17 10 m 1,0,1
 98 86 98 86 177 159 c 0,2,3
 256 233 256 233 337 307 c 1,4,5
 276 387 276 387 212 465 c 256,6,7
 148 543 148 543 88 627 c 1,8,9
 114 625 114 625 142 627 c 0,10,11
 169 628 169 628 196 628 c 0,12,13
 211 628 211 628 225 628 c 0,14,15
 238 627 238 627 254 625 c 1,16,17
 302 564 302 564 351 506 c 0,18,19
 400 446 400 446 448 385 c 0,20,21
 462 368 462 368 472 348 c 0,22,23
 482 329 482 329 482 307 c 0,24,25
 482 294 482 294 480 286 c 0,26,27
 477 278 477 278 469 268 c 0,28,29
 454 239 454 239 432 217 c 256,30,31
 410 195 410 195 386 174 c 0,32,33
 363 155 363 155 337 134 c 0,34,35
 312 114 312 114 287 94 c 1,36,37
 259 65 259 65 203 9 c 1,38,39
 156 9 156 9 17 10 c 1,0,1
EndSplineSet
EndChar

StartChar: question
Encoding: 63 63 27
Width: 614
Flags: W
LayerCount: 2
Fore
SplineSet
491 889 m 0,0,1
 523 889 523 889 547 876 c 0,2,3
 572 863 572 863 590 841 c 0,4,5
 607 822 607 822 616 794 c 0,6,7
 625 767 625 767 625 737 c 256,8,9
 625 707 625 707 606 675 c 0,10,11
 588 644 588 644 559 614 c 0,12,13
 533 586 533 586 503 562 c 0,14,15
 473 537 473 537 450 520 c 0,16,17
 417 495 417 495 382 468 c 0,18,19
 347 442 347 442 316 411 c 0,20,21
 285 382 285 382 259 348 c 0,22,23
 231 315 231 315 214 276 c 0,24,25
 208 268 208 268 199 259 c 0,26,27
 190 248 190 248 177 255 c 1,28,29
 159 247 159 247 138 242 c 0,30,31
 118 237 118 237 99 237 c 0,32,33
 95 237 95 237 90 237 c 0,34,35
 86 237 86 237 81 238 c 1,36,37
 88 269 88 269 96 294 c 0,38,39
 105 318 105 318 117 339 c 0,40,41
 129 361 129 361 146 381 c 0,42,43
 161 402 161 402 182 425 c 0,44,45
 217 460 217 460 252 494 c 0,46,47
 286 528 286 528 325 559 c 0,48,49
 355 584 355 584 389 607 c 0,50,51
 422 632 422 632 450 659 c 0,52,53
 455 664 455 664 463 673 c 0,54,55
 469 681 469 681 477 690 c 0,56,57
 484 701 484 701 488 710 c 0,58,59
 493 720 493 720 493 728 c 0,60,61
 493 748 493 748 477 763 c 0,62,63
 462 777 462 777 442 777 c 0,64,65
 406 777 406 777 364 760 c 0,66,67
 321 742 321 742 277 718 c 0,68,69
 234 694 234 694 192 668 c 0,70,71
 152 644 152 644 120 627 c 1,72,73
 127 662 127 662 133 697 c 0,74,75
 136 731 136 731 147 766 c 1,76,77
 162 786 162 786 203 809 c 0,78,79
 243 831 243 831 291 848 c 0,80,81
 339 867 339 867 386 878 c 0,82,83
 433 888 433 888 460 888 c 0,84,85
 471 888 471 888 491 889 c 0,0,1
100 198 m 0,86,87
 120 198 120 198 138 190 c 0,88,89
 157 183 157 183 172 170 c 0,90,91
 186 159 186 159 196 142 c 0,92,93
 205 124 205 124 205 103 c 0,94,95
 205 84 205 84 196 66 c 256,96,97
 187 48 187 48 173 34 c 0,98,99
 160 20 160 20 142 12 c 256,100,101
 124 4 124 4 105 4 c 0,102,103
 64 4 64 4 39 30 c 0,104,105
 13 56 13 56 13 96 c 0,106,107
 13 130 13 130 29 164 c 1,108,109
 39 174 39 174 62 186 c 0,110,111
 86 198 86 198 100 198 c 0,86,87
EndSplineSet
EndChar

StartChar: A
Encoding: 65 65 28
Width: 614
Flags: W
LayerCount: 2
Fore
SplineSet
833 909 m 0,0,1
 858 909 858 909 875 904 c 0,2,3
 890 897 890 897 909 880 c 0,4,5
 933 857 933 857 946 833 c 0,6,7
 959 810 959 810 965 783 c 0,8,9
 972 757 972 757 972 727 c 0,10,11
 974 698 974 698 974 667 c 0,12,13
 974 633 974 633 959 580 c 0,14,15
 946 528 946 528 926 463 c 0,16,17
 905 400 905 400 879 333 c 0,18,19
 852 265 852 265 824 203 c 0,20,21
 797 142 797 142 771 90 c 0,22,23
 745 39 745 39 725 8 c 1,24,25
 689 8 689 8 654 9 c 0,26,27
 618 9 618 9 581 13 c 1,28,29
 614 69 614 69 644 127 c 0,30,31
 673 185 673 185 696 247 c 1,32,33
 603 243 603 243 514 244 c 0,34,35
 424 244 424 244 333 238 c 1,36,37
 332 204 332 204 329 172 c 0,38,39
 326 138 326 138 326 104 c 0,40,41
 326 48 326 48 342 -3 c 0,42,43
 356 -53 356 -53 364 -108 c 1,44,45
 286 -100 286 -100 214 -75 c 1,46,47
 192 26 192 26 192 136 c 0,48,49
 192 164 192 164 195 190 c 0,50,51
 198 217 198 217 200 243 c 1,52,53
 153 243 153 243 107 243 c 0,54,55
 60 242 60 242 13 239 c 1,56,57
 25 274 25 274 44 303 c 0,58,59
 64 333 64 333 77 367 c 1,60,61
 127 367 127 367 226 367 c 1,62,63
 242 394 242 394 254 425 c 0,64,65
 264 455 264 455 280 484 c 0,66,67
 304 525 304 525 341 573 c 0,68,69
 377 621 377 621 421 670 c 0,70,71
 464 718 464 718 515 760 c 0,72,73
 564 803 564 803 618 837 c 0,74,75
 671 871 671 871 725 890 c 0,76,77
 780 909 780 909 833 909 c 0,0,1
376 372 m 1,78,79
 390 372 390 372 404 369 c 0,80,81
 420 367 420 367 434 365 c 0,82,83
 514 365 514 365 592 368 c 0,84,85
 668 370 668 370 748 370 c 1,86,87
 762 400 762 400 775 425 c 0,88,89
 789 448 789 448 796 481 c 0,90,91
 809 532 809 532 824 578 c 0,92,93
 841 625 841 625 841 679 c 0,94,95
 841 690 841 690 841 707 c 0,96,97
 840 724 840 724 836 738 c 0,98,99
 832 754 832 754 823 763 c 0,100,101
 815 774 815 774 797 774 c 0,102,103
 796 774 796 774 793 774 c 0,104,105
 760 774 760 774 734 758 c 0,106,107
 707 740 707 740 680 722 c 0,108,109
 581 654 581 654 503 567 c 0,110,111
 425 481 425 481 376 372 c 1,78,79
EndSplineSet
EndChar

StartChar: B
Encoding: 66 66 29
Width: 614
Flags: W
LayerCount: 2
Fore
SplineSet
948 928 m 0,0,1
 985 928 985 928 1014 913 c 0,2,3
 1043 897 1043 897 1061 872 c 0,4,5
 1080 846 1080 846 1091 815 c 0,6,7
 1100 783 1100 783 1100 748 c 0,8,9
 1100 668 1100 668 1063 604 c 0,10,11
 1028 542 1028 542 974 488 c 0,12,13
 942 456 942 456 909 437 c 0,14,15
 875 417 875 417 835 398 c 1,16,17
 845 374 845 374 853 355 c 0,18,19
 862 337 862 337 866 318 c 0,20,21
 871 299 871 299 874 280 c 0,22,23
 876 259 876 259 876 231 c 0,24,25
 876 199 876 199 867 160 c 0,26,27
 857 121 857 121 837 87 c 0,28,29
 819 53 819 53 790 30 c 0,30,31
 762 6 762 6 722 4 c 0,32,33
 698 1 698 1 672 3 c 0,34,35
 647 4 647 4 621 4 c 0,36,37
 516 6 516 6 412 0 c 1,38,39
 411 5 411 5 407 16 c 1,40,41
 432 47 432 47 442 66 c 0,42,43
 454 87 454 87 460 99 c 0,44,45
 467 112 467 112 473 117 c 0,46,47
 480 122 480 122 493 124 c 0,48,49
 507 125 507 125 534 125 c 0,50,51
 560 124 560 124 608 124 c 0,52,53
 642 124 642 124 668 129 c 0,54,55
 696 133 696 133 712 147 c 0,56,57
 731 160 731 160 741 183 c 0,58,59
 751 207 751 207 751 242 c 256,60,61
 751 277 751 277 737 308 c 0,62,63
 724 339 724 339 697 361 c 0,64,65
 688 364 688 364 680 364 c 0,66,67
 671 364 671 364 663 364 c 0,68,69
 640 364 640 364 616 361 c 0,70,71
 594 358 594 358 569 359 c 0,72,73
 562 359 562 359 552 359 c 0,74,75
 545 359 545 359 537 363 c 1,76,77
 560 398 560 398 593 426 c 0,78,79
 624 455 624 455 654 489 c 1,80,81
 676 486 676 486 699 481 c 0,82,83
 722 477 722 477 744 477 c 0,84,85
 748 477 748 477 755 477 c 256,86,87
 762 477 762 477 766 478 c 0,88,89
 803 489 803 489 842 516 c 0,90,91
 881 545 881 545 911 581 c 0,92,93
 944 620 944 620 963 664 c 0,94,95
 983 708 983 708 983 748 c 0,96,97
 983 771 983 771 974 786 c 0,98,99
 963 802 963 802 937 803 c 0,100,101
 935 803 935 803 932 803 c 0,102,103
 930 802 930 802 927 802 c 0,104,105
 909 801 909 801 898 797 c 256,106,107
 887 793 887 793 876 786 c 0,108,109
 867 780 867 780 857 772 c 0,110,111
 848 764 848 764 836 755 c 0,112,113
 783 715 783 715 727 663 c 0,114,115
 671 612 671 612 615 556 c 0,116,117
 560 500 560 500 510 445 c 0,118,119
 458 387 458 387 413 335 c 0,120,121
 384 299 384 299 358 260 c 0,122,123
 333 221 333 221 309 181 c 0,124,125
 285 142 285 142 260 103 c 0,126,127
 234 64 234 64 205 29 c 1,128,129
 160 8 160 8 112 1 c 0,130,131
 62 -5 62 -5 13 -9 c 1,132,133
 17 4 17 4 32 29 c 0,134,135
 48 53 48 53 69 84 c 0,136,137
 92 114 92 114 117 147 c 0,138,139
 143 179 143 179 166 211 c 0,140,141
 191 240 191 240 212 265 c 0,142,143
 231 290 231 290 243 303 c 0,144,145
 261 325 261 325 282 361 c 0,146,147
 303 396 303 396 325 441 c 0,148,149
 346 485 346 485 368 533 c 256,150,151
 390 581 390 581 408 627 c 0,152,153
 428 673 428 673 442 714 c 0,154,155
 458 755 458 755 468 783 c 0,156,157
 474 796 474 796 478 810 c 0,158,159
 484 823 484 823 495 831 c 0,160,161
 507 838 507 838 525 846 c 256,162,163
 543 854 543 854 562 862 c 256,164,165
 581 870 581 870 601 875 c 0,166,167
 620 880 620 880 633 883 c 1,168,169
 601 806 601 806 566 729 c 0,170,171
 532 654 532 654 500 575 c 1,172,173
 545 620 545 620 592 676 c 0,174,175
 637 731 637 731 689 781 c 0,176,177
 741 832 741 832 800 871 c 0,178,179
 857 910 857 910 923 926 c 0,180,181
 930 927 930 927 935 927 c 0,182,183
 941 928 941 928 948 928 c 0,0,1
EndSplineSet
EndChar

StartChar: C
Encoding: 67 67 30
Width: 614
Flags: W
LayerCount: 2
Fore
SplineSet
784 933 m 0,0,1
 848 933 848 933 889 896 c 0,2,3
 930 857 930 857 930 792 c 0,4,5
 930 746 930 746 907 701 c 0,6,7
 887 654 887 654 852 608 c 0,8,9
 819 563 819 563 774 520 c 256,10,11
 729 477 729 477 682 439 c 0,12,13
 637 402 637 402 594 370 c 0,14,15
 550 338 550 338 515 316 c 0,16,17
 504 309 504 309 493 303 c 0,18,19
 482 298 482 298 468 298 c 0,20,21
 433 298 433 298 389 311 c 0,22,23
 344 322 344 322 313 337 c 1,24,25
 347 359 347 359 386 378 c 0,26,27
 425 396 425 396 456 422 c 0,28,29
 473 436 473 436 488 448 c 0,30,31
 503 462 503 462 520 476 c 0,32,33
 550 499 550 499 585 526 c 0,34,35
 620 554 620 554 655 584 c 0,36,37
 689 612 689 612 720 645 c 0,38,39
 753 676 753 676 772 708 c 0,40,41
 783 727 783 727 785 748 c 0,42,43
 788 768 788 768 788 788 c 1,44,45
 777 792 777 792 767 794 c 0,46,47
 757 797 757 797 745 797 c 0,48,49
 715 797 715 797 689 786 c 0,50,51
 664 776 664 776 640 762 c 0,52,53
 566 722 566 722 491 668 c 0,54,55
 419 615 419 615 352 551 c 0,56,57
 289 488 289 488 238 413 c 0,58,59
 186 339 186 339 159 259 c 0,60,61
 152 240 152 240 152 226 c 0,62,63
 151 187 151 187 174 161 c 0,64,65
 199 135 199 135 237 134 c 0,66,67
 270 134 270 134 303 131 c 0,68,69
 337 129 337 129 372 129 c 0,70,71
 439 129 439 129 507 131 c 0,72,73
 573 134 573 134 642 133 c 1,74,75
 633 96 633 96 607 66 c 0,76,77
 581 38 581 38 562 6 c 1,78,79
 488 3 488 3 412 3 c 0,80,81
 338 1 338 1 264 1 c 0,82,83
 207 1 207 1 160 12 c 0,84,85
 113 22 113 22 81 48 c 0,86,87
 49 73 49 73 32 116 c 0,88,89
 14 157 14 157 14 221 c 0,90,91
 14 248 14 248 25 285 c 0,92,93
 36 320 36 320 52 354 c 0,94,95
 68 389 68 389 87 421 c 0,96,97
 105 454 105 454 121 477 c 0,98,99
 199 585 199 585 286 671 c 256,100,101
 373 757 373 757 485 827 c 0,102,103
 555 871 555 871 627 902 c 256,104,105
 699 933 699 933 784 933 c 0,0,1
EndSplineSet
EndChar

StartChar: D
Encoding: 68 68 31
Width: 614
Flags: W
LayerCount: 2
Fore
SplineSet
793 911 m 0,0,1
 874 911 874 911 923 863 c 0,2,3
 974 814 974 814 974 733 c 0,4,5
 974 696 974 696 959 651 c 0,6,7
 945 607 945 607 924 564 c 0,8,9
 902 521 902 521 876 484 c 0,10,11
 849 445 849 445 824 417 c 0,12,13
 785 373 785 373 748 328 c 0,14,15
 711 282 711 282 664 247 c 0,16,17
 625 218 625 218 571 182 c 0,18,19
 516 146 516 146 456 110 c 0,20,21
 398 75 398 75 341 48 c 0,22,23
 282 21 282 21 237 9 c 0,24,25
 198 -1 198 -1 151 -6 c 0,26,27
 104 -12 104 -12 61 -12 c 0,28,29
 58 -12 58 -12 51 -9 c 256,30,31
 44 -6 44 -6 36 -3 c 0,32,33
 30 1 30 1 22 5 c 0,34,35
 16 8 16 8 13 9 c 0,36,37
 25 98 25 98 56 182 c 256,38,39
 87 266 87 266 116 350 c 0,40,41
 134 406 134 406 153 464 c 0,42,43
 172 523 172 523 203 573 c 0,44,45
 211 588 211 588 233 598 c 0,46,47
 256 608 256 608 282 615 c 0,48,49
 309 621 309 621 335 625 c 0,50,51
 363 629 363 629 378 630 c 1,52,53
 354 589 354 589 324 524 c 256,54,55
 294 459 294 459 266 389 c 0,56,57
 238 320 238 320 216 252 c 0,58,59
 192 185 192 185 183 136 c 1,60,61
 263 156 263 156 337 198 c 0,62,63
 410 238 410 238 478 280 c 0,64,65
 528 311 528 311 589 361 c 0,66,67
 651 411 651 411 706 473 c 0,68,69
 762 536 762 536 798 602 c 0,70,71
 836 668 836 668 836 731 c 0,72,73
 836 748 836 748 826 758 c 256,74,75
 816 768 816 768 801 774 c 0,76,77
 788 779 788 779 772 780 c 0,78,79
 757 781 757 781 744 781 c 0,80,81
 705 783 705 783 667 772 c 0,82,83
 629 763 629 763 592 754 c 0,84,85
 489 729 489 729 390 702 c 0,86,87
 291 673 291 673 191 637 c 0,88,89
 157 624 157 624 124 607 c 0,90,91
 90 592 90 592 53 578 c 1,92,93
 53 662 53 662 86 733 c 1,94,95
 100 748 100 748 121 757 c 0,96,97
 142 764 142 764 160 771 c 0,98,99
 234 794 234 794 311 819 c 0,100,101
 387 842 387 842 464 863 c 0,102,103
 543 883 543 883 621 896 c 0,104,105
 701 909 701 909 779 911 c 0,106,107
 784 911 784 911 793 911 c 0,0,1
EndSplineSet
EndChar

StartChar: E
Encoding: 69 69 32
Width: 614
Flags: W
LayerCount: 2
Fore
SplineSet
780 924 m 0,0,1
 809 924 809 924 836 916 c 0,2,3
 864 909 864 909 885 893 c 0,4,5
 907 878 907 878 922 854 c 0,6,7
 935 831 935 831 935 798 c 0,8,9
 935 755 935 755 920 711 c 0,10,11
 905 668 905 668 875 637 c 0,12,13
 832 595 832 595 783 558 c 0,14,15
 733 520 733 520 681 489 c 1,16,17
 651 506 651 506 620 519 c 0,18,19
 590 533 590 533 560 547 c 1,20,21
 590 572 590 572 629 599 c 0,22,23
 668 625 668 625 706 654 c 0,24,25
 742 682 742 682 774 715 c 0,26,27
 803 748 803 748 816 786 c 1,28,29
 793 794 793 794 770 794 c 0,30,31
 738 794 738 794 703 786 c 0,32,33
 668 777 668 777 633 763 c 0,34,35
 601 750 601 750 568 732 c 0,36,37
 537 715 537 715 512 698 c 0,38,39
 500 688 500 688 486 673 c 0,40,41
 471 659 471 659 458 641 c 256,42,43
 445 623 445 623 436 604 c 0,44,45
 428 586 428 586 428 569 c 0,46,47
 428 542 428 542 441 519 c 0,48,49
 454 497 454 497 469 477 c 0,50,51
 486 458 486 458 500 441 c 256,52,53
 514 424 514 424 514 406 c 0,54,55
 514 391 514 391 504 376 c 0,56,57
 495 361 495 361 485 351 c 0,58,59
 462 333 462 333 434 316 c 0,60,61
 407 298 407 298 382 282 c 0,62,63
 326 244 326 244 272 209 c 0,64,65
 217 173 217 173 164 134 c 1,66,67
 304 133 304 133 446 134 c 0,68,69
 588 134 588 134 728 136 c 1,70,71
 720 103 720 103 701 72 c 0,72,73
 680 42 680 42 659 14 c 0,74,75
 649 1 649 1 629 0 c 0,76,77
 611 -1 611 -1 595 -1 c 0,78,79
 454 0 454 0 169 1 c 0,80,81
 142 1 142 1 114 6 c 0,82,83
 87 10 87 10 64 22 c 0,84,85
 42 35 42 35 27 56 c 0,86,87
 13 77 13 77 13 110 c 0,88,89
 13 127 13 127 18 148 c 0,90,91
 22 168 22 168 31 182 c 0,92,93
 43 204 43 204 84 238 c 0,94,95
 125 273 125 273 173 309 c 0,96,97
 222 346 222 346 269 378 c 0,98,99
 317 410 317 410 341 426 c 1,100,101
 332 450 332 450 322 465 c 0,102,103
 313 482 313 482 307 497 c 0,104,105
 299 511 299 511 295 530 c 256,106,107
 291 549 291 549 291 578 c 0,108,109
 291 630 291 630 316 677 c 0,110,111
 339 724 339 724 378 762 c 0,112,113
 419 800 419 800 468 829 c 0,114,115
 519 861 519 861 573 881 c 0,116,117
 628 902 628 902 681 913 c 256,118,119
 734 924 734 924 780 924 c 0,0,1
EndSplineSet
EndChar

StartChar: F
Encoding: 70 70 33
Width: 614
Flags: W
LayerCount: 2
Fore
SplineSet
266 902 m 0,0,1
 455 902 455 902 1022 898 c 1,2,3
 1013 864 1013 864 1001 831 c 0,4,5
 988 798 988 798 967 772 c 1,6,7
 916 772 916 772 864 775 c 0,8,9
 812 777 812 777 760 777 c 1,10,11
 746 748 746 748 737 719 c 0,12,13
 727 689 727 689 712 660 c 0,14,15
 685 606 685 606 664 549 c 0,16,17
 645 493 645 493 620 438 c 1,18,19
 672 438 672 438 775 437 c 1,20,21
 767 402 767 402 753 369 c 0,22,23
 737 335 737 335 722 303 c 1,24,25
 681 303 681 303 642 307 c 0,26,27
 602 311 602 311 562 311 c 1,28,29
 530 242 530 242 500 176 c 0,30,31
 471 108 471 108 443 39 c 0,32,33
 441 32 441 32 437 23 c 0,34,35
 434 16 434 16 428 12 c 0,36,37
 422 9 422 9 402 6 c 0,38,39
 381 3 381 3 355 0 c 0,40,41
 332 -3 332 -3 309 -5 c 0,42,43
 286 -8 286 -8 278 -9 c 1,44,45
 304 73 304 73 343 152 c 0,46,47
 381 230 381 230 412 311 c 1,48,49
 378 315 378 315 343 315 c 0,50,51
 309 316 309 316 274 316 c 1,52,53
 286 347 286 347 300 380 c 0,54,55
 316 411 316 411 328 443 c 1,56,57
 350 443 350 443 372 442 c 256,58,59
 394 441 394 441 417 441 c 0,60,61
 422 441 422 441 439 441 c 0,62,63
 456 442 456 442 460 443 c 0,64,65
 474 448 474 448 484 469 c 0,66,67
 493 490 493 490 498 502 c 0,68,69
 529 571 529 571 560 640 c 0,70,71
 593 707 593 707 616 779 c 1,72,73
 523 783 523 783 430 784 c 0,74,75
 337 784 337 784 243 785 c 0,76,77
 234 785 234 785 221 783 c 0,78,79
 209 780 209 780 198 775 c 0,80,81
 185 771 185 771 177 763 c 256,82,83
 169 755 169 755 169 742 c 0,84,85
 169 722 169 722 181 703 c 0,86,87
 192 684 192 684 209 667 c 256,88,89
 226 650 226 650 243 632 c 0,90,91
 261 615 261 615 270 598 c 1,92,93
 235 586 235 586 202 577 c 0,94,95
 166 569 166 569 131 562 c 1,96,97
 112 584 112 584 91 606 c 0,98,99
 70 629 70 629 53 655 c 256,100,101
 36 681 36 681 25 710 c 0,102,103
 13 737 13 737 13 768 c 0,104,105
 13 790 13 790 23 807 c 0,106,107
 35 824 35 824 52 838 c 0,108,109
 95 879 95 879 152 890 c 0,110,111
 211 902 211 902 266 902 c 0,0,1
EndSplineSet
EndChar

StartChar: G
Encoding: 71 71 34
Width: 614
Flags: W
LayerCount: 2
Fore
SplineSet
814 991 m 0,0,1
 837 991 837 991 859 982 c 0,2,3
 881 974 881 974 897 958 c 0,4,5
 914 944 914 944 924 923 c 0,6,7
 933 901 933 901 933 876 c 0,8,9
 933 828 933 828 906 777 c 0,10,11
 880 725 880 725 841 676 c 0,12,13
 803 628 803 628 762 585 c 0,14,15
 720 542 720 542 688 508 c 1,16,17
 654 516 654 516 620 524 c 0,18,19
 586 533 586 533 551 541 c 1,20,21
 580 577 580 577 614 612 c 0,22,23
 647 647 647 647 679 681 c 0,24,25
 711 718 711 718 738 757 c 0,26,27
 767 794 767 794 785 838 c 0,28,29
 783 841 783 841 779 845 c 256,30,31
 775 849 775 849 775 854 c 1,32,33
 692 846 692 846 616 805 c 0,34,35
 540 763 540 763 477 711 c 0,36,37
 439 680 439 680 402 649 c 0,38,39
 364 618 364 618 333 578 c 0,40,41
 308 547 308 547 274 504 c 0,42,43
 242 462 242 462 213 413 c 0,44,45
 185 368 185 368 165 320 c 0,46,47
 146 273 146 273 146 231 c 0,48,49
 144 188 144 188 165 165 c 0,50,51
 187 142 187 142 231 142 c 0,52,53
 272 142 272 142 308 159 c 0,54,55
 343 176 343 176 380 190 c 0,56,57
 402 200 402 200 421 208 c 0,58,59
 441 216 441 216 456 225 c 0,60,61
 474 235 474 235 488 251 c 0,62,63
 502 266 502 266 512 290 c 0,64,65
 517 300 517 300 521 315 c 0,66,67
 524 328 524 328 529 339 c 0,68,69
 533 351 533 351 540 361 c 0,70,71
 547 372 547 372 560 376 c 0,72,73
 611 394 611 394 668 407 c 0,74,75
 724 420 724 420 779 424 c 1,76,77
 751 368 751 368 715 320 c 0,78,79
 680 273 680 273 641 226 c 0,80,81
 620 203 620 203 608 173 c 0,82,83
 597 144 597 144 586 114 c 0,84,85
 559 43 559 43 525 -21 c 0,86,87
 491 -86 491 -86 452 -152 c 0,88,89
 437 -177 437 -177 419 -195 c 0,90,91
 400 -213 400 -213 382 -235 c 0,92,93
 363 -261 363 -261 350 -291 c 0,94,95
 338 -321 338 -321 313 -342 c 1,96,97
 276 -338 276 -338 238 -333 c 0,98,99
 202 -328 202 -328 164 -332 c 1,100,101
 162 -328 162 -328 159 -321 c 1,102,103
 226 -254 226 -254 283 -177 c 0,104,105
 341 -101 341 -101 389 -17 c 0,106,107
 406 12 406 12 424 40 c 0,108,109
 441 68 441 68 452 99 c 1,110,111
 419 87 419 87 389 68 c 256,112,113
 359 49 359 49 325 36 c 0,114,115
 292 23 292 23 260 16 c 0,116,117
 226 6 226 6 191 6 c 0,118,119
 146 6 146 6 112 23 c 0,120,121
 78 42 78 42 56 70 c 0,122,123
 35 100 35 100 25 136 c 0,124,125
 14 174 14 174 14 217 c 0,126,127
 14 289 14 289 46 367 c 0,128,129
 75 445 75 445 122 516 c 0,130,131
 169 590 169 590 225 654 c 0,132,133
 281 719 281 719 333 766 c 0,134,135
 370 798 370 798 417 833 c 0,136,137
 464 867 464 867 515 894 c 0,138,139
 567 924 567 924 620 946 c 0,140,141
 673 967 673 967 723 978 c 0,142,143
 745 982 745 982 768 987 c 0,144,145
 786 991 786 991 803 991 c 0,146,147
 809 991 809 991 814 991 c 0,0,1
EndSplineSet
EndChar

StartChar: H
Encoding: 72 72 35
Width: 614
Flags: W
LayerCount: 2
Fore
SplineSet
1039 1024 m 1,0,1
 1010 946 1010 946 975 871 c 256,2,3
 940 796 940 796 909 718 c 0,4,5
 875 628 875 628 836 541 c 256,6,7
 797 454 797 454 759 367 c 0,8,9
 734 312 734 312 714 257 c 0,10,11
 692 203 692 203 667 150 c 0,12,13
 642 92 642 92 620 34 c 0,14,15
 598 -23 598 -23 571 -79 c 0,16,17
 567 -88 567 -88 563 -95 c 0,18,19
 558 -103 558 -103 550 -107 c 0,20,21
 542 -110 542 -110 520 -117 c 0,22,23
 499 -122 499 -122 476 -127 c 0,24,25
 451 -133 451 -133 429 -138 c 0,26,27
 406 -143 406 -143 395 -144 c 1,28,29
 437 -46 437 -46 478 51 c 0,30,31
 519 147 519 147 562 244 c 1,32,33
 506 248 506 248 450 250 c 0,34,35
 394 251 394 251 338 251 c 1,36,37
 321 205 321 205 299 160 c 0,38,39
 277 114 277 114 263 70 c 0,40,41
 256 55 256 55 252 42 c 0,42,43
 248 30 248 30 228 26 c 0,44,45
 225 26 225 26 224 27 c 0,46,47
 222 29 222 29 220 29 c 0,48,49
 185 14 185 14 151 4 c 0,50,51
 116 -6 116 -6 81 -14 c 1,52,53
 86 -4 86 -4 87 6 c 0,54,55
 88 17 88 17 92 29 c 0,56,57
 110 82 110 82 140 140 c 256,58,59
 170 198 170 198 195 252 c 1,60,61
 150 252 150 252 104 251 c 0,62,63
 58 251 58 251 13 246 c 1,64,65
 17 255 17 255 31 276 c 0,66,67
 44 296 44 296 60 320 c 0,68,69
 75 342 75 342 91 359 c 0,70,71
 107 377 107 377 114 380 c 0,72,73
 126 384 126 384 151 382 c 0,74,75
 174 381 174 381 199 381 c 0,76,77
 222 382 222 382 240 387 c 0,78,79
 259 394 259 394 259 411 c 1,80,81
 281 463 281 463 303 514 c 0,82,83
 326 564 326 564 348 615 c 0,84,85
 359 641 359 641 368 664 c 0,86,87
 377 689 377 689 387 714 c 0,88,89
 403 748 403 748 417 788 c 0,90,91
 432 828 432 828 456 857 c 1,92,93
 493 874 493 874 530 880 c 0,94,95
 568 888 568 888 607 900 c 1,96,97
 607 896 607 896 611 894 c 0,98,99
 614 892 614 892 616 889 c 0,100,101
 572 801 572 801 536 712 c 0,102,103
 499 623 499 623 460 533 c 0,104,105
 445 494 445 494 428 456 c 0,106,107
 410 420 410 420 402 378 c 1,108,109
 465 378 465 378 594 378 c 0,110,111
 602 378 602 378 610 378 c 0,112,113
 618 380 618 380 625 384 c 0,114,115
 642 412 642 412 650 445 c 0,116,117
 658 477 658 477 673 504 c 0,118,119
 690 536 690 536 703 566 c 0,120,121
 715 597 715 597 728 627 c 0,122,123
 771 733 771 733 857 946 c 0,124,125
 863 958 863 958 872 974 c 0,126,127
 883 988 883 988 894 994 c 256,128,129
 905 1000 905 1000 924 1005 c 0,130,131
 942 1009 942 1009 963 1013 c 0,132,133
 985 1017 985 1017 1005 1019 c 0,134,135
 1024 1022 1024 1022 1039 1024 c 1,0,1
EndSplineSet
EndChar

StartChar: I
Encoding: 73 73 36
Width: 614
Flags: W
LayerCount: 2
Fore
SplineSet
890 939 m 0,0,1
 939 939 939 939 968 904 c 0,2,3
 998 870 998 870 998 823 c 0,4,5
 998 800 998 800 984 754 c 256,6,7
 970 708 970 708 950 656 c 0,8,9
 932 604 932 604 913 558 c 0,10,11
 893 510 893 510 883 486 c 0,12,13
 852 412 852 412 820 338 c 0,14,15
 788 263 788 263 742 198 c 0,16,17
 698 133 698 133 636 87 c 0,18,19
 575 40 575 40 488 23 c 0,20,21
 443 16 443 16 398 13 c 0,22,23
 351 10 351 10 307 8 c 0,24,25
 160 4 160 4 13 4 c 1,26,27
 25 44 25 44 52 75 c 0,28,29
 78 107 78 107 99 143 c 1,30,31
 166 143 166 143 234 144 c 0,32,33
 300 146 300 146 369 146 c 0,34,35
 429 146 429 146 474 157 c 0,36,37
 520 169 520 169 568 205 c 0,38,39
 603 230 603 230 625 257 c 0,40,41
 647 285 647 285 663 315 c 0,42,43
 680 344 680 344 694 378 c 0,44,45
 707 411 707 411 723 448 c 0,46,47
 755 519 755 519 784 589 c 0,48,49
 814 659 814 659 841 731 c 0,50,51
 842 742 842 742 846 755 c 0,52,53
 849 767 849 767 849 779 c 0,54,55
 849 794 849 794 836 800 c 1,56,57
 807 800 807 800 777 789 c 0,58,59
 746 777 746 777 719 760 c 0,60,61
 690 742 690 742 664 723 c 0,62,63
 640 702 640 702 618 684 c 0,64,65
 606 673 606 673 581 650 c 0,66,67
 556 625 556 625 532 598 c 0,68,69
 506 571 506 571 486 545 c 0,70,71
 467 517 467 517 467 503 c 0,72,73
 467 464 467 464 488 430 c 0,74,75
 508 395 508 395 532 365 c 1,76,77
 506 335 506 335 481 309 c 0,78,79
 455 282 455 282 430 254 c 1,80,81
 395 309 395 309 367 370 c 0,82,83
 338 432 338 432 338 499 c 0,84,85
 338 516 338 516 342 537 c 0,86,87
 344 556 344 556 351 572 c 0,88,89
 367 610 367 610 396 650 c 0,90,91
 428 689 428 689 467 728 c 0,92,93
 507 767 507 767 554 801 c 0,94,95
 602 836 602 836 650 863 c 0,96,97
 699 890 699 890 745 909 c 0,98,99
 792 928 792 928 832 933 c 0,100,101
 846 936 846 936 862 937 c 0,102,103
 876 939 876 939 890 939 c 0,0,1
EndSplineSet
EndChar

StartChar: J
Encoding: 74 74 37
Width: 614
Flags: W
LayerCount: 2
Fore
SplineSet
798 935 m 0,0,1
 845 933 845 933 874 904 c 0,2,3
 900 876 900 876 900 832 c 0,4,5
 900 831 900 831 900 828 c 0,6,7
 900 803 900 803 883 754 c 0,8,9
 867 703 867 703 840 636 c 0,10,11
 815 571 815 571 784 497 c 0,12,13
 753 424 753 424 722 355 c 0,14,15
 692 289 692 289 668 233 c 256,16,17
 644 177 644 177 632 148 c 1,18,19
 649 144 649 144 664 143 c 0,20,21
 680 143 680 143 697 143 c 1,22,23
 711 108 711 108 727 74 c 0,24,25
 741 40 741 40 750 4 c 1,26,27
 681 20 681 20 611 20 c 0,28,29
 601 20 601 20 588 16 c 256,30,31
 575 12 575 12 568 4 c 0,32,33
 562 -4 562 -4 555 -20 c 0,34,35
 549 -36 549 -36 542 -53 c 0,36,37
 536 -72 536 -72 528 -90 c 0,38,39
 520 -107 520 -107 515 -118 c 0,40,41
 484 -177 484 -177 452 -228 c 0,42,43
 422 -277 422 -277 382 -313 c 0,44,45
 342 -348 342 -348 290 -369 c 0,46,47
 237 -390 237 -390 161 -390 c 0,48,49
 134 -390 134 -390 108 -381 c 0,50,51
 81 -372 81 -372 60 -355 c 0,52,53
 40 -339 40 -339 26 -316 c 0,54,55
 13 -292 13 -292 13 -264 c 0,56,57
 13 -207 13 -207 55 -155 c 0,58,59
 96 -103 96 -103 153 -58 c 0,60,61
 212 -16 212 -16 274 18 c 0,62,63
 337 52 337 52 382 74 c 0,64,65
 398 82 398 82 415 88 c 256,66,67
 432 94 432 94 446 100 c 0,68,69
 460 107 460 107 472 117 c 256,70,71
 484 127 484 127 489 148 c 0,72,73
 503 195 503 195 525 237 c 0,74,75
 547 278 547 278 564 324 c 0,76,77
 573 347 573 347 590 386 c 256,78,79
 607 425 607 425 627 468 c 0,80,81
 647 514 647 514 668 562 c 0,82,83
 688 610 688 610 706 653 c 0,84,85
 723 697 723 697 734 732 c 256,86,87
 745 767 745 767 746 786 c 1,88,89
 723 785 723 785 686 774 c 0,90,91
 651 762 651 762 610 742 c 0,92,93
 569 724 569 724 528 701 c 0,94,95
 486 677 486 677 450 651 c 0,96,97
 415 625 415 625 390 599 c 0,98,99
 365 572 365 572 358 549 c 0,100,101
 352 537 352 537 352 521 c 0,102,103
 351 506 351 506 351 493 c 0,104,105
 351 455 351 455 359 420 c 0,106,107
 367 384 367 384 376 347 c 0,108,109
 386 313 386 313 398 278 c 0,110,111
 410 242 410 242 421 208 c 1,112,113
 386 220 386 220 351 231 c 0,114,115
 317 242 317 242 282 256 c 0,116,117
 264 263 264 263 260 280 c 0,118,119
 256 296 256 296 251 315 c 0,120,121
 235 361 235 361 229 415 c 0,122,123
 222 468 222 468 222 516 c 0,124,125
 224 589 224 589 257 641 c 0,126,127
 291 694 291 694 347 734 c 0,128,129
 399 772 399 772 448 802 c 0,130,131
 497 833 497 833 547 857 c 0,132,133
 598 881 598 881 651 900 c 0,134,135
 706 918 706 918 770 931 c 0,136,137
 785 935 785 935 798 935 c 0,0,1
142 -256 m 1,138,139
 169 -266 169 -266 195 -266 c 0,140,141
 235 -266 235 -266 270 -243 c 0,142,143
 304 -221 304 -221 333 -186 c 0,144,145
 361 -153 361 -153 380 -113 c 0,146,147
 399 -72 399 -72 408 -38 c 1,148,149
 381 -49 381 -49 339 -74 c 0,150,151
 298 -100 298 -100 257 -130 c 0,152,153
 217 -161 217 -161 185 -194 c 0,154,155
 152 -226 152 -226 142 -256 c 1,138,139
EndSplineSet
EndChar

StartChar: K
Encoding: 75 75 38
Width: 614
Flags: W
LayerCount: 2
Fore
SplineSet
512 926 m 0,0,1
 520 926 520 926 534 923 c 1,2,3
 482 820 482 820 442 712 c 0,4,5
 402 606 402 606 355 502 c 0,6,7
 300 380 300 380 251 256 c 0,8,9
 200 133 200 133 152 8 c 1,10,11
 134 8 134 8 99 8 c 0,12,13
 78 8 78 8 13 8 c 1,14,15
 21 51 21 51 38 87 c 0,16,17
 55 124 55 124 72 162 c 0,18,19
 126 287 126 287 178 412 c 0,20,21
 229 537 229 537 282 662 c 0,22,23
 304 712 304 712 324 764 c 0,24,25
 343 816 343 816 368 864 c 0,26,27
 374 876 374 876 378 881 c 0,28,29
 384 888 384 888 389 890 c 0,30,31
 394 894 394 894 402 896 c 0,32,33
 410 897 410 897 422 901 c 0,34,35
 445 907 445 907 467 916 c 0,36,37
 490 926 490 926 512 926 c 0,0,1
857 841 m 0,38,39
 887 841 887 841 915 836 c 0,40,41
 944 831 944 831 975 831 c 1,42,43
 980 826 980 826 980 815 c 1,44,45
 846 694 846 694 718 573 c 256,46,47
 590 452 590 452 456 332 c 1,48,49
 517 251 517 251 581 173 c 0,50,51
 646 95 646 95 706 10 c 1,52,53
 679 12 679 12 651 10 c 0,54,55
 624 9 624 9 598 9 c 0,56,57
 584 9 584 9 569 10 c 0,58,59
 555 10 555 10 541 12 c 1,60,61
 491 73 491 73 442 133 c 0,62,63
 393 191 393 191 344 254 c 0,64,65
 332 270 332 270 321 290 c 0,66,67
 312 309 312 309 312 332 c 0,68,69
 312 343 312 343 315 351 c 0,70,71
 317 359 317 359 324 370 c 0,72,73
 339 398 339 398 361 421 c 0,74,75
 384 443 384 443 407 463 c 0,76,77
 432 484 432 484 456 503 c 0,78,79
 482 521 482 521 506 545 c 0,80,81
 550 588 550 588 593 629 c 0,82,83
 634 672 634 672 680 715 c 0,84,85
 711 741 711 741 742 767 c 0,86,87
 774 793 774 793 803 820 c 0,88,89
 819 832 819 832 828 837 c 0,90,91
 838 841 838 841 857 841 c 0,38,39
EndSplineSet
EndChar

StartChar: L
Encoding: 76 76 39
Width: 614
Flags: W
LayerCount: 2
Fore
SplineSet
919 919 m 0,0,1
 974 919 974 919 1008 889 c 0,2,3
 1041 861 1041 861 1041 803 c 0,4,5
 1041 764 1041 764 1020 710 c 0,6,7
 1000 656 1000 656 968 602 c 0,8,9
 940 549 940 549 905 502 c 0,10,11
 871 455 871 455 841 429 c 1,12,13
 810 422 810 422 777 417 c 0,14,15
 744 411 744 411 711 411 c 0,16,17
 705 411 705 411 697 411 c 0,18,19
 688 411 688 411 681 413 c 1,20,21
 723 465 723 465 763 517 c 256,22,23
 803 569 803 569 842 625 c 0,24,25
 867 660 867 660 880 698 c 0,26,27
 894 734 894 734 906 775 c 1,28,29
 898 777 898 777 890 780 c 0,30,31
 881 783 881 783 874 783 c 256,32,33
 867 783 867 783 858 780 c 0,34,35
 794 758 794 758 746 707 c 0,36,37
 698 658 698 658 660 595 c 0,38,39
 623 533 623 533 597 465 c 0,40,41
 569 398 569 398 549 339 c 0,42,43
 530 285 530 285 504 235 c 256,44,45
 478 185 478 185 456 131 c 1,46,47
 529 134 529 134 601 136 c 0,48,49
 672 140 672 140 745 138 c 0,50,51
 786 138 786 138 831 139 c 256,52,53
 876 140 876 140 914 125 c 1,54,55
 894 94 894 94 872 64 c 0,56,57
 849 35 849 35 829 3 c 1,58,59
 772 5 772 5 715 6 c 0,60,61
 658 8 658 8 601 8 c 0,62,63
 485 8 485 8 372 4 c 1,64,65
 299 -70 299 -70 209 -122 c 0,66,67
 118 -174 118 -174 13 -186 c 1,68,69
 17 -156 17 -156 32 -121 c 0,70,71
 48 -86 48 -86 62 -58 c 0,72,73
 82 -21 82 -21 105 0 c 0,74,75
 129 21 129 21 156 35 c 256,76,77
 183 49 183 49 214 60 c 0,78,79
 246 70 246 70 281 86 c 0,80,81
 296 92 296 92 302 100 c 0,82,83
 307 108 307 108 313 122 c 0,84,85
 338 169 338 169 361 214 c 0,86,87
 385 261 385 261 404 311 c 0,88,89
 441 398 441 398 476 488 c 0,90,91
 510 577 510 577 560 659 c 0,92,93
 588 702 588 702 621 742 c 0,94,95
 656 783 656 783 697 816 c 0,96,97
 737 850 737 850 784 876 c 0,98,99
 831 901 831 901 881 913 c 0,100,101
 890 916 890 916 900 918 c 0,102,103
 907 919 907 919 919 919 c 0,0,1
EndSplineSet
EndChar

StartChar: M
Encoding: 77 77 40
Width: 614
Flags: W
LayerCount: 2
Fore
SplineSet
880 931 m 1,0,1
 855 870 855 870 833 807 c 0,2,3
 810 745 810 745 788 681 c 0,4,5
 780 658 780 658 774 633 c 0,6,7
 767 608 767 608 758 585 c 0,8,9
 736 530 736 530 715 477 c 0,10,11
 696 424 696 424 680 368 c 1,12,13
 741 437 741 437 798 508 c 0,14,15
 855 578 855 578 916 649 c 0,16,17
 962 705 962 705 1009 760 c 0,18,19
 1056 816 1056 816 1102 872 c 0,20,21
 1118 889 1118 889 1138 898 c 0,22,23
 1157 907 1157 907 1176 911 c 0,24,25
 1199 918 1199 918 1219 919 c 0,26,27
 1242 920 1242 920 1264 924 c 1,28,29
 1245 876 1245 876 1222 833 c 0,30,31
 1199 789 1199 789 1176 744 c 0,32,33
 1143 671 1143 671 1108 598 c 0,34,35
 1072 524 1072 524 1041 450 c 0,36,37
 1009 376 1009 376 983 299 c 0,38,39
 956 222 956 222 940 143 c 1,40,41
 970 138 970 138 1001 136 c 0,42,43
 1032 135 1032 135 1062 131 c 1,44,45
 1050 103 1050 103 1037 74 c 0,46,47
 1023 47 1023 47 1009 20 c 1,48,49
 998 12 998 12 985 9 c 0,50,51
 974 6 974 6 959 6 c 0,52,53
 927 6 927 6 898 10 c 0,54,55
 871 13 871 13 849 25 c 0,56,57
 829 38 829 38 818 61 c 0,58,59
 806 84 806 84 806 124 c 0,60,61
 806 166 806 166 823 221 c 256,62,63
 840 276 840 276 863 333 c 0,64,65
 885 390 885 390 909 445 c 0,66,67
 933 499 933 499 948 542 c 1,68,69
 920 519 920 519 901 490 c 0,70,71
 883 462 883 462 862 436 c 0,72,73
 764 313 764 313 572 69 c 0,74,75
 559 52 559 52 550 34 c 0,76,77
 541 14 541 14 519 5 c 1,78,79
 495 6 495 6 471 8 c 0,80,81
 447 8 447 8 424 12 c 1,82,83
 436 52 436 52 454 90 c 0,84,85
 473 126 473 126 488 166 c 0,86,87
 510 230 510 230 538 291 c 0,88,89
 567 351 567 351 590 415 c 0,90,91
 603 454 603 454 621 491 c 0,92,93
 640 530 640 530 645 569 c 1,94,95
 619 541 619 541 581 490 c 0,96,97
 545 441 545 441 499 382 c 0,98,99
 455 324 455 324 407 261 c 0,100,101
 359 200 359 200 315 146 c 0,102,103
 270 91 270 91 231 49 c 0,104,105
 192 8 192 8 168 -9 c 1,106,107
 142 -12 142 -12 114 -14 c 0,108,109
 87 -16 87 -16 60 -16 c 0,110,111
 48 -16 48 -16 36 -16 c 0,112,113
 25 -14 25 -14 13 -13 c 1,114,115
 34 17 34 17 58 44 c 0,116,117
 82 72 82 72 107 100 c 0,118,119
 117 112 117 112 126 125 c 256,120,121
 135 138 135 138 147 151 c 0,122,123
 169 176 169 176 191 200 c 0,124,125
 214 224 214 224 237 247 c 0,126,127
 299 320 299 320 360 394 c 256,128,129
 421 468 421 468 480 545 c 0,130,131
 534 616 534 616 585 689 c 0,132,133
 634 763 634 763 686 836 c 0,134,135
 697 849 697 849 703 861 c 0,136,137
 710 872 710 872 716 881 c 0,138,139
 724 892 724 892 734 900 c 0,140,141
 745 906 745 906 763 910 c 0,142,143
 792 919 792 919 820 923 c 0,144,145
 849 928 849 928 880 931 c 1,0,1
EndSplineSet
EndChar

StartChar: N
Encoding: 78 78 41
Width: 614
Flags: W
LayerCount: 2
Fore
SplineSet
1076 942 m 1,0,1
 1083 935 1083 935 1096 916 c 256,2,3
 1109 897 1109 897 1122 876 c 0,4,5
 1136 855 1136 855 1147 837 c 0,6,7
 1157 819 1157 819 1157 811 c 0,8,9
 1157 796 1157 796 1152 784 c 256,10,11
 1147 772 1147 772 1140 762 c 0,12,13
 1101 680 1101 680 1060 601 c 0,14,15
 1018 521 1018 521 972 446 c 0,16,17
 926 372 926 372 872 299 c 0,18,19
 820 228 820 228 759 161 c 0,20,21
 742 143 742 143 718 114 c 0,22,23
 692 87 692 87 663 58 c 0,24,25
 633 32 633 32 603 13 c 256,26,27
 573 -6 573 -6 550 -6 c 0,28,29
 532 -6 532 -6 520 6 c 0,30,31
 510 20 510 20 504 38 c 0,32,33
 500 56 500 56 500 75 c 0,34,35
 499 96 499 96 499 110 c 0,36,37
 499 165 499 165 508 218 c 0,38,39
 516 273 516 273 528 326 c 0,40,41
 540 380 540 380 550 432 c 0,42,43
 562 485 562 485 569 540 c 1,44,45
 542 504 542 504 519 465 c 0,46,47
 497 428 497 428 473 391 c 0,48,49
 381 244 381 244 272 110 c 0,50,51
 259 92 259 92 244 74 c 0,52,53
 230 56 230 56 216 40 c 0,54,55
 204 26 204 26 191 16 c 0,56,57
 178 4 178 4 160 1 c 0,58,59
 142 -1 142 -1 121 1 c 0,60,61
 101 3 101 3 82 3 c 0,62,63
 65 3 65 3 48 4 c 256,64,65
 31 5 31 5 13 9 c 1,66,67
 129 116 129 116 225 239 c 0,68,69
 320 364 320 364 408 493 c 0,70,71
 477 588 477 588 533 686 c 0,72,73
 589 786 589 786 651 885 c 1,74,75
 692 897 692 897 733 906 c 0,76,77
 774 914 774 914 816 923 c 1,78,79
 781 842 781 842 748 753 c 0,80,81
 715 662 715 662 688 567 c 0,82,83
 663 474 663 474 646 380 c 0,84,85
 629 285 629 285 627 199 c 1,86,87
 676 233 676 233 711 282 c 0,88,89
 746 332 746 332 781 380 c 0,90,91
 822 434 822 434 857 491 c 0,92,93
 892 549 892 549 923 610 c 0,94,95
 935 632 935 632 945 656 c 0,96,97
 956 680 956 680 968 703 c 0,98,99
 1002 763 1002 763 1030 820 c 0,100,101
 1056 878 1056 878 1076 942 c 1,0,1
EndSplineSet
EndChar

StartChar: O
Encoding: 79 79 42
Width: 614
Flags: W
LayerCount: 2
Fore
SplineSet
590 909 m 0,0,1
 642 909 642 909 692 890 c 0,2,3
 741 871 741 871 783 837 c 0,4,5
 824 803 824 803 852 759 c 0,6,7
 880 714 880 714 889 662 c 1,8,9
 916 662 916 662 968 662 c 1,10,11
 978 627 978 627 982 593 c 0,12,13
 987 558 987 558 989 523 c 1,14,15
 970 523 970 523 953 524 c 0,16,17
 935 525 935 525 916 525 c 0,18,19
 906 525 906 525 897 525 c 0,20,21
 887 524 887 524 878 523 c 1,22,23
 863 462 863 462 835 399 c 0,24,25
 807 337 807 337 766 277 c 256,26,27
 725 217 725 217 676 164 c 0,28,29
 625 112 625 112 567 73 c 0,30,31
 510 35 510 35 446 12 c 0,32,33
 381 -10 381 -10 315 -10 c 0,34,35
 243 -10 243 -10 188 16 c 256,36,37
 133 42 133 42 94 86 c 0,38,39
 55 129 55 129 35 188 c 0,40,41
 14 247 14 247 14 315 c 0,42,43
 14 350 14 350 20 381 c 0,44,45
 25 411 25 411 35 441 c 0,46,47
 46 469 46 469 58 498 c 0,48,49
 70 528 70 528 86 558 c 0,50,51
 124 646 124 646 188 708 c 0,52,53
 254 772 254 772 330 824 c 0,54,55
 374 854 374 854 425 872 c 0,56,57
 477 889 477 889 529 902 c 0,58,59
 543 906 543 906 559 907 c 0,60,61
 575 909 575 909 590 909 c 0,0,1
142 318 m 0,62,63
 142 280 142 280 152 246 c 0,64,65
 164 212 164 212 185 186 c 0,66,67
 208 161 208 161 239 147 c 0,68,69
 270 131 270 131 312 131 c 0,70,71
 385 131 385 131 455 168 c 0,72,73
 524 203 524 203 581 259 c 0,74,75
 641 316 641 316 681 384 c 0,76,77
 723 452 723 452 738 519 c 1,78,79
 716 521 716 521 696 525 c 0,80,81
 675 530 675 530 659 538 c 0,82,83
 644 547 644 547 633 564 c 0,84,85
 623 581 623 581 623 611 c 0,86,87
 623 650 623 650 645 686 c 0,88,89
 666 724 666 724 681 759 c 1,90,91
 641 777 641 777 597 777 c 0,92,93
 536 777 536 777 474 750 c 256,94,95
 412 723 412 723 358 679 c 0,96,97
 303 636 303 636 260 584 c 0,98,99
 216 530 216 530 190 478 c 0,100,101
 172 439 172 439 156 400 c 0,102,103
 142 363 142 363 142 318 c 0,62,63
EndSplineSet
EndChar

StartChar: P
Encoding: 80 80 43
Width: 614
Flags: W
LayerCount: 2
Fore
SplineSet
920 916 m 0,0,1
 958 916 958 916 984 900 c 0,2,3
 1010 883 1010 883 1024 855 c 1,4,5
 1041 831 1041 831 1048 798 c 0,6,7
 1054 766 1054 766 1054 733 c 0,8,9
 1054 672 1054 672 1030 594 c 0,10,11
 1005 516 1005 516 963 443 c 0,12,13
 923 370 923 370 868 311 c 0,14,15
 815 252 815 252 755 228 c 0,16,17
 728 217 728 217 697 211 c 256,18,19
 666 205 666 205 632 202 c 0,20,21
 599 199 599 199 567 198 c 0,22,23
 534 196 534 196 506 196 c 0,24,25
 491 196 491 196 478 212 c 256,26,27
 465 228 465 228 454 248 c 0,28,29
 443 270 443 270 434 291 c 0,30,31
 426 313 426 313 420 325 c 1,32,33
 385 296 385 296 364 255 c 0,34,35
 343 212 343 212 318 176 c 0,36,37
 287 135 287 135 265 92 c 0,38,39
 243 48 243 48 211 12 c 1,40,41
 200 9 200 9 177 5 c 0,42,43
 153 1 153 1 127 -3 c 0,44,45
 104 -8 104 -8 82 -12 c 0,46,47
 60 -14 60 -14 51 -14 c 0,48,49
 40 -14 40 -14 31 -14 c 0,50,51
 22 -13 22 -13 13 -9 c 1,52,53
 47 44 47 44 81 94 c 0,54,55
 114 144 114 144 153 192 c 0,56,57
 187 237 187 237 220 280 c 0,58,59
 254 322 254 322 276 373 c 0,60,61
 296 422 296 422 320 471 c 0,62,63
 343 519 343 519 364 567 c 0,64,65
 385 616 385 616 402 667 c 256,66,67
 419 718 419 718 426 772 c 1,68,69
 389 772 389 772 315 772 c 1,70,71
 303 802 303 802 292 833 c 256,72,73
 281 864 281 864 273 894 c 1,74,75
 334 907 334 907 400 907 c 0,76,77
 430 907 430 907 458 905 c 0,78,79
 486 902 486 902 507 892 c 0,80,81
 529 883 529 883 541 861 c 0,82,83
 552 838 552 838 552 801 c 0,84,85
 552 772 552 772 545 744 c 0,86,87
 537 716 537 716 525 689 c 0,88,89
 516 663 516 663 506 636 c 0,90,91
 495 608 495 608 490 580 c 1,92,93
 512 604 512 604 543 640 c 0,94,95
 575 673 575 673 611 711 c 0,96,97
 647 748 647 748 686 785 c 256,98,99
 725 822 725 822 766 850 c 0,100,101
 807 880 807 880 845 898 c 0,102,103
 884 916 884 916 920 916 c 0,0,1
430 330 m 1,104,105
 493 330 493 330 545 334 c 0,106,107
 598 338 598 338 659 344 c 0,108,109
 689 348 689 348 716 359 c 0,110,111
 742 370 742 370 766 393 c 0,112,113
 789 417 789 417 816 455 c 0,114,115
 842 494 842 494 864 537 c 0,116,117
 885 580 885 580 900 624 c 0,118,119
 913 667 913 667 913 702 c 0,120,121
 913 722 913 722 906 740 c 0,122,123
 900 758 900 758 884 771 c 1,124,125
 849 762 849 762 809 734 c 0,126,127
 768 707 768 707 724 667 c 0,128,129
 680 628 680 628 637 581 c 0,130,131
 594 536 594 536 554 489 c 0,132,133
 515 443 515 443 482 402 c 0,134,135
 450 359 450 359 430 330 c 1,104,105
EndSplineSet
EndChar

StartChar: Q
Encoding: 81 81 44
Width: 614
Flags: W
LayerCount: 2
Fore
SplineSet
694 963 m 0,0,1
 759 963 759 963 812 942 c 0,2,3
 867 922 867 922 904 883 c 0,4,5
 942 845 942 845 963 792 c 0,6,7
 985 737 985 737 985 672 c 0,8,9
 985 593 985 593 954 516 c 0,10,11
 923 441 923 441 872 374 c 0,12,13
 823 308 823 308 758 255 c 0,14,15
 694 202 694 202 627 166 c 0,16,17
 601 153 601 153 575 144 c 0,18,19
 549 134 549 134 524 118 c 1,20,21
 536 117 536 117 546 117 c 256,22,23
 556 117 556 117 567 117 c 0,24,25
 632 117 632 117 698 125 c 0,26,27
 763 133 763 133 828 133 c 0,28,29
 838 133 838 133 849 117 c 0,30,31
 858 100 858 100 867 77 c 0,32,33
 875 56 875 56 880 35 c 256,34,35
 885 14 885 14 887 5 c 1,36,37
 755 9 755 9 625 10 c 0,38,39
 497 12 497 12 365 12 c 0,40,41
 318 12 318 12 276 -1 c 0,42,43
 233 -13 233 -13 188 -30 c 0,44,45
 147 -46 147 -46 103 -60 c 0,46,47
 60 -74 60 -74 13 -77 c 1,48,49
 17 -68 17 -68 30 -49 c 0,50,51
 43 -32 43 -32 58 -9 c 0,52,53
 75 12 75 12 95 35 c 0,54,55
 114 58 114 58 131 77 c 0,56,57
 151 98 151 98 165 109 c 0,58,59
 179 122 179 122 188 125 c 0,60,61
 203 127 203 127 228 127 c 0,62,63
 254 126 254 126 268 126 c 0,64,65
 286 126 286 126 306 127 c 0,66,67
 325 129 325 129 343 134 c 0,68,69
 477 179 477 179 581 263 c 0,70,71
 686 344 686 344 771 452 c 0,72,73
 807 499 807 499 832 562 c 0,74,75
 857 624 857 624 857 684 c 0,76,77
 857 729 857 729 840 759 c 256,78,79
 823 789 823 789 793 809 c 0,80,81
 766 827 766 827 729 835 c 0,82,83
 692 842 692 842 654 842 c 0,84,85
 604 842 604 842 554 816 c 0,86,87
 503 789 503 789 460 748 c 0,88,89
 419 708 419 708 386 659 c 0,90,91
 354 610 354 610 341 566 c 0,92,93
 333 540 333 540 326 510 c 0,94,95
 321 480 321 480 321 451 c 0,96,97
 321 413 321 413 330 386 c 0,98,99
 341 358 341 358 359 335 c 0,100,101
 378 315 378 315 404 298 c 256,102,103
 430 281 430 281 462 268 c 1,104,105
 421 218 421 218 372 177 c 1,106,107
 329 202 329 202 295 226 c 0,108,109
 261 252 261 252 237 282 c 0,110,111
 213 313 213 313 200 352 c 0,112,113
 186 393 186 393 186 445 c 0,114,115
 186 469 186 469 191 493 c 0,116,117
 196 516 196 516 203 541 c 0,118,119
 213 580 213 580 224 620 c 0,120,121
 234 659 234 659 256 696 c 0,122,123
 329 818 329 818 437 892 c 0,124,125
 543 963 543 963 688 963 c 0,126,127
 690 963 690 963 694 963 c 0,0,1
EndSplineSet
EndChar

StartChar: R
Encoding: 82 82 45
Width: 614
Flags: W
LayerCount: 2
Fore
SplineSet
315 922 m 0,0,1
 315 930 315 930 320 937 c 0,2,3
 325 946 325 946 334 946 c 0,4,5
 339 946 339 946 347 941 c 1,6,7
 393 941 393 941 442 940 c 0,8,9
 491 940 491 940 534 930 c 0,10,11
 566 922 566 922 577 894 c 0,12,13
 589 868 589 868 588 838 c 0,14,15
 588 810 588 810 578 781 c 0,16,17
 571 754 571 754 560 725 c 0,18,19
 550 698 550 698 540 671 c 0,20,21
 529 644 529 644 521 615 c 1,22,23
 545 637 545 637 576 671 c 0,24,25
 608 703 608 703 646 737 c 0,26,27
 684 774 684 774 725 809 c 0,28,29
 767 842 767 842 809 871 c 0,30,31
 849 898 849 898 888 916 c 0,32,33
 927 933 927 933 959 933 c 0,34,35
 1000 933 1000 933 1027 915 c 256,36,37
 1054 897 1054 897 1070 870 c 0,38,39
 1088 841 1088 841 1096 807 c 0,40,41
 1104 772 1104 772 1104 738 c 0,42,43
 1104 654 1104 654 1071 577 c 0,44,45
 1040 500 1040 500 989 433 c 0,46,47
 937 363 937 363 864 320 c 0,48,49
 792 278 792 278 707 264 c 1,50,51
 733 233 733 233 755 199 c 256,52,53
 777 165 777 165 796 129 c 1,54,55
 802 127 802 127 816 127 c 0,56,57
 832 127 832 127 848 129 c 0,58,59
 863 130 863 130 879 130 c 0,60,61
 905 130 905 130 924 124 c 1,62,63
 936 92 936 92 949 61 c 0,64,65
 962 31 962 31 966 -4 c 1,66,67
 949 -4 949 -4 920 -4 c 0,68,69
 916 -4 916 -4 911 -4 c 0,70,71
 878 -4 878 -4 840 -4 c 0,72,73
 803 -4 803 -4 771 -3 c 0,74,75
 737 -1 737 -1 722 3 c 0,76,77
 707 5 707 5 699 22 c 0,78,79
 690 39 690 39 684 51 c 0,80,81
 656 105 656 105 624 151 c 0,82,83
 593 196 593 196 547 237 c 1,84,85
 515 248 515 248 481 247 c 0,86,87
 447 244 447 244 413 255 c 1,88,89
 441 291 441 291 474 321 c 0,90,91
 508 350 508 350 547 376 c 1,92,93
 568 378 568 378 590 377 c 0,94,95
 611 376 611 376 632 376 c 0,96,97
 697 376 697 376 759 406 c 0,98,99
 822 437 822 437 871 486 c 0,100,101
 922 537 922 537 952 599 c 0,102,103
 983 662 983 662 983 724 c 0,104,105
 983 742 983 742 978 759 c 0,106,107
 972 776 972 776 958 789 c 0,108,109
 952 792 952 792 946 793 c 0,110,111
 941 794 941 794 935 794 c 0,112,113
 898 794 898 794 850 763 c 0,114,115
 801 731 801 731 751 686 c 0,116,117
 702 645 702 645 658 599 c 0,118,119
 615 555 615 555 592 530 c 0,120,121
 538 474 538 474 481 417 c 0,122,123
 425 359 425 359 382 296 c 0,124,125
 374 285 374 285 360 261 c 0,126,127
 346 238 346 238 329 209 c 0,128,129
 312 179 312 179 292 148 c 0,130,131
 273 117 273 117 255 91 c 0,132,133
 235 65 235 65 220 47 c 0,134,135
 204 29 204 29 195 25 c 0,136,137
 151 10 151 10 105 5 c 0,138,139
 60 -1 60 -1 13 0 c 1,140,141
 21 23 21 23 48 66 c 0,142,143
 74 109 74 109 107 155 c 0,144,145
 140 202 140 202 172 243 c 0,146,147
 204 285 204 285 222 308 c 0,148,149
 303 408 303 408 359 520 c 0,150,151
 413 630 413 630 452 754 c 0,152,153
 456 767 456 767 456 780 c 0,154,155
 456 794 456 794 452 807 c 1,156,157
 433 814 433 814 415 814 c 0,158,159
 398 814 398 814 381 811 c 0,160,161
 364 809 364 809 346 809 c 1,162,163
 343 815 343 815 338 831 c 0,164,165
 333 848 333 848 328 866 c 0,166,167
 322 884 322 884 318 900 c 0,168,169
 315 916 315 916 315 922 c 0,0,1
EndSplineSet
EndChar

StartChar: S
Encoding: 83 83 46
Width: 614
Flags: W
LayerCount: 2
Fore
SplineSet
786 940 m 0,0,1
 833 940 833 940 857 910 c 0,2,3
 879 883 879 883 879 844 c 0,4,5
 879 841 879 841 879 838 c 0,6,7
 879 798 879 798 854 749 c 0,8,9
 829 699 829 699 794 649 c 0,10,11
 762 598 762 598 724 552 c 0,12,13
 686 507 686 507 662 478 c 1,14,15
 608 478 608 478 502 478 c 1,16,17
 521 508 521 508 556 550 c 0,18,19
 590 592 590 592 623 634 c 0,20,21
 656 679 656 679 682 722 c 0,22,23
 710 764 710 764 716 796 c 1,24,25
 711 796 711 796 703 796 c 0,26,27
 679 796 679 796 644 786 c 0,28,29
 608 777 608 777 569 760 c 0,30,31
 532 744 532 744 493 723 c 0,32,33
 454 701 454 701 424 673 c 0,34,35
 393 649 393 649 373 620 c 0,36,37
 354 593 354 593 354 564 c 0,38,39
 354 545 354 545 369 521 c 0,40,41
 385 498 385 498 408 473 c 0,42,43
 433 447 433 447 460 419 c 0,44,45
 488 390 488 390 511 359 c 0,46,47
 536 330 536 330 551 298 c 0,48,49
 567 266 567 266 567 233 c 0,50,51
 567 207 567 207 559 179 c 0,52,53
 550 153 550 153 536 127 c 0,54,55
 521 103 521 103 503 81 c 0,56,57
 485 60 485 60 463 47 c 0,58,59
 445 35 445 35 422 27 c 0,60,61
 399 20 399 20 376 16 c 0,62,63
 351 12 351 12 328 12 c 0,64,65
 303 10 303 10 282 10 c 0,66,67
 173 10 173 10 64 8 c 0,68,69
 -9 6 -9 6 -81 6 c 0,70,71
 -118 6 -118 6 -155 6 c 1,72,73
 -138 43 -138 43 -117 74 c 0,74,75
 -96 107 -96 107 -74 140 c 1,76,77
 40 139 40 139 272 138 c 0,78,79
 291 138 291 138 317 142 c 256,80,81
 343 146 343 146 367 155 c 0,82,83
 389 164 389 164 406 179 c 0,84,85
 422 196 422 196 422 222 c 0,86,87
 422 246 422 246 406 270 c 0,88,89
 389 294 389 294 365 320 c 0,90,91
 341 344 341 344 312 372 c 0,92,93
 283 398 283 398 259 428 c 0,94,95
 234 456 234 456 218 489 c 0,96,97
 203 521 203 521 203 558 c 0,98,99
 203 580 203 580 209 602 c 0,100,101
 216 624 216 624 226 645 c 0,102,103
 265 711 265 711 329 766 c 0,104,105
 393 820 393 820 468 858 c 0,106,107
 546 897 546 897 628 919 c 0,108,109
 711 940 711 940 786 940 c 0,0,1
EndSplineSet
EndChar

StartChar: T
Encoding: 84 84 47
Width: 614
Flags: W
LayerCount: 2
Fore
SplineSet
722 963 m 1,0,1
 718 941 718 941 710 919 c 0,2,3
 703 896 703 896 696 874 c 1,4,5
 745 878 745 878 794 884 c 0,6,7
 842 892 842 892 892 898 c 1,8,9
 892 894 892 894 893 887 c 0,10,11
 893 875 893 875 889 857 c 0,12,13
 884 838 884 838 878 820 c 0,14,15
 871 801 871 801 863 785 c 0,16,17
 854 768 854 768 848 760 c 0,18,19
 838 750 838 750 828 750 c 256,20,21
 818 750 818 750 806 745 c 0,22,23
 764 741 764 741 723 737 c 0,24,25
 681 733 681 733 641 729 c 0,26,27
 632 725 632 725 625 720 c 0,28,29
 618 716 618 716 614 708 c 0,30,31
 603 688 603 688 594 663 c 0,32,33
 586 637 586 637 577 615 c 0,34,35
 558 564 558 564 537 515 c 0,36,37
 516 465 516 465 495 415 c 0,38,39
 480 381 480 381 465 344 c 0,40,41
 451 309 451 309 437 273 c 0,42,43
 413 217 413 217 386 162 c 0,44,45
 358 108 358 108 339 49 c 0,46,47
 334 35 334 35 330 21 c 0,48,49
 326 8 326 8 308 1 c 0,50,51
 274 -9 274 -9 237 -13 c 0,52,53
 199 -16 199 -16 164 -20 c 1,54,55
 224 130 224 130 291 276 c 0,56,57
 358 421 358 421 417 571 c 0,58,59
 429 603 429 603 443 634 c 0,60,61
 458 667 458 667 469 699 c 1,62,63
 421 694 421 694 364 686 c 0,64,65
 307 680 307 680 247 672 c 0,66,67
 188 664 188 664 133 655 c 0,68,69
 75 646 75 646 29 636 c 1,70,71
 22 644 22 644 18 653 c 0,72,73
 13 662 13 662 13 670 c 0,74,75
 13 679 13 679 20 694 c 0,76,77
 26 710 26 710 36 725 c 0,78,79
 47 742 47 742 57 757 c 0,80,81
 68 770 68 770 75 775 c 0,82,83
 150 786 150 786 221 797 c 0,84,85
 294 807 294 807 368 818 c 0,86,87
 402 823 402 823 437 826 c 0,88,89
 473 829 473 829 507 836 c 0,90,91
 528 840 528 840 534 855 c 0,92,93
 542 871 542 871 547 888 c 256,94,95
 552 905 552 905 560 922 c 0,96,97
 568 937 568 937 589 942 c 0,98,99
 620 952 620 952 654 958 c 0,100,101
 688 963 688 963 722 963 c 1,0,1
EndSplineSet
EndChar

StartChar: U
Encoding: 85 85 48
Width: 614
Flags: W
LayerCount: 2
Fore
SplineSet
208 956 m 0,0,1
 222 956 222 956 237 950 c 0,2,3
 252 945 252 945 265 941 c 0,4,5
 316 926 316 926 348 884 c 0,6,7
 382 844 382 844 382 788 c 0,8,9
 382 746 382 746 365 694 c 0,10,11
 348 641 348 641 324 581 c 0,12,13
 298 523 298 523 269 464 c 0,14,15
 240 404 240 404 216 351 c 0,16,17
 190 298 190 298 174 254 c 0,18,19
 157 209 157 209 157 181 c 0,20,21
 156 164 156 164 169 148 c 0,22,23
 181 133 181 133 200 133 c 0,24,25
 220 133 220 133 247 147 c 0,26,27
 274 160 274 160 300 178 c 0,28,29
 329 199 329 199 352 218 c 0,30,31
 376 238 376 238 390 254 c 0,32,33
 406 269 406 269 426 292 c 0,34,35
 447 316 447 316 467 341 c 0,36,37
 489 368 489 368 507 394 c 0,38,39
 524 420 524 420 534 439 c 0,40,41
 555 484 555 484 573 528 c 0,42,43
 592 572 592 572 608 616 c 0,44,45
 627 660 627 660 647 703 c 0,46,47
 668 746 668 746 696 789 c 0,48,49
 702 800 702 800 708 815 c 0,50,51
 716 829 716 829 724 844 c 0,52,53
 732 858 732 858 742 870 c 0,54,55
 754 881 754 881 766 885 c 0,56,57
 780 890 780 890 801 896 c 0,58,59
 823 900 823 900 845 904 c 0,60,61
 868 907 868 907 890 910 c 0,62,63
 911 913 911 913 928 913 c 0,64,65
 932 913 932 913 936 913 c 0,66,67
 941 911 941 911 946 911 c 1,68,69
 936 874 936 874 918 845 c 0,70,71
 900 818 900 818 881 784 c 0,72,73
 871 767 871 767 863 748 c 256,74,75
 855 729 855 729 846 711 c 0,76,77
 820 660 820 660 792 610 c 0,78,79
 763 559 763 559 731 512 c 0,80,81
 703 469 703 469 676 434 c 0,82,83
 650 399 650 399 634 348 c 0,84,85
 623 307 623 307 612 263 c 0,86,87
 602 220 602 220 602 176 c 0,88,89
 602 160 602 160 620 152 c 0,90,91
 640 144 640 144 664 142 c 0,92,93
 689 138 689 138 714 139 c 0,94,95
 738 140 738 140 751 140 c 1,96,97
 733 107 733 107 719 73 c 0,98,99
 705 40 705 40 686 8 c 1,100,101
 671 8 671 8 655 8 c 0,102,103
 640 6 640 6 623 6 c 0,104,105
 592 6 592 6 563 9 c 0,106,107
 536 12 536 12 514 22 c 0,108,109
 494 34 494 34 482 55 c 0,110,111
 469 77 469 77 469 117 c 0,112,113
 469 135 469 135 473 153 c 0,114,115
 476 170 476 170 476 188 c 1,116,117
 446 157 446 157 412 124 c 0,118,119
 378 90 378 90 339 61 c 0,120,121
 302 34 302 34 260 16 c 0,122,123
 217 -3 217 -3 170 -3 c 0,124,125
 136 -3 136 -3 108 10 c 0,126,127
 79 22 79 22 58 44 c 0,128,129
 38 65 38 65 25 94 c 0,130,131
 13 122 13 122 13 156 c 0,132,133
 14 208 14 208 32 263 c 0,134,135
 49 318 49 318 70 367 c 0,136,137
 109 451 109 451 150 534 c 0,138,139
 188 618 188 618 216 707 c 0,140,141
 222 729 222 729 222 746 c 0,142,143
 222 766 222 766 216 784 c 0,144,145
 209 801 209 801 195 814 c 1,146,147
 162 819 162 819 99 829 c 1,148,149
 104 840 104 840 117 862 c 0,150,151
 130 883 130 883 147 902 c 0,152,153
 164 924 164 924 179 940 c 0,154,155
 196 956 196 956 208 956 c 0,0,1
EndSplineSet
EndChar

StartChar: V
Encoding: 86 86 49
Width: 614
Flags: W
LayerCount: 2
Fore
SplineSet
316 913 m 0,0,1
 322 913 322 913 329 913 c 0,2,3
 337 911 337 911 343 910 c 1,4,5
 307 802 307 802 270 694 c 0,6,7
 235 586 235 586 208 476 c 0,8,9
 195 420 195 420 178 364 c 0,10,11
 162 309 162 309 155 252 c 1,12,13
 188 270 188 270 217 302 c 0,14,15
 244 333 244 333 272 363 c 0,16,17
 382 486 382 486 480 616 c 0,18,19
 577 746 577 746 663 888 c 0,20,21
 670 898 670 898 676 905 c 0,22,23
 682 910 682 910 697 910 c 0,24,25
 731 910 731 910 766 909 c 0,26,27
 800 907 800 907 833 904 c 1,28,29
 822 876 822 876 802 852 c 0,30,31
 784 828 784 828 768 802 c 0,32,33
 656 630 656 630 534 468 c 0,34,35
 412 307 412 307 261 165 c 0,36,37
 235 143 235 143 211 118 c 0,38,39
 185 94 185 94 159 69 c 0,40,41
 131 47 131 47 103 27 c 0,42,43
 73 8 73 8 42 -4 c 1,44,45
 35 9 35 9 23 22 c 0,46,47
 13 36 13 36 13 52 c 0,48,49
 14 251 14 251 60 439 c 0,50,51
 105 628 105 628 166 816 c 0,52,53
 173 836 173 836 179 864 c 256,54,55
 185 892 185 892 200 906 c 0,56,57
 207 913 207 913 221 911 c 0,58,59
 237 909 237 909 243 909 c 0,60,61
 263 909 263 909 280 911 c 0,62,63
 296 913 296 913 316 913 c 0,0,1
EndSplineSet
EndChar

StartChar: W
Encoding: 87 87 50
Width: 614
Flags: W
LayerCount: 2
Fore
SplineSet
213 902 m 1,0,1
 257 919 257 919 303 919 c 0,2,3
 330 919 330 919 351 913 c 1,4,5
 282 744 282 744 237 569 c 0,6,7
 190 395 190 395 162 216 c 1,8,9
 192 233 192 233 233 272 c 0,10,11
 272 311 272 311 312 355 c 0,12,13
 351 400 351 400 386 445 c 0,14,15
 422 489 422 489 446 519 c 0,16,17
 467 547 467 547 482 578 c 0,18,19
 497 610 497 610 507 642 c 0,20,21
 517 673 517 673 528 707 c 0,22,23
 537 740 537 740 547 774 c 0,24,25
 563 822 563 822 597 918 c 1,26,27
 630 918 630 918 734 918 c 1,28,29
 702 814 702 814 672 710 c 0,30,31
 644 607 644 607 616 502 c 0,32,33
 601 441 601 441 584 381 c 0,34,35
 566 321 566 321 562 257 c 1,36,37
 594 283 594 283 637 332 c 0,38,39
 681 381 681 381 731 441 c 0,40,41
 781 502 781 502 832 569 c 0,42,43
 883 637 883 637 927 702 c 0,44,45
 972 767 972 767 1008 823 c 0,46,47
 1043 879 1043 879 1060 916 c 1,48,49
 1100 916 1100 916 1140 914 c 0,50,51
 1179 913 1179 913 1219 909 c 1,52,53
 1199 861 1199 861 1167 816 c 0,54,55
 1135 774 1135 774 1106 729 c 0,56,57
 1050 644 1050 644 991 560 c 0,58,59
 932 478 932 478 864 399 c 0,60,61
 841 372 841 372 818 346 c 0,62,63
 793 321 793 321 770 294 c 0,64,65
 744 266 744 266 702 220 c 0,66,67
 659 173 659 173 611 126 c 0,68,69
 563 81 563 81 516 46 c 0,70,71
 468 10 468 10 433 3 c 1,72,73
 419 22 419 22 412 46 c 0,74,75
 406 69 406 69 406 94 c 0,76,77
 407 157 407 157 422 221 c 0,78,79
 438 285 438 285 445 348 c 1,80,81
 412 321 412 321 390 286 c 0,82,83
 367 252 367 252 338 221 c 0,84,85
 328 209 328 209 307 188 c 0,86,87
 285 168 285 168 257 144 c 0,88,89
 230 121 230 121 200 96 c 0,90,91
 169 72 169 72 140 52 c 0,92,93
 112 34 112 34 88 21 c 256,94,95
 64 8 64 8 49 8 c 0,96,97
 47 8 47 8 44 9 c 0,98,99
 42 9 42 9 39 9 c 0,100,101
 23 21 23 21 18 39 c 256,102,103
 13 57 13 57 13 75 c 0,104,105
 13 150 13 150 30 248 c 0,106,107
 47 347 47 347 70 451 c 0,108,109
 96 556 96 556 125 654 c 0,110,111
 155 753 155 753 179 823 c 0,112,113
 187 842 187 842 192 864 c 0,114,115
 198 887 198 887 213 902 c 1,0,1
EndSplineSet
EndChar

StartChar: X
Encoding: 88 88 51
Width: 614
Flags: W
LayerCount: 2
Fore
SplineSet
380 926 m 1,0,1
 417 926 417 926 454 923 c 256,2,3
 491 920 491 920 529 920 c 1,4,5
 559 861 559 861 588 800 c 0,6,7
 616 740 616 740 645 679 c 1,8,9
 675 690 675 690 702 711 c 0,10,11
 728 731 728 731 757 748 c 0,12,13
 800 776 800 776 846 802 c 0,14,15
 892 829 892 829 940 850 c 0,16,17
 988 874 988 874 1037 889 c 0,18,19
 1088 905 1088 905 1141 911 c 1,20,21
 1140 898 1140 898 1136 883 c 0,22,23
 1134 867 1134 867 1130 849 c 0,24,25
 1127 832 1127 832 1123 816 c 0,26,27
 1118 801 1118 801 1113 789 c 0,28,29
 1102 771 1102 771 1093 767 c 0,30,31
 1084 764 1084 764 1065 758 c 0,32,33
 965 724 965 724 879 668 c 256,34,35
 793 612 793 612 708 551 c 1,36,37
 724 488 724 488 746 421 c 0,38,39
 770 354 770 354 790 286 c 0,40,41
 812 218 812 218 829 151 c 256,42,43
 846 84 846 84 854 18 c 1,44,45
 807 18 807 18 711 18 c 1,46,47
 697 131 697 131 663 239 c 0,48,49
 630 347 630 347 595 455 c 1,50,51
 559 428 559 428 508 380 c 0,52,53
 456 332 456 332 403 277 c 0,54,55
 351 224 351 224 304 170 c 0,56,57
 259 116 259 116 231 78 c 0,58,59
 217 58 217 58 202 38 c 0,60,61
 185 17 185 17 157 10 c 0,62,63
 122 4 122 4 86 3 c 0,64,65
 48 0 48 0 13 0 c 1,66,67
 25 35 25 35 60 84 c 256,68,69
 95 133 95 133 143 188 c 0,70,71
 190 246 190 246 246 304 c 0,72,73
 300 364 300 364 354 417 c 0,74,75
 408 469 408 469 455 514 c 0,76,77
 502 558 502 558 533 585 c 1,78,79
 512 641 512 641 488 696 c 0,80,81
 463 751 463 751 437 802 c 0,82,83
 422 833 422 833 406 862 c 0,84,85
 389 890 389 890 380 926 c 1,0,1
EndSplineSet
EndChar

StartChar: Y
Encoding: 89 89 52
Width: 614
Flags: W
LayerCount: 2
Fore
SplineSet
172 927 m 1,0,1
 208 924 208 924 248 923 c 0,2,3
 290 923 290 923 325 911 c 0,4,5
 359 902 359 902 382 878 c 0,6,7
 404 852 404 852 404 800 c 0,8,9
 404 784 404 784 394 751 c 256,10,11
 384 718 384 718 367 675 c 256,12,13
 350 632 350 632 329 585 c 0,14,15
 309 537 309 537 289 493 c 0,16,17
 269 448 269 448 252 412 c 0,18,19
 235 377 235 377 228 356 c 0,20,21
 221 342 221 342 209 317 c 0,22,23
 198 291 198 291 185 264 c 0,24,25
 173 237 173 237 164 212 c 0,26,27
 156 187 156 187 156 174 c 0,28,29
 156 162 156 162 162 152 c 0,30,31
 170 142 170 142 183 142 c 0,32,33
 188 142 188 142 195 144 c 0,34,35
 222 138 222 138 257 157 c 0,36,37
 292 177 292 177 330 211 c 0,38,39
 369 243 369 243 406 286 c 0,40,41
 442 329 442 329 473 372 c 256,42,43
 504 415 504 415 528 454 c 0,44,45
 550 491 550 491 559 515 c 0,46,47
 589 593 589 593 624 664 c 0,48,49
 659 737 659 737 692 814 c 0,50,51
 708 846 708 846 727 855 c 0,52,53
 745 864 745 864 779 871 c 0,54,55
 820 881 820 881 858 896 c 0,56,57
 896 909 896 909 939 913 c 1,58,59
 918 862 918 862 884 801 c 256,60,61
 850 740 850 740 814 679 c 0,62,63
 776 618 776 618 738 559 c 0,64,65
 701 500 701 500 670 451 c 0,66,67
 654 425 654 425 642 396 c 0,68,69
 629 368 629 368 619 337 c 0,70,71
 610 307 610 307 601 276 c 0,72,73
 592 244 592 244 578 217 c 0,74,75
 556 165 556 165 533 116 c 0,76,77
 510 65 510 65 488 14 c 0,78,79
 437 -98 437 -98 374 -190 c 0,80,81
 312 -283 312 -283 240 -384 c 1,82,83
 203 -384 203 -384 164 -380 c 0,84,85
 125 -377 125 -377 87 -372 c 1,86,87
 113 -332 113 -332 146 -295 c 0,88,89
 177 -259 177 -259 204 -218 c 0,90,91
 268 -125 268 -125 325 -34 c 0,92,93
 382 58 382 58 425 165 c 1,94,95
 393 138 393 138 363 112 c 0,96,97
 333 84 333 84 299 61 c 0,98,99
 268 40 268 40 230 26 c 256,100,101
 192 12 192 12 148 12 c 0,102,103
 86 13 86 13 49 55 c 0,104,105
 14 95 14 95 14 152 c 0,106,107
 14 155 14 155 14 157 c 0,108,109
 14 198 14 198 36 260 c 0,110,111
 58 324 58 324 88 391 c 0,112,113
 117 459 117 459 148 523 c 0,114,115
 178 586 178 586 198 628 c 0,116,117
 212 666 212 666 230 702 c 0,118,119
 247 738 247 738 256 777 c 1,120,121
 221 789 221 789 185 792 c 0,122,123
 148 793 148 793 112 793 c 1,124,125
 121 829 121 829 138 862 c 0,126,127
 156 893 156 893 172 927 c 1,0,1
EndSplineSet
EndChar

StartChar: Z
Encoding: 90 90 53
Width: 614
Flags: W
LayerCount: 2
Fore
SplineSet
887 948 m 0,0,1
 920 948 920 948 953 942 c 0,2,3
 985 937 985 937 1009 922 c 0,4,5
 1035 906 1035 906 1049 881 c 0,6,7
 1063 855 1063 855 1063 816 c 0,8,9
 1063 775 1063 775 1043 720 c 0,10,11
 1020 667 1020 667 985 608 c 0,12,13
 950 551 950 551 906 493 c 0,14,15
 863 434 863 434 816 381 c 0,16,17
 771 329 771 329 728 287 c 0,18,19
 685 244 685 244 654 220 c 0,20,21
 637 208 637 208 623 195 c 0,22,23
 607 182 607 182 595 166 c 1,24,25
 594 153 594 153 594 129 c 1,26,27
 646 136 646 136 698 147 c 0,28,29
 750 156 750 156 802 155 c 0,30,31
 815 155 815 155 826 138 c 256,32,33
 837 121 837 121 846 100 c 0,34,35
 857 78 857 78 864 57 c 0,36,37
 872 36 872 36 876 26 c 1,38,39
 812 26 812 26 748 25 c 0,40,41
 684 22 684 22 620 6 c 1,42,43
 621 -8 621 -8 623 -22 c 0,44,45
 623 -36 623 -36 623 -51 c 0,46,47
 623 -95 623 -95 615 -135 c 0,48,49
 606 -176 606 -176 576 -212 c 0,50,51
 543 -255 543 -255 497 -286 c 0,52,53
 450 -318 450 -318 396 -339 c 0,54,55
 343 -361 343 -361 287 -372 c 0,56,57
 230 -382 230 -382 178 -382 c 0,58,59
 152 -382 152 -382 122 -377 c 0,60,61
 94 -372 94 -372 69 -358 c 0,62,63
 46 -346 46 -346 30 -325 c 0,64,65
 13 -303 13 -303 13 -270 c 0,66,67
 13 -214 13 -214 47 -168 c 0,68,69
 81 -120 81 -120 129 -79 c 0,70,71
 178 -42 178 -42 233 -10 c 0,72,73
 286 21 286 21 328 46 c 0,74,75
 361 64 361 64 396 73 c 0,76,77
 432 82 432 82 465 98 c 1,78,79
 463 120 463 120 458 142 c 0,80,81
 451 164 451 164 451 186 c 0,82,83
 451 207 451 207 458 217 c 0,84,85
 463 229 463 229 478 240 c 0,86,87
 584 330 584 330 682 426 c 0,88,89
 781 521 781 521 857 640 c 0,90,91
 876 668 876 668 897 698 c 0,92,93
 919 728 919 728 919 764 c 0,94,95
 919 798 919 798 901 810 c 0,96,97
 884 820 884 820 853 820 c 0,98,99
 819 820 819 820 783 812 c 0,100,101
 745 803 745 803 708 792 c 0,102,103
 671 780 671 780 636 764 c 0,104,105
 601 750 601 750 569 736 c 0,106,107
 474 694 474 694 393 630 c 0,108,109
 311 568 311 568 238 493 c 1,110,111
 239 524 239 524 231 556 c 0,112,113
 224 588 224 588 224 620 c 0,114,115
 224 642 224 642 229 658 c 1,116,117
 294 711 294 711 372 763 c 0,118,119
 450 816 450 816 536 857 c 0,120,121
 620 898 620 898 710 923 c 0,122,123
 798 948 798 948 887 948 c 0,0,1
151 -242 m 0,124,125
 151 -247 151 -247 155 -252 c 0,126,127
 159 -256 159 -256 161 -259 c 0,128,129
 177 -263 177 -263 195 -263 c 0,130,131
 222 -263 222 -263 266 -252 c 0,132,133
 312 -240 312 -240 355 -222 c 0,134,135
 400 -204 400 -204 437 -179 c 0,136,137
 474 -155 474 -155 488 -126 c 0,138,139
 497 -108 497 -108 497 -86 c 0,140,141
 497 -70 497 -70 494 -58 c 0,142,143
 493 -46 493 -46 493 -31 c 1,144,145
 432 -46 432 -46 373 -75 c 0,146,147
 315 -105 315 -105 259 -135 c 0,148,149
 228 -153 228 -153 196 -181 c 0,150,151
 165 -209 165 -209 151 -242 c 0,124,125
EndSplineSet
EndChar

StartChar: bracketleft
Encoding: 91 91 54
Width: 614
Flags: W
LayerCount: 2
Fore
SplineSet
602 998 m 0,0,1
 606 1000 606 1000 615 1000 c 0,2,3
 636 1000 636 1000 656 991 c 0,4,5
 677 983 677 983 698 976 c 1,6,7
 660 924 660 924 620 874 c 0,8,9
 580 823 580 823 543 770 c 0,10,11
 521 738 521 738 495 701 c 0,12,13
 469 663 469 663 445 621 c 0,14,15
 420 581 420 581 396 542 c 0,16,17
 373 503 373 503 356 471 c 0,18,19
 303 363 303 363 261 263 c 0,20,21
 218 164 218 164 188 64 c 0,22,23
 160 -36 160 -36 144 -143 c 0,24,25
 127 -248 127 -248 127 -373 c 0,26,27
 127 -381 127 -381 125 -389 c 0,28,29
 122 -396 122 -396 116 -402 c 1,30,31
 90 -398 90 -398 64 -393 c 0,32,33
 39 -387 39 -387 14 -376 c 1,34,35
 13 -365 13 -365 13 -355 c 0,36,37
 13 -346 13 -346 13 -337 c 0,38,39
 13 -190 13 -190 47 -44 c 0,40,41
 81 103 81 103 138 243 c 0,42,43
 196 385 196 385 270 517 c 0,44,45
 344 651 344 651 426 770 c 0,46,47
 467 829 467 829 508 888 c 0,48,49
 550 946 550 946 602 998 c 0,0,1
EndSplineSet
EndChar

StartChar: backslash
Encoding: 92 92 55
Width: 614
Flags: W
LayerCount: 2
Fore
SplineSet
113 926 m 0,0,1
 118 926 118 926 125 924 c 0,2,3
 130 924 130 924 136 923 c 1,4,5
 166 820 166 820 212 712 c 0,6,7
 257 606 257 606 292 502 c 0,8,9
 335 380 335 380 384 256 c 0,10,11
 432 133 432 133 482 8 c 1,12,13
 464 8 464 8 429 8 c 0,14,15
 408 8 408 8 343 8 c 1,16,17
 318 51 318 51 307 87 c 0,18,19
 294 124 294 124 280 162 c 0,20,21
 234 287 234 287 187 412 c 256,22,23
 140 537 140 537 94 662 c 0,24,25
 74 712 74 712 53 764 c 256,26,27
 32 816 32 816 17 864 c 0,28,29
 13 876 13 876 13 881 c 0,30,31
 13 888 13 888 16 890 c 0,32,33
 20 894 20 894 26 896 c 0,34,35
 34 897 34 897 43 901 c 0,36,37
 58 907 58 907 74 916 c 0,38,39
 91 926 91 926 113 926 c 0,0,1
EndSplineSet
EndChar

StartChar: bracketright
Encoding: 93 93 56
Width: 614
Flags: W
LayerCount: 2
Fore
SplineSet
-108 -400 m 0,0,1
 -112 -402 -112 -402 -121 -402 c 0,2,3
 -143 -402 -143 -402 -162 -394 c 0,4,5
 -183 -385 -183 -385 -204 -378 c 1,6,7
 -166 -326 -166 -326 -126 -276 c 0,8,9
 -87 -225 -87 -225 -49 -172 c 0,10,11
 -29 -142 -29 -142 -3 -103 c 0,12,13
 23 -65 23 -65 49 -23 c 0,14,15
 74 16 74 16 98 55 c 0,16,17
 121 95 121 95 136 126 c 0,18,19
 190 235 190 235 233 335 c 0,20,21
 276 434 276 434 304 534 c 0,22,23
 334 633 334 633 350 740 c 0,24,25
 367 846 367 846 367 970 c 0,26,27
 367 979 367 979 369 987 c 0,28,29
 372 994 372 994 378 1000 c 1,30,31
 404 996 404 996 430 991 c 0,32,33
 455 985 455 985 480 974 c 1,34,35
 481 962 481 962 481 953 c 256,36,37
 481 944 481 944 481 935 c 0,38,39
 481 788 481 788 447 642 c 0,40,41
 412 495 412 495 355 354 c 256,42,43
 298 213 298 213 224 79 c 0,44,45
 150 -53 150 -53 68 -172 c 0,46,47
 26 -231 26 -231 -14 -290 c 0,48,49
 -56 -348 -56 -348 -108 -400 c 0,0,1
EndSplineSet
EndChar

StartChar: asciicircum
Encoding: 94 94 57
Width: 614
Flags: W
LayerCount: 2
Fore
SplineSet
159 653 m 0,0,1
 160 654 160 654 164 656 c 0,2,3
 211 656 211 656 351 656 c 0,4,5
 352 655 352 655 354 653 c 0,6,7
 361 573 361 573 381 338 c 1,8,9
 364 338 364 338 316 337 c 1,10,11
 298 391 298 391 244 552 c 1,12,13
 198 498 198 498 53 337 c 1,14,15
 35 337 35 337 -17 338 c 1,16,17
 26 417 26 417 159 653 c 0,0,1
EndSplineSet
EndChar

StartChar: grave
Encoding: 96 96 58
Width: 614
Flags: W
LayerCount: 2
Fore
SplineSet
348 463 m 1,0,1
 335 463 335 463 292 462 c 1,2,3
 239 510 239 510 79 653 c 1,4,5
 117 651 117 651 228 650 c 1,6,7
 257 603 257 603 348 463 c 1,0,1
EndSplineSet
EndChar

StartChar: a
Encoding: 97 97 59
Width: 614
Flags: W
LayerCount: 2
Fore
SplineSet
504 438 m 1,0,1
 493 411 493 411 478 385 c 0,2,3
 464 358 464 358 451 332 c 1,4,5
 390 328 390 328 334 313 c 0,6,7
 278 299 278 299 228 264 c 0,8,9
 188 235 188 235 159 200 c 0,10,11
 127 164 127 164 120 114 c 1,12,13
 130 114 130 114 142 114 c 0,14,15
 153 113 153 113 165 113 c 0,16,17
 208 113 208 113 228 130 c 0,18,19
 246 148 246 148 256 172 c 0,20,21
 266 198 266 198 274 226 c 0,22,23
 282 256 282 256 302 280 c 1,24,25
 330 282 330 282 358 283 c 0,26,27
 386 285 386 285 413 289 c 1,28,29
 408 269 408 269 400 248 c 0,30,31
 391 229 391 229 384 209 c 0,32,33
 376 188 376 188 370 168 c 0,34,35
 365 147 365 147 365 125 c 0,36,37
 365 121 365 121 365 113 c 1,38,39
 391 109 391 109 419 108 c 0,40,41
 445 108 445 108 471 108 c 1,42,43
 463 81 463 81 452 57 c 0,44,45
 441 32 441 32 429 6 c 1,46,47
 422 6 422 6 412 6 c 0,48,49
 404 6 404 6 381 6 c 256,50,51
 358 6 358 6 329 10 c 0,52,53
 300 13 300 13 280 23 c 0,54,55
 273 29 273 29 269 31 c 0,56,57
 265 34 265 34 256 34 c 0,58,59
 242 34 242 34 230 27 c 0,60,61
 217 21 217 21 205 18 c 0,62,63
 186 13 186 13 165 12 c 0,64,65
 146 9 146 9 125 9 c 0,66,67
 112 9 112 9 96 10 c 0,68,69
 79 10 79 10 66 13 c 0,70,71
 51 17 51 17 40 30 c 0,72,73
 30 42 30 42 22 57 c 0,74,75
 17 73 17 73 16 90 c 0,76,77
 13 107 13 107 13 120 c 0,78,79
 13 150 13 150 29 182 c 0,80,81
 43 214 43 214 64 244 c 0,82,83
 87 277 87 277 112 303 c 0,84,85
 136 330 136 330 159 348 c 0,86,87
 191 377 191 377 234 395 c 0,88,89
 277 412 277 412 322 422 c 0,90,91
 369 432 369 432 415 434 c 0,92,93
 462 438 462 438 504 438 c 1,0,1
EndSplineSet
EndChar

StartChar: b
Encoding: 98 98 60
Width: 614
Flags: W
LayerCount: 2
Fore
SplineSet
417 868 m 1,0,1
 396 823 396 823 372 764 c 0,2,3
 346 706 346 706 321 649 c 0,4,5
 296 593 296 593 276 545 c 0,6,7
 256 498 256 498 244 474 c 0,8,9
 233 447 233 447 213 402 c 0,10,11
 192 356 192 356 173 307 c 0,12,13
 155 257 155 257 140 211 c 0,14,15
 126 165 126 165 126 140 c 0,16,17
 126 127 126 127 139 121 c 0,18,19
 152 114 152 114 162 114 c 0,20,21
 181 114 181 114 200 130 c 0,22,23
 220 146 220 146 235 166 c 0,24,25
 254 187 254 187 265 211 c 0,26,27
 277 234 277 234 282 251 c 1,28,29
 266 255 266 255 247 259 c 256,30,31
 228 263 228 263 224 282 c 1,32,33
 228 303 228 303 243 329 c 0,34,35
 260 355 260 355 282 378 c 0,36,37
 304 400 304 400 330 416 c 256,38,39
 356 432 356 432 380 432 c 0,40,41
 382 432 382 432 389 432 c 1,42,43
 393 412 393 412 399 396 c 0,44,45
 404 381 404 381 410 363 c 1,46,47
 426 358 426 358 442 355 c 0,48,49
 459 352 459 352 474 346 c 1,50,51
 463 307 463 307 451 290 c 0,52,53
 439 274 439 274 428 268 c 0,54,55
 415 261 415 261 404 257 c 0,56,57
 394 255 394 255 389 239 c 0,58,59
 373 198 373 198 347 155 c 0,60,61
 322 112 322 112 287 77 c 0,62,63
 255 44 255 44 212 22 c 256,64,65
 169 0 169 0 120 0 c 0,66,67
 56 0 56 0 35 35 c 0,68,69
 13 70 13 70 13 127 c 0,70,71
 13 177 13 177 27 218 c 0,72,73
 42 261 42 261 58 304 c 0,74,75
 107 430 107 430 156 551 c 256,76,77
 205 672 205 672 263 793 c 0,78,79
 272 812 272 812 281 826 c 0,80,81
 289 840 289 840 311 846 c 0,82,83
 337 854 337 854 364 859 c 0,84,85
 390 864 390 864 417 868 c 1,0,1
EndSplineSet
EndChar

StartChar: c
Encoding: 99 99 61
Width: 614
Flags: W
LayerCount: 2
Fore
SplineSet
356 448 m 0,0,1
 396 448 396 448 422 428 c 0,2,3
 447 407 447 407 447 365 c 0,4,5
 447 351 447 351 446 334 c 0,6,7
 443 316 443 316 437 298 c 0,8,9
 432 281 432 281 422 266 c 0,10,11
 412 254 412 254 399 248 c 0,12,13
 381 242 381 242 364 237 c 0,14,15
 346 231 346 231 326 231 c 0,16,17
 322 231 322 231 317 231 c 0,18,19
 313 231 313 231 309 233 c 1,20,21
 322 260 322 260 332 287 c 0,22,23
 341 315 341 315 341 344 c 1,24,25
 304 344 304 344 266 322 c 0,26,27
 229 300 229 300 198 266 c 0,28,29
 166 233 166 233 146 192 c 0,30,31
 124 153 124 153 121 117 c 1,32,33
 185 100 185 100 248 103 c 0,34,35
 313 105 313 105 377 105 c 1,36,37
 369 84 369 84 360 65 c 256,38,39
 351 46 351 46 339 25 c 0,40,41
 329 8 329 8 312 6 c 0,42,43
 294 4 294 4 276 4 c 0,44,45
 238 4 238 4 192 4 c 0,46,47
 190 4 190 4 187 4 c 0,48,49
 144 3 144 3 107 12 c 0,50,51
 66 21 66 21 40 47 c 0,52,53
 13 73 13 73 13 127 c 0,54,55
 13 138 13 138 14 144 c 0,56,57
 23 200 23 200 57 255 c 0,58,59
 90 311 90 311 135 352 c 0,60,61
 183 395 183 395 240 422 c 0,62,63
 296 448 296 448 356 448 c 0,0,1
EndSplineSet
EndChar

StartChar: d
Encoding: 100 100 62
Width: 614
Flags: W
LayerCount: 2
Fore
SplineSet
688 864 m 1,0,1
 680 818 680 818 662 777 c 256,2,3
 644 736 644 736 624 694 c 0,4,5
 588 610 588 610 547 530 c 0,6,7
 508 450 508 450 468 369 c 0,8,9
 460 354 460 354 454 326 c 0,10,11
 446 299 446 299 439 269 c 0,12,13
 433 239 433 239 429 212 c 0,14,15
 425 183 425 183 425 168 c 256,16,17
 425 153 425 153 426 140 c 0,18,19
 428 126 428 126 436 114 c 1,20,21
 459 109 459 109 484 108 c 0,22,23
 507 107 507 107 532 103 c 1,24,25
 523 77 523 77 512 53 c 0,26,27
 500 30 500 30 489 6 c 1,28,29
 467 6 467 6 425 6 c 0,30,31
 377 6 377 6 355 12 c 0,32,33
 334 17 334 17 326 31 c 0,34,35
 320 44 320 44 318 68 c 0,36,37
 317 91 317 91 308 125 c 1,38,39
 273 95 273 95 255 73 c 256,40,41
 237 51 237 51 217 35 c 0,42,43
 199 20 199 20 170 13 c 0,44,45
 143 5 143 5 91 5 c 0,46,47
 78 5 78 5 55 6 c 0,48,49
 31 6 31 6 20 9 c 0,50,51
 5 13 5 13 -5 25 c 0,52,53
 -16 36 -16 36 -22 51 c 0,54,55
 -31 65 -31 65 -35 81 c 0,56,57
 -39 98 -39 98 -39 110 c 0,58,59
 -39 133 -39 133 -32 159 c 0,60,61
 -26 183 -26 183 -17 208 c 256,62,63
 -8 233 -8 233 5 256 c 0,64,65
 17 280 17 280 32 296 c 0,66,67
 74 350 74 350 138 386 c 0,68,69
 203 422 203 422 266 439 c 0,70,71
 291 446 291 446 317 447 c 0,72,73
 343 447 343 447 368 455 c 1,74,75
 386 497 386 497 404 542 c 0,76,77
 424 589 424 589 442 633 c 0,78,79
 462 680 462 680 484 724 c 0,80,81
 504 767 504 767 529 806 c 0,82,83
 538 820 538 820 558 829 c 0,84,85
 577 840 577 840 601 846 c 0,86,87
 624 853 624 853 649 857 c 0,88,89
 672 862 672 862 688 864 c 1,0,1
82 136 m 0,90,91
 82 133 82 133 82 129 c 0,92,93
 82 124 82 124 84 120 c 0,94,95
 101 116 101 116 118 116 c 0,96,97
 176 116 176 116 217 157 c 0,98,99
 255 196 255 196 290 240 c 0,100,101
 325 285 325 285 335 338 c 1,102,103
 292 338 292 338 248 325 c 256,104,105
 204 312 204 312 166 286 c 0,106,107
 129 261 129 261 105 224 c 0,108,109
 82 186 82 186 82 136 c 0,90,91
EndSplineSet
EndChar

StartChar: e
Encoding: 101 101 63
Width: 614
Flags: W
LayerCount: 2
Fore
SplineSet
47 138 m 0,0,1
 47 199 47 199 72 254 c 0,2,3
 98 308 98 308 140 350 c 0,4,5
 182 393 182 393 238 419 c 0,6,7
 292 443 292 443 351 443 c 0,8,9
 373 443 373 443 394 438 c 0,10,11
 413 434 413 434 432 424 c 0,12,13
 448 413 448 413 459 396 c 0,14,15
 469 380 469 380 469 355 c 0,16,17
 469 308 469 308 442 268 c 0,18,19
 415 229 415 229 376 199 c 0,20,21
 335 168 335 168 289 146 c 0,22,23
 242 122 242 122 205 108 c 1,24,25
 255 104 255 104 303 103 c 0,26,27
 352 101 352 101 402 101 c 1,28,29
 398 82 398 82 395 66 c 0,30,31
 391 49 391 49 384 35 c 256,32,33
 377 21 377 21 364 13 c 0,34,35
 350 5 350 5 328 5 c 0,36,37
 312 5 312 5 286 5 c 0,38,39
 261 4 261 4 234 4 c 0,40,41
 208 4 208 4 183 4 c 0,42,43
 160 4 160 4 147 6 c 0,44,45
 95 13 95 13 70 52 c 0,46,47
 47 92 47 92 47 138 c 0,0,1
135 156 m 1,48,49
 168 172 168 172 202 191 c 0,50,51
 235 211 235 211 266 233 c 0,52,53
 298 257 298 257 321 286 c 256,54,55
 344 315 344 315 355 351 c 1,56,57
 318 351 318 351 285 332 c 0,58,59
 251 313 251 313 221 283 c 0,60,61
 192 256 192 256 172 221 c 0,62,63
 150 186 150 186 135 156 c 1,48,49
EndSplineSet
EndChar

StartChar: f
Encoding: 102 102 64
Width: 614
Flags: W
LayerCount: 2
Fore
SplineSet
514 878 m 1,0,1
 495 819 495 819 472 763 c 0,2,3
 448 707 448 707 424 651 c 0,4,5
 399 597 399 597 373 541 c 0,6,7
 347 486 347 486 326 430 c 1,8,9
 378 430 378 430 430 428 c 0,10,11
 482 425 482 425 534 425 c 1,12,13
 523 398 523 398 511 373 c 256,14,15
 499 348 499 348 486 324 c 1,16,17
 441 328 441 328 395 329 c 0,18,19
 350 330 350 330 304 334 c 1,20,21
 328 308 328 308 348 282 c 0,22,23
 370 256 370 256 386 228 c 0,24,25
 403 200 403 200 413 168 c 0,26,27
 424 135 424 135 424 100 c 0,28,29
 424 56 424 56 406 1 c 0,30,31
 389 -53 389 -53 359 -110 c 0,32,33
 330 -168 330 -168 291 -222 c 0,34,35
 252 -277 252 -277 207 -320 c 0,36,37
 161 -363 161 -363 113 -387 c 0,38,39
 64 -413 64 -413 17 -413 c 0,40,41
 -8 -413 -8 -413 -25 -404 c 0,42,43
 -43 -394 -43 -394 -53 -378 c 0,44,45
 -65 -363 -65 -363 -70 -342 c 0,46,47
 -74 -321 -74 -321 -74 -298 c 0,48,49
 -74 -213 -74 -213 -48 -133 c 0,50,51
 -21 -53 -21 -53 13 22 c 0,52,53
 49 99 49 99 86 173 c 0,54,55
 121 247 121 247 140 325 c 1,56,57
 117 337 117 337 92 346 c 0,58,59
 68 354 68 354 44 363 c 1,60,61
 55 385 55 385 70 402 c 0,62,63
 86 420 86 420 103 437 c 1,64,65
 125 443 125 443 148 441 c 0,66,67
 172 438 172 438 195 434 c 1,68,69
 216 486 216 486 240 536 c 0,70,71
 266 585 266 585 290 633 c 0,72,73
 315 682 315 682 337 732 c 0,74,75
 359 781 359 781 377 833 c 0,76,77
 381 849 381 849 396 855 c 0,78,79
 424 867 424 867 455 868 c 0,80,81
 486 870 486 870 514 878 c 1,0,1
40 -292 m 0,82,83
 40 -296 40 -296 40 -300 c 0,84,85
 42 -304 42 -304 42 -309 c 1,86,87
 87 -292 87 -292 135 -243 c 0,88,89
 183 -192 183 -192 224 -130 c 0,90,91
 264 -69 264 -69 290 -4 c 256,92,93
 316 61 316 61 316 108 c 0,94,95
 316 151 316 151 295 187 c 0,96,97
 274 224 274 224 246 255 c 1,98,99
 222 200 222 200 187 125 c 0,100,101
 153 51 153 51 120 -25 c 0,102,103
 87 -103 87 -103 64 -174 c 0,104,105
 40 -244 40 -244 40 -292 c 0,82,83
EndSplineSet
EndChar

StartChar: g
Encoding: 103 103 65
Width: 614
Flags: W
LayerCount: 2
Fore
SplineSet
477 447 m 0,0,1
 516 447 516 447 550 438 c 1,2,3
 534 413 534 413 517 390 c 0,4,5
 502 367 502 367 486 343 c 1,6,7
 474 335 474 335 458 337 c 0,8,9
 442 337 442 337 419 333 c 1,10,11
 343 333 343 333 274 296 c 0,12,13
 205 260 205 260 166 195 c 0,14,15
 159 179 159 179 151 164 c 0,16,17
 144 148 144 148 144 131 c 0,18,19
 144 118 144 118 150 109 c 0,20,21
 164 99 164 99 182 99 c 0,22,23
 212 99 212 99 237 116 c 0,24,25
 263 133 263 133 283 159 c 0,26,27
 304 183 304 183 321 212 c 0,28,29
 337 240 337 240 347 264 c 0,30,31
 354 278 354 278 372 287 c 0,32,33
 389 295 389 295 408 299 c 0,34,35
 429 304 429 304 450 307 c 0,36,37
 469 308 469 308 485 308 c 0,38,39
 491 308 491 308 495 307 c 0,40,41
 500 307 500 307 507 304 c 1,42,43
 498 278 498 278 484 254 c 0,44,45
 469 229 469 229 455 204 c 0,46,47
 442 179 442 179 428 155 c 0,48,49
 413 130 413 130 404 104 c 0,50,51
 387 56 387 56 365 -3 c 0,52,53
 342 -61 342 -61 313 -121 c 0,54,55
 285 -181 285 -181 248 -238 c 0,56,57
 213 -295 213 -295 169 -339 c 0,58,59
 125 -385 125 -385 73 -411 c 0,60,61
 20 -438 20 -438 -43 -438 c 0,62,63
 -47 -438 -47 -438 -55 -438 c 1,64,65
 -52 -419 -52 -419 -48 -387 c 0,66,67
 -44 -358 -44 -358 -34 -342 c 0,68,69
 -22 -326 -22 -326 -4 -320 c 0,70,71
 14 -313 14 -313 31 -304 c 0,72,73
 60 -289 60 -289 87 -265 c 0,74,75
 113 -242 113 -242 135 -214 c 0,76,77
 159 -186 159 -186 177 -155 c 256,78,79
 195 -124 195 -124 208 -94 c 0,80,81
 220 -62 220 -62 234 -32 c 0,82,83
 247 -3 247 -3 256 30 c 1,84,85
 226 14 226 14 196 5 c 0,86,87
 165 -4 165 -4 133 -4 c 0,88,89
 79 -4 79 -4 52 27 c 256,90,91
 25 58 25 58 25 110 c 0,92,93
 25 164 25 164 48 207 c 0,94,95
 70 251 70 251 103 290 c 0,96,97
 174 380 174 380 269 413 c 0,98,99
 365 447 365 447 477 447 c 0,0,1
EndSplineSet
EndChar

StartChar: h
Encoding: 104 104 66
Width: 614
Flags: W
LayerCount: 2
Fore
SplineSet
296 841 m 1,0,1
 325 857 325 857 356 858 c 0,2,3
 389 858 389 858 420 863 c 1,4,5
 391 783 391 783 355 706 c 0,6,7
 320 628 320 628 285 550 c 0,8,9
 257 485 257 485 225 422 c 0,10,11
 192 361 192 361 168 294 c 1,12,13
 192 316 192 316 218 339 c 0,14,15
 243 363 243 363 272 381 c 0,16,17
 299 400 299 400 330 413 c 0,18,19
 363 426 363 426 398 426 c 0,20,21
 426 426 426 426 439 400 c 256,22,23
 452 374 452 374 452 348 c 0,24,25
 452 333 452 333 441 300 c 0,26,27
 429 269 429 269 412 231 c 0,28,29
 396 195 396 195 381 160 c 0,30,31
 365 126 365 126 358 107 c 1,32,33
 391 107 391 107 459 107 c 1,34,35
 447 81 447 81 437 56 c 0,36,37
 428 31 428 31 417 5 c 1,38,39
 363 5 363 5 326 3 c 0,40,41
 291 0 291 0 261 0 c 0,42,43
 243 0 243 0 231 17 c 0,44,45
 218 34 218 34 218 49 c 0,46,47
 218 69 218 69 231 101 c 0,48,49
 243 133 243 133 260 169 c 256,50,51
 277 205 277 205 294 239 c 0,52,53
 311 274 311 274 317 298 c 1,54,55
 286 291 286 291 252 266 c 0,56,57
 218 242 218 242 186 211 c 0,58,59
 155 178 155 178 126 144 c 0,60,61
 99 110 99 110 81 87 c 0,62,63
 69 70 69 70 60 52 c 256,64,65
 51 34 51 34 39 17 c 1,66,67
 12 9 12 9 -17 8 c 0,68,69
 -46 5 -46 5 -73 1 c 1,70,71
 8 170 8 170 77 342 c 0,72,73
 147 514 147 514 228 682 c 0,74,75
 246 722 246 722 260 763 c 0,76,77
 273 806 273 806 296 841 c 1,0,1
EndSplineSet
EndChar

StartChar: i
Encoding: 105 105 67
Width: 614
Flags: W
LayerCount: 2
Fore
SplineSet
289 707 m 1,0,1
 325 705 325 705 350 676 c 0,2,3
 374 647 374 647 374 612 c 0,4,5
 374 572 374 572 347 546 c 0,6,7
 320 519 320 519 280 519 c 256,8,9
 240 519 240 519 213 541 c 256,10,11
 186 563 186 563 186 604 c 0,12,13
 186 628 186 628 200 656 c 0,14,15
 213 685 213 685 235 697 c 0,16,17
 247 702 247 702 261 702 c 0,18,19
 276 703 276 703 289 707 c 1,0,1
150 415 m 1,20,21
 178 420 178 420 208 420 c 0,22,23
 237 421 237 421 266 425 c 1,24,25
 235 346 235 346 198 266 c 0,26,27
 160 187 160 187 134 107 c 1,28,29
 155 103 155 103 179 104 c 0,30,31
 205 105 205 105 226 105 c 1,32,33
 218 82 218 82 205 52 c 0,34,35
 191 21 191 21 179 0 c 1,36,37
 173 -1 173 -1 168 -1 c 0,38,39
 161 -1 161 -1 155 1 c 0,40,41
 144 4 144 4 129 4 c 0,42,43
 108 4 108 4 87 5 c 0,44,45
 66 5 66 5 49 10 c 0,46,47
 34 17 34 17 23 31 c 0,48,49
 13 44 13 44 13 70 c 0,50,51
 13 110 13 110 31 150 c 0,52,53
 48 188 48 188 64 224 c 0,54,55
 87 272 87 272 107 320 c 0,56,57
 126 369 126 369 150 415 c 1,20,21
EndSplineSet
EndChar

StartChar: j
Encoding: 106 106 68
Width: 614
Flags: W
LayerCount: 2
Fore
SplineSet
422 728 m 0,0,1
 460 728 460 728 485 703 c 0,2,3
 510 679 510 679 510 642 c 0,4,5
 510 625 510 625 503 608 c 0,6,7
 497 592 497 592 485 576 c 0,8,9
 474 563 474 563 459 554 c 0,10,11
 443 545 443 545 426 545 c 0,12,13
 387 545 387 545 359 572 c 0,14,15
 330 599 330 599 330 637 c 0,16,17
 330 679 330 679 356 703 c 0,18,19
 382 728 382 728 422 728 c 0,0,1
410 450 m 1,20,21
 406 432 406 432 399 415 c 0,22,23
 391 398 391 398 384 381 c 0,24,25
 333 278 333 278 285 176 c 0,26,27
 235 72 235 72 190 -34 c 0,28,29
 165 -92 165 -92 142 -143 c 0,30,31
 118 -192 118 -192 88 -235 c 256,32,33
 58 -278 58 -278 18 -315 c 0,34,35
 -22 -351 -22 -351 -82 -384 c 0,36,37
 -105 -395 -105 -395 -129 -400 c 0,38,39
 -153 -404 -153 -404 -178 -404 c 1,40,41
 -161 -343 -161 -343 -130 -292 c 0,42,43
 -121 -278 -121 -278 -108 -268 c 0,44,45
 -96 -259 -96 -259 -81 -251 c 0,46,47
 -68 -242 -68 -242 -55 -234 c 256,48,49
 -42 -226 -42 -226 -30 -214 c 0,50,51
 -9 -195 -9 -195 18 -146 c 0,52,53
 46 -96 46 -96 72 -39 c 0,54,55
 100 17 100 17 122 70 c 0,56,57
 144 124 144 124 153 153 c 1,58,59
 122 140 122 140 94 124 c 0,60,61
 64 108 64 108 31 100 c 1,62,63
 39 126 39 126 49 156 c 0,64,65
 60 186 60 186 74 212 c 0,66,67
 87 233 87 233 105 244 c 0,68,69
 125 257 125 257 144 270 c 0,70,71
 186 298 186 298 218 334 c 0,72,73
 251 369 251 369 287 403 c 0,74,75
 296 412 296 412 313 420 c 0,76,77
 329 426 329 426 346 432 c 0,78,79
 364 437 364 437 380 441 c 256,80,81
 396 445 396 445 410 450 c 1,20,21
EndSplineSet
EndChar

StartChar: k
Encoding: 107 107 69
Width: 614
Flags: W
LayerCount: 2
Fore
SplineSet
334 833 m 1,0,1
 361 854 361 854 395 857 c 0,2,3
 429 861 429 861 462 864 c 1,4,5
 450 816 450 816 428 770 c 256,6,7
 406 724 406 724 387 677 c 0,8,9
 351 581 351 581 307 491 c 0,10,11
 263 402 263 402 226 307 c 1,12,13
 270 334 270 334 311 368 c 0,14,15
 351 400 351 400 396 428 c 0,16,17
 399 428 399 428 404 429 c 0,18,19
 412 429 412 429 426 422 c 0,20,21
 439 417 439 417 452 407 c 0,22,23
 467 399 467 399 477 390 c 0,24,25
 488 381 488 381 488 374 c 0,26,27
 488 365 488 365 477 358 c 0,28,29
 467 351 467 351 460 347 c 0,30,31
 417 321 417 321 376 290 c 256,32,33
 335 259 335 259 295 226 c 1,34,35
 295 217 295 217 295 208 c 0,36,37
 294 200 294 200 294 190 c 0,38,39
 294 168 294 168 299 147 c 0,40,41
 304 125 304 125 321 109 c 1,42,43
 348 100 348 100 378 101 c 0,44,45
 408 103 408 103 438 103 c 1,46,47
 443 96 443 96 446 87 c 1,48,49
 438 64 438 64 426 44 c 0,50,51
 415 23 415 23 406 1 c 1,52,53
 387 4 387 4 368 3 c 0,54,55
 348 1 348 1 330 1 c 0,56,57
 308 1 308 1 281 6 c 0,58,59
 254 10 254 10 235 30 c 0,60,61
 222 43 222 43 213 64 c 0,62,63
 204 84 204 84 198 107 c 0,64,65
 191 130 191 130 188 153 c 256,66,67
 185 176 185 176 183 195 c 1,68,69
 155 155 155 155 131 103 c 0,70,71
 109 52 109 52 90 6 c 1,72,73
 49 6 49 6 -30 6 c 1,74,75
 -21 34 -21 34 -13 55 c 0,76,77
 -5 77 -5 77 6 104 c 0,78,79
 34 164 34 164 61 221 c 256,80,81
 88 278 88 278 114 338 c 0,82,83
 170 463 170 463 225 586 c 0,84,85
 278 710 278 710 334 833 c 1,0,1
EndSplineSet
EndChar

StartChar: l
Encoding: 108 108 70
Width: 614
Flags: W
LayerCount: 2
Fore
SplineSet
451 864 m 1,0,1
 380 673 380 673 298 486 c 256,2,3
 216 299 216 299 133 113 c 1,4,5
 164 109 164 109 195 107 c 0,6,7
 225 104 225 104 256 108 c 1,8,9
 248 84 248 84 237 57 c 0,10,11
 225 31 225 31 208 12 c 0,12,13
 198 0 198 0 185 3 c 0,14,15
 173 5 173 5 160 1 c 1,16,17
 143 3 143 3 124 3 c 256,18,19
 105 3 105 3 87 4 c 0,20,21
 69 6 69 6 52 13 c 0,22,23
 35 18 35 18 21 34 c 1,24,25
 13 53 13 53 13 74 c 0,26,27
 13 101 13 101 22 129 c 0,28,29
 32 157 32 157 43 182 c 0,30,31
 105 343 105 343 177 515 c 0,32,33
 247 685 247 685 318 842 c 0,34,35
 326 861 326 861 342 864 c 0,36,37
 354 867 354 867 367 867 c 0,38,39
 372 867 372 867 377 867 c 0,40,41
 396 866 396 866 416 863 c 0,42,43
 436 861 436 861 451 864 c 1,0,1
EndSplineSet
EndChar

StartChar: m
Encoding: 109 109 71
Width: 614
Flags: W
LayerCount: 2
Fore
SplineSet
143 415 m 1,0,1
 177 424 177 424 212 430 c 0,2,3
 246 438 246 438 281 442 c 1,4,5
 266 411 266 411 251 382 c 0,6,7
 235 352 235 352 228 320 c 1,8,9
 247 335 247 335 274 355 c 0,10,11
 300 376 300 376 329 393 c 256,12,13
 358 410 358 410 387 422 c 0,14,15
 417 434 417 434 443 434 c 0,16,17
 474 434 474 434 486 417 c 0,18,19
 499 399 499 399 499 370 c 0,20,21
 499 356 499 356 495 344 c 0,22,23
 493 332 493 332 489 318 c 1,24,25
 511 335 511 335 536 354 c 0,26,27
 559 373 559 373 585 389 c 0,28,29
 611 404 611 404 638 415 c 0,30,31
 666 425 666 425 697 425 c 0,32,33
 725 425 725 425 738 399 c 256,34,35
 751 373 751 373 751 348 c 0,36,37
 751 325 751 325 738 294 c 0,38,39
 727 263 727 263 711 229 c 0,40,41
 696 196 696 196 680 162 c 0,42,43
 664 130 664 130 656 105 c 1,44,45
 685 105 685 105 744 105 c 1,46,47
 736 81 736 81 727 53 c 0,48,49
 716 26 716 26 706 4 c 1,50,51
 658 4 658 4 562 4 c 0,52,53
 546 4 546 4 529 22 c 256,54,55
 512 40 512 40 512 56 c 0,56,57
 512 68 512 68 526 100 c 0,58,59
 541 131 541 131 558 170 c 256,60,61
 575 209 575 209 592 247 c 0,62,63
 607 286 607 286 611 313 c 1,64,65
 564 289 564 289 525 255 c 0,66,67
 488 220 488 220 454 178 c 0,68,69
 421 136 421 136 393 94 c 0,70,71
 364 49 364 49 338 5 c 1,72,73
 299 5 299 5 221 5 c 1,74,75
 257 81 257 81 292 156 c 0,76,77
 329 231 329 231 350 313 c 1,78,79
 272 274 272 274 212 204 c 256,80,81
 152 134 152 134 109 58 c 0,82,83
 104 49 104 49 95 30 c 0,84,85
 87 10 87 10 75 6 c 0,86,87
 69 4 69 4 55 4 c 0,88,89
 40 3 40 3 23 3 c 0,90,91
 8 4 8 4 -6 5 c 0,92,93
 -21 5 -21 5 -30 5 c 1,94,95
 -25 23 -25 23 -14 56 c 0,96,97
 -3 88 -3 88 13 127 c 0,98,99
 30 168 30 168 48 211 c 256,100,101
 66 254 66 254 84 292 c 0,102,103
 103 333 103 333 118 365 c 0,104,105
 133 396 133 396 143 415 c 1,0,1
EndSplineSet
EndChar

StartChar: n
Encoding: 110 110 72
Width: 614
Flags: W
LayerCount: 2
Fore
SplineSet
148 419 m 1,0,1
 179 422 179 422 276 434 c 1,2,3
 264 398 264 398 244 365 c 0,4,5
 225 333 225 333 217 295 c 1,6,7
 234 311 234 311 261 333 c 0,8,9
 287 355 287 355 317 376 c 0,10,11
 347 396 347 396 377 412 c 0,12,13
 406 428 406 428 430 428 c 0,14,15
 456 428 456 428 476 407 c 0,16,17
 494 387 494 387 494 361 c 0,18,19
 494 333 494 333 482 299 c 0,20,21
 469 266 469 266 454 233 c 0,22,23
 438 200 438 200 421 166 c 0,24,25
 404 133 404 133 395 105 c 1,26,27
 426 105 426 105 488 105 c 1,28,29
 484 79 484 79 473 52 c 0,30,31
 463 23 463 23 450 1 c 1,32,33
 434 3 434 3 402 1 c 0,34,35
 391 1 391 1 381 1 c 0,36,37
 359 1 359 1 338 3 c 0,38,39
 307 5 307 5 282 17 c 0,40,41
 259 29 259 29 259 55 c 0,42,43
 259 72 259 72 270 104 c 0,44,45
 283 136 283 136 300 173 c 0,46,47
 318 211 318 211 334 246 c 0,48,49
 348 281 348 281 355 304 c 1,50,51
 326 300 326 300 290 270 c 0,52,53
 255 240 255 240 220 202 c 0,54,55
 186 162 186 162 157 122 c 0,56,57
 129 81 129 81 114 56 c 0,58,59
 112 52 112 52 109 44 c 0,60,61
 108 36 108 36 105 29 c 0,62,63
 104 20 104 20 100 14 c 0,64,65
 98 8 98 8 92 6 c 0,66,67
 81 3 81 3 65 3 c 0,68,69
 48 1 48 1 30 1 c 256,70,71
 12 1 12 1 -5 3 c 0,72,73
 -22 3 -22 3 -35 3 c 1,74,75
 -4 86 -4 86 35 162 c 0,76,77
 74 239 74 239 105 322 c 0,78,79
 114 347 114 347 125 370 c 0,80,81
 135 394 135 394 148 419 c 1,0,1
EndSplineSet
EndChar

StartChar: o
Encoding: 111 111 73
Width: 614
Flags: W
LayerCount: 2
Fore
SplineSet
265 443 m 0,0,1
 324 443 324 443 358 417 c 0,2,3
 391 390 391 390 410 335 c 1,4,5
 428 332 428 332 445 330 c 0,6,7
 462 330 462 330 480 330 c 1,8,9
 476 308 476 308 471 287 c 0,10,11
 465 266 465 266 458 244 c 1,12,13
 445 235 445 235 428 230 c 0,14,15
 411 224 411 224 404 208 c 0,16,17
 386 168 386 168 369 129 c 256,18,19
 352 90 352 90 318 58 c 0,20,21
 291 36 291 36 254 18 c 0,22,23
 214 0 214 0 179 0 c 0,24,25
 104 0 104 0 58 36 c 0,26,27
 13 73 13 73 13 153 c 0,28,29
 13 203 13 203 32 255 c 0,30,31
 52 307 52 307 86 347 c 0,32,33
 120 390 120 390 165 417 c 0,34,35
 212 443 212 443 265 443 c 0,0,1
178 104 m 0,36,37
 204 104 204 104 222 116 c 0,38,39
 240 126 240 126 256 144 c 256,40,41
 272 162 272 162 283 183 c 256,42,43
 294 204 294 204 303 224 c 1,44,45
 281 235 281 235 269 246 c 256,46,47
 257 257 257 257 252 270 c 0,48,49
 246 283 246 283 246 300 c 0,50,51
 244 318 244 318 244 341 c 1,52,53
 191 325 191 325 156 278 c 256,54,55
 121 231 121 231 121 176 c 0,56,57
 121 146 121 146 133 125 c 0,58,59
 144 104 144 104 178 104 c 0,36,37
EndSplineSet
EndChar

StartChar: p
Encoding: 112 112 74
Width: 614
Flags: W
LayerCount: 2
Fore
SplineSet
455 451 m 0,0,1
 510 451 510 451 545 415 c 0,2,3
 580 380 580 380 580 326 c 0,4,5
 580 294 580 294 568 263 c 0,6,7
 556 231 556 231 537 203 c 0,8,9
 517 174 517 174 494 150 c 0,10,11
 471 125 471 125 448 105 c 1,12,13
 474 104 474 104 504 108 c 0,14,15
 536 113 536 113 560 109 c 1,16,17
 550 82 550 82 538 57 c 0,18,19
 528 31 528 31 511 6 c 1,20,21
 424 4 424 4 337 1 c 0,22,23
 248 -1 248 -1 161 -1 c 1,24,25
 168 14 168 14 174 31 c 0,26,27
 181 47 181 47 188 60 c 0,28,29
 198 74 198 74 209 86 c 0,30,31
 222 96 222 96 240 100 c 0,32,33
 283 109 283 109 324 131 c 0,34,35
 365 155 365 155 396 186 c 0,36,37
 429 218 429 218 448 259 c 0,38,39
 468 298 468 298 471 344 c 1,40,41
 468 344 468 344 462 344 c 0,42,43
 420 344 420 344 380 318 c 0,44,45
 341 292 341 292 312 265 c 0,46,47
 243 202 243 202 200 147 c 0,48,49
 157 94 157 94 126 38 c 0,50,51
 96 -17 96 -17 69 -79 c 0,52,53
 42 -143 42 -143 5 -224 c 0,54,55
 -10 -261 -10 -261 -25 -299 c 0,56,57
 -39 -337 -39 -337 -58 -373 c 1,58,59
 -90 -385 -90 -385 -122 -391 c 0,60,61
 -156 -398 -156 -398 -186 -410 c 1,62,63
 -186 -406 -186 -406 -190 -404 c 0,64,65
 -195 -402 -195 -402 -198 -399 c 0,66,67
 -174 -335 -174 -335 -148 -276 c 0,68,69
 -121 -216 -121 -216 -95 -155 c 0,70,71
 -68 -95 -68 -95 -38 -39 c 0,72,73
 -8 16 -8 16 12 79 c 0,74,75
 39 165 39 165 52 247 c 0,76,77
 66 330 66 330 66 421 c 1,78,79
 70 421 70 421 78 421 c 0,80,81
 103 421 103 421 126 422 c 0,82,83
 150 425 150 425 173 425 c 1,84,85
 177 413 177 413 178 402 c 0,86,87
 179 390 179 390 179 378 c 0,88,89
 179 351 179 351 176 326 c 0,90,91
 170 302 170 302 168 276 c 1,92,93
 192 303 192 303 226 334 c 256,94,95
 260 365 260 365 296 390 c 0,96,97
 334 417 334 417 374 434 c 0,98,99
 415 451 415 451 455 451 c 0,0,1
EndSplineSet
EndChar

StartChar: q
Encoding: 113 113 75
Width: 614
Flags: W
LayerCount: 2
Fore
SplineSet
471 454 m 0,0,1
 485 454 485 454 507 450 c 256,2,3
 529 446 529 446 536 433 c 1,4,5
 528 407 528 407 511 386 c 0,6,7
 495 367 495 367 477 347 c 1,8,9
 438 339 438 339 402 339 c 0,10,11
 365 339 365 339 328 326 c 0,12,13
 298 315 298 315 264 295 c 0,14,15
 229 276 229 276 199 248 c 0,16,17
 169 224 169 224 150 191 c 0,18,19
 129 160 129 160 129 125 c 0,20,21
 129 114 129 114 139 109 c 0,22,23
 150 105 150 105 157 105 c 0,24,25
 185 105 185 105 205 121 c 0,26,27
 226 136 226 136 242 159 c 0,28,29
 260 179 260 179 273 202 c 0,30,31
 287 224 287 224 300 235 c 0,32,33
 311 243 311 243 326 250 c 0,34,35
 343 256 343 256 363 260 c 0,36,37
 381 264 381 264 399 266 c 0,38,39
 417 270 417 270 429 273 c 1,40,41
 412 229 412 229 390 187 c 0,42,43
 367 146 367 146 347 103 c 0,44,45
 341 88 341 88 326 57 c 0,46,47
 312 26 312 26 292 -13 c 0,48,49
 274 -53 274 -53 255 -96 c 0,50,51
 234 -138 234 -138 217 -176 c 256,52,53
 200 -214 200 -214 188 -242 c 0,54,55
 178 -270 178 -270 178 -278 c 256,56,57
 178 -286 178 -286 181 -295 c 0,58,59
 183 -303 183 -303 186 -312 c 1,60,61
 224 -294 224 -294 252 -266 c 0,62,63
 281 -238 281 -238 300 -203 c 0,64,65
 321 -168 321 -168 330 -129 c 0,66,67
 341 -90 341 -90 341 -49 c 0,68,69
 341 -32 341 -32 338 -17 c 0,70,71
 335 -1 335 -1 335 14 c 0,72,73
 335 42 335 42 355 64 c 0,74,75
 376 87 376 87 390 108 c 1,76,77
 437 108 437 108 529 108 c 1,78,79
 520 81 520 81 507 57 c 0,80,81
 494 32 494 32 481 6 c 1,82,83
 464 6 464 6 433 6 c 1,84,85
 436 -16 436 -16 437 -39 c 256,86,87
 438 -62 438 -62 438 -86 c 0,88,89
 438 -142 438 -142 413 -200 c 0,90,91
 389 -259 389 -259 346 -304 c 0,92,93
 304 -352 304 -352 251 -382 c 0,94,95
 196 -412 196 -412 136 -412 c 0,96,97
 118 -412 118 -412 104 -404 c 0,98,99
 91 -395 91 -395 81 -382 c 0,100,101
 72 -369 72 -369 68 -351 c 0,102,103
 62 -334 62 -334 62 -318 c 0,104,105
 62 -287 62 -287 78 -240 c 0,106,107
 95 -192 95 -192 116 -143 c 0,108,109
 138 -94 138 -94 161 -47 c 0,110,111
 183 0 183 0 199 30 c 1,112,113
 177 20 177 20 156 12 c 0,114,115
 134 3 134 3 112 3 c 0,116,117
 61 3 61 3 38 36 c 0,118,119
 13 69 13 69 13 116 c 0,120,121
 13 147 13 147 23 178 c 0,122,123
 34 211 34 211 51 237 c 0,124,125
 84 289 84 289 131 329 c 256,126,127
 178 369 178 369 233 396 c 0,128,129
 289 425 289 425 350 439 c 0,130,131
 411 454 411 454 471 454 c 0,0,1
EndSplineSet
EndChar

StartChar: r
Encoding: 114 114 76
Width: 614
Flags: W
LayerCount: 2
Fore
SplineSet
133 490 m 1,0,1
 155 490 155 490 218 490 c 1,2,3
 214 467 214 467 205 448 c 0,4,5
 198 430 198 430 190 408 c 1,6,7
 252 408 252 408 313 410 c 0,8,9
 376 411 376 411 437 415 c 1,10,11
 430 393 430 393 424 372 c 0,12,13
 417 350 417 350 404 330 c 1,14,15
 382 317 382 317 359 307 c 0,16,17
 335 296 335 296 320 277 c 0,18,19
 294 246 294 246 269 211 c 256,20,21
 244 176 244 176 243 133 c 0,22,23
 239 120 239 120 259 114 c 0,24,25
 278 109 278 109 304 107 c 0,26,27
 332 105 332 105 358 105 c 0,28,29
 385 107 385 107 393 107 c 1,30,31
 385 79 385 79 372 55 c 0,32,33
 358 31 358 31 344 5 c 1,34,35
 321 8 321 8 296 6 c 0,36,37
 272 4 272 4 246 4 c 0,38,39
 177 4 177 4 150 31 c 0,40,41
 121 57 121 57 121 127 c 0,42,43
 121 147 121 147 135 174 c 0,44,45
 150 203 150 203 168 230 c 0,46,47
 187 259 187 259 208 285 c 0,48,49
 228 311 228 311 239 325 c 1,50,51
 229 325 229 325 218 325 c 0,52,53
 208 326 208 326 198 326 c 0,54,55
 176 326 176 326 164 322 c 0,56,57
 153 318 153 318 147 309 c 0,58,59
 140 300 140 300 135 289 c 0,60,61
 130 277 130 277 122 261 c 1,62,63
 100 263 100 263 77 263 c 0,64,65
 55 263 55 263 32 263 c 1,66,67
 36 274 36 274 49 309 c 0,68,69
 64 344 64 344 79 384 c 0,70,71
 96 422 96 422 112 454 c 0,72,73
 126 486 126 486 133 490 c 1,0,1
EndSplineSet
EndChar

StartChar: s
Encoding: 115 115 77
Width: 614
Flags: W
LayerCount: 2
Fore
SplineSet
332 500 m 0,0,1
 338 500 338 500 343 500 c 256,2,3
 348 500 348 500 355 499 c 1,4,5
 339 471 339 471 316 447 c 0,6,7
 292 424 292 424 281 393 c 1,8,9
 290 346 290 346 304 299 c 0,10,11
 318 254 318 254 318 204 c 0,12,13
 318 192 318 192 317 176 c 0,14,15
 316 159 316 159 312 148 c 0,16,17
 303 127 303 127 290 105 c 0,18,19
 277 82 277 82 260 62 c 0,20,21
 242 43 242 43 221 29 c 0,22,23
 200 13 200 13 178 9 c 0,24,25
 127 -1 127 -1 73 1 c 0,26,27
 17 4 17 4 -35 0 c 1,28,29
 -32 8 -32 8 -27 23 c 0,30,31
 -22 40 -22 40 -16 56 c 0,32,33
 -9 73 -9 73 -3 86 c 0,34,35
 5 99 5 99 13 101 c 0,36,37
 20 103 20 103 36 104 c 0,38,39
 53 105 53 105 73 105 c 0,40,41
 94 107 94 107 113 107 c 0,42,43
 133 108 133 108 147 110 c 0,44,45
 170 114 170 114 179 127 c 256,46,47
 188 140 188 140 200 159 c 0,48,49
 208 173 208 173 212 185 c 0,50,51
 216 198 216 198 216 214 c 0,52,53
 216 235 216 235 211 256 c 0,54,55
 207 276 207 276 202 296 c 1,56,57
 181 281 181 281 164 261 c 0,58,59
 148 242 148 242 131 222 c 1,60,61
 107 226 107 226 82 234 c 0,62,63
 58 240 58 240 36 251 c 1,64,65
 69 290 69 290 101 328 c 0,66,67
 133 367 133 367 164 408 c 0,68,69
 169 417 169 417 178 429 c 0,70,71
 187 442 187 442 199 454 c 0,72,73
 209 465 209 465 220 476 c 0,74,75
 230 486 230 486 238 489 c 0,76,77
 257 495 257 495 285 498 c 0,78,79
 313 500 313 500 332 500 c 0,0,1
EndSplineSet
EndChar

StartChar: t
Encoding: 116 116 78
Width: 614
Flags: W
LayerCount: 2
Fore
SplineSet
224 572 m 1,0,1
 254 580 254 580 282 580 c 0,2,3
 312 578 312 578 342 584 c 1,4,5
 329 541 329 541 309 500 c 0,6,7
 289 460 289 460 272 419 c 1,8,9
 294 413 294 413 317 412 c 0,10,11
 339 411 339 411 363 407 c 1,12,13
 354 382 354 382 344 358 c 256,14,15
 334 334 334 334 320 312 c 1,16,17
 304 308 304 308 291 309 c 0,18,19
 277 311 277 311 264 311 c 0,20,21
 246 311 246 311 235 306 c 0,22,23
 225 300 225 300 218 285 c 0,24,25
 199 242 199 242 178 199 c 0,26,27
 159 155 159 155 143 109 c 1,28,29
 174 105 174 105 207 104 c 0,30,31
 238 103 238 103 270 99 c 1,32,33
 266 70 266 70 252 46 c 0,34,35
 238 20 238 20 222 -3 c 1,36,37
 185 -3 185 -3 146 -1 c 0,38,39
 105 1 105 1 68 8 c 0,40,41
 46 12 46 12 30 31 c 0,42,43
 13 51 13 51 13 74 c 0,44,45
 13 94 13 94 23 124 c 0,46,47
 35 155 35 155 49 187 c 0,48,49
 64 222 64 222 78 254 c 0,50,51
 94 285 94 285 101 307 c 1,52,53
 82 311 82 311 64 312 c 256,54,55
 46 313 46 313 26 313 c 1,56,57
 42 363 42 363 69 412 c 1,58,59
 96 412 96 412 150 412 c 1,60,61
 174 450 174 450 186 493 c 0,62,63
 199 536 199 536 224 572 c 1,0,1
EndSplineSet
EndChar

StartChar: u
Encoding: 117 117 79
Width: 614
Flags: W
LayerCount: 2
Fore
SplineSet
495 428 m 1,0,1
 488 393 488 393 473 359 c 256,2,3
 458 325 458 325 442 294 c 0,4,5
 432 274 432 274 419 257 c 0,6,7
 406 239 406 239 394 221 c 0,8,9
 384 204 384 204 376 183 c 0,10,11
 369 162 369 162 369 136 c 0,12,13
 369 120 369 120 382 113 c 0,14,15
 395 105 395 105 413 103 c 0,16,17
 433 101 433 101 452 101 c 0,18,19
 471 103 471 103 484 103 c 1,20,21
 477 75 477 75 467 51 c 0,22,23
 458 25 458 25 446 1 c 1,24,25
 413 1 413 1 378 1 c 0,26,27
 343 0 343 0 313 6 c 0,28,29
 292 10 292 10 281 29 c 0,30,31
 268 47 268 47 255 60 c 1,32,33
 234 51 234 51 216 39 c 0,34,35
 199 29 199 29 179 17 c 0,36,37
 162 6 162 6 143 -1 c 0,38,39
 122 -8 122 -8 100 -8 c 0,40,41
 87 -8 87 -8 72 -3 c 0,42,43
 56 4 56 4 43 13 c 0,44,45
 31 23 31 23 22 38 c 0,46,47
 13 51 13 51 13 65 c 0,48,49
 13 77 13 77 21 104 c 0,50,51
 30 130 30 130 42 164 c 0,52,53
 53 198 53 198 68 234 c 0,54,55
 82 272 82 272 98 304 c 0,56,57
 112 339 112 339 125 367 c 0,58,59
 136 393 136 393 144 406 c 1,60,61
 170 421 170 421 200 422 c 0,62,63
 230 424 230 424 261 428 c 1,64,65
 248 385 248 385 231 343 c 0,66,67
 214 302 214 302 198 261 c 0,68,69
 181 220 181 220 165 178 c 0,70,71
 151 135 151 135 143 92 c 1,72,73
 173 105 173 105 198 121 c 0,74,75
 221 136 221 136 243 161 c 0,76,77
 256 173 256 173 261 186 c 256,78,79
 266 199 266 199 270 211 c 0,80,81
 274 224 274 224 278 237 c 0,82,83
 281 248 281 248 287 263 c 0,84,85
 292 274 292 274 303 292 c 0,86,87
 313 312 313 312 322 332 c 0,88,89
 333 351 333 351 343 369 c 0,90,91
 354 387 354 387 363 395 c 0,92,93
 373 407 373 407 390 412 c 0,94,95
 406 419 406 419 425 421 c 0,96,97
 443 424 443 424 462 424 c 0,98,99
 481 425 481 425 495 428 c 1,0,1
EndSplineSet
EndChar

StartChar: v
Encoding: 118 118 80
Width: 614
Flags: W
LayerCount: 2
Fore
SplineSet
70 404 m 1,0,1
 100 412 100 412 129 417 c 0,2,3
 159 422 159 422 187 426 c 1,4,5
 177 395 177 395 164 361 c 0,6,7
 152 328 152 328 140 291 c 0,8,9
 129 257 129 257 122 222 c 0,10,11
 114 187 114 187 114 155 c 0,12,13
 114 134 114 134 122 117 c 1,14,15
 153 140 153 140 186 173 c 0,16,17
 220 207 220 207 230 244 c 0,18,19
 233 256 233 256 231 265 c 256,20,21
 229 274 229 274 229 285 c 0,22,23
 229 300 229 300 248 325 c 0,24,25
 268 348 268 348 294 372 c 0,26,27
 322 394 322 394 350 410 c 0,28,29
 377 426 377 426 393 426 c 0,30,31
 407 426 407 426 411 416 c 0,32,33
 413 406 413 406 420 394 c 0,34,35
 425 382 425 382 437 372 c 0,36,37
 448 361 448 361 481 361 c 1,38,39
 473 337 473 337 464 312 c 256,40,41
 455 287 455 287 443 265 c 1,42,43
 433 263 433 263 421 264 c 0,44,45
 410 265 410 265 399 265 c 0,46,47
 393 265 393 265 386 264 c 0,48,49
 380 263 380 263 374 260 c 0,50,51
 363 254 363 254 348 237 c 0,52,53
 335 220 335 220 321 202 c 0,54,55
 307 182 307 182 292 164 c 0,56,57
 278 146 278 146 266 133 c 0,58,59
 240 109 240 109 217 86 c 0,60,61
 192 62 192 62 166 43 c 0,62,63
 142 22 142 22 112 8 c 0,64,65
 82 -8 82 -8 48 -16 c 1,66,67
 35 0 35 0 29 21 c 0,68,69
 21 43 21 43 17 65 c 0,70,71
 14 88 14 88 14 112 c 0,72,73
 13 134 13 134 13 155 c 0,74,75
 13 283 13 283 70 404 c 1,0,1
EndSplineSet
EndChar

StartChar: w
Encoding: 119 119 81
Width: 614
Flags: W
LayerCount: 2
Fore
SplineSet
291 402 m 1,0,1
 318 417 318 417 348 421 c 256,2,3
 378 425 378 425 408 429 c 1,4,5
 384 361 384 361 360 292 c 0,6,7
 337 224 337 224 337 151 c 0,8,9
 337 143 337 143 337 135 c 256,10,11
 337 127 337 127 338 120 c 1,12,13
 376 144 376 144 406 176 c 0,14,15
 437 208 437 208 456 247 c 1,16,17
 454 260 454 260 450 270 c 0,18,19
 446 282 446 282 446 294 c 0,20,21
 446 303 446 303 448 309 c 0,22,23
 451 316 451 316 456 322 c 0,24,25
 473 341 473 341 491 359 c 0,26,27
 511 378 511 378 534 393 c 0,28,29
 558 408 558 408 582 419 c 0,30,31
 607 429 607 429 632 429 c 1,32,33
 632 413 632 413 634 399 c 0,34,35
 637 385 637 385 637 370 c 1,36,37
 654 367 654 367 670 361 c 0,38,39
 685 356 685 356 702 352 c 1,40,41
 689 333 689 333 681 311 c 0,42,43
 672 289 672 289 659 269 c 1,44,45
 647 266 647 266 634 266 c 0,46,47
 623 266 623 266 612 265 c 0,48,49
 602 265 602 265 592 260 c 0,50,51
 581 255 581 255 573 242 c 0,52,53
 558 218 558 218 523 176 c 0,54,55
 489 133 489 133 446 92 c 0,56,57
 404 51 404 51 363 20 c 0,58,59
 321 -10 321 -10 291 -10 c 0,60,61
 272 -10 272 -10 261 1 c 0,62,63
 251 12 251 12 243 29 c 0,64,65
 237 44 237 44 234 62 c 0,66,67
 230 79 230 79 226 95 c 1,68,69
 208 84 208 84 190 68 c 0,70,71
 173 51 173 51 155 35 c 0,72,73
 136 18 136 18 118 8 c 0,74,75
 99 -4 99 -4 74 -4 c 0,76,77
 52 -4 52 -4 39 13 c 256,78,79
 26 30 26 30 20 53 c 0,80,81
 14 77 14 77 14 103 c 0,82,83
 13 127 13 127 13 144 c 0,84,85
 13 212 13 212 32 278 c 256,86,87
 51 344 51 344 73 408 c 1,88,89
 112 413 112 413 190 425 c 1,90,91
 182 403 182 403 170 368 c 0,92,93
 157 332 157 332 146 292 c 0,94,95
 134 255 134 255 126 218 c 0,96,97
 117 182 117 182 117 162 c 256,98,99
 117 142 117 142 125 121 c 1,100,101
 146 138 146 138 164 155 c 0,102,103
 182 170 182 170 199 187 c 0,104,105
 214 207 214 207 226 228 c 0,106,107
 237 247 237 247 243 276 c 0,108,109
 251 308 251 308 263 341 c 0,110,111
 274 374 274 374 291 402 c 1,0,1
EndSplineSet
EndChar

StartChar: x
Encoding: 120 120 82
Width: 614
Flags: W
LayerCount: 2
Fore
SplineSet
164 428 m 1,0,1
 190 424 190 424 216 421 c 0,2,3
 240 419 240 419 265 406 c 0,4,5
 269 406 269 406 269 402 c 0,6,7
 270 398 270 398 270 395 c 0,8,9
 281 365 281 365 287 334 c 0,10,11
 294 303 294 303 302 273 c 1,12,13
 339 300 339 300 367 334 c 0,14,15
 394 367 394 367 425 400 c 0,16,17
 437 415 437 415 454 420 c 0,18,19
 469 425 469 425 489 425 c 0,20,21
 510 425 510 425 532 421 c 0,22,23
 552 419 552 419 573 421 c 1,24,25
 530 350 530 350 469 294 c 0,26,27
 410 237 410 237 354 177 c 0,28,29
 344 165 344 165 344 156 c 0,30,31
 344 143 344 143 354 129 c 0,32,33
 363 116 363 116 376 113 c 0,34,35
 404 107 404 107 439 107 c 256,36,37
 474 107 474 107 503 107 c 1,38,39
 497 77 497 77 482 51 c 256,40,41
 467 25 467 25 450 0 c 1,42,43
 439 0 439 0 421 1 c 0,44,45
 402 1 402 1 381 1 c 0,46,47
 361 1 361 1 343 3 c 0,48,49
 325 4 325 4 317 6 c 0,50,51
 308 9 308 9 300 18 c 0,52,53
 292 26 292 26 285 38 c 0,54,55
 278 48 278 48 270 57 c 0,56,57
 263 66 263 66 254 70 c 1,58,59
 230 58 230 58 214 38 c 0,60,61
 199 17 199 17 178 1 c 1,62,63
 166 3 166 3 153 4 c 0,64,65
 142 4 142 4 129 4 c 0,66,67
 100 4 100 4 72 6 c 0,68,69
 43 9 43 9 13 6 c 1,70,71
 36 31 36 31 62 52 c 0,72,73
 90 74 90 74 116 95 c 0,74,75
 143 116 143 116 169 138 c 0,76,77
 195 161 195 161 217 187 c 1,78,79
 205 247 205 247 188 307 c 0,80,81
 172 367 172 367 164 428 c 1,0,1
EndSplineSet
EndChar

StartChar: y
Encoding: 121 121 83
Width: 614
Flags: W
LayerCount: 2
Fore
SplineSet
142 378 m 1,0,1
 174 394 174 394 208 408 c 256,2,3
 242 422 242 422 280 426 c 1,4,5
 247 346 247 346 212 268 c 256,6,7
 177 190 177 190 156 107 c 1,8,9
 190 114 190 114 218 140 c 0,10,11
 247 165 247 165 274 186 c 0,12,13
 296 204 296 204 311 234 c 0,14,15
 324 265 324 265 334 295 c 0,16,17
 344 326 344 326 356 352 c 0,18,19
 369 378 369 378 391 387 c 0,20,21
 426 402 426 402 463 410 c 0,22,23
 499 417 499 417 536 425 c 1,24,25
 521 390 521 390 504 360 c 0,26,27
 486 330 486 330 467 300 c 0,28,29
 448 273 448 273 432 246 c 0,30,31
 413 218 413 218 402 190 c 0,32,33
 390 161 390 161 382 129 c 0,34,35
 374 96 374 96 364 65 c 0,36,37
 352 29 352 29 339 -8 c 0,38,39
 326 -44 326 -44 316 -81 c 0,40,41
 298 -140 298 -140 274 -188 c 0,42,43
 252 -237 252 -237 218 -287 c 0,44,45
 191 -328 191 -328 155 -354 c 0,46,47
 117 -380 117 -380 74 -399 c 0,48,49
 44 -413 44 -413 13 -420 c 0,50,51
 -18 -426 -18 -426 -53 -426 c 1,52,53
 -48 -413 -48 -413 -39 -398 c 0,54,55
 -31 -382 -31 -382 -21 -365 c 0,56,57
 -12 -347 -12 -347 -3 -332 c 0,58,59
 8 -317 8 -317 16 -309 c 0,60,61
 29 -298 29 -298 42 -290 c 256,62,63
 55 -282 55 -282 69 -276 c 0,64,65
 84 -269 84 -269 98 -260 c 0,66,67
 110 -252 110 -252 122 -239 c 0,68,69
 151 -209 151 -209 170 -174 c 0,70,71
 188 -138 188 -138 203 -101 c 0,72,73
 217 -64 217 -64 229 -25 c 0,74,75
 239 14 239 14 252 53 c 1,76,77
 237 47 237 47 220 36 c 0,78,79
 203 26 203 26 183 17 c 0,80,81
 165 8 165 8 147 1 c 0,82,83
 129 -5 129 -5 113 -5 c 0,84,85
 105 -5 105 -5 95 -1 c 0,86,87
 84 4 84 4 73 10 c 0,88,89
 62 17 62 17 55 26 c 0,90,91
 47 35 47 35 44 43 c 0,92,93
 42 49 42 49 40 62 c 0,94,95
 40 75 40 75 40 82 c 0,96,97
 40 109 40 109 49 151 c 0,98,99
 60 192 60 192 74 235 c 0,100,101
 90 280 90 280 107 318 c 0,102,103
 125 356 125 356 142 378 c 1,0,1
EndSplineSet
EndChar

StartChar: z
Encoding: 122 122 84
Width: 614
Flags: W
LayerCount: 2
Fore
SplineSet
234 430 m 0,0,1
 294 430 294 430 320 403 c 256,2,3
 346 376 346 376 346 317 c 0,4,5
 346 289 346 289 338 264 c 0,6,7
 330 238 330 238 318 214 c 0,8,9
 308 190 308 190 294 168 c 0,10,11
 281 144 281 144 270 120 c 1,12,13
 290 96 290 96 312 70 c 256,14,15
 334 44 334 44 334 10 c 0,16,17
 334 -52 334 -52 312 -104 c 0,18,19
 290 -157 290 -157 256 -203 c 0,20,21
 222 -248 222 -248 182 -291 c 0,22,23
 142 -333 142 -333 104 -374 c 0,24,25
 86 -395 86 -395 68 -402 c 0,26,27
 49 -408 49 -408 21 -408 c 0,28,29
 1 -408 1 -408 -20 -406 c 0,30,31
 -40 -403 -40 -403 -61 -406 c 1,32,33
 -31 -365 -31 -365 5 -328 c 0,34,35
 40 -290 40 -290 74 -255 c 0,36,37
 110 -218 110 -218 143 -181 c 0,38,39
 176 -143 176 -143 202 -99 c 0,40,41
 209 -84 209 -84 216 -57 c 0,42,43
 222 -31 222 -31 222 -14 c 0,44,45
 222 0 222 0 217 13 c 0,46,47
 212 25 212 25 202 35 c 1,48,49
 190 30 190 30 181 21 c 0,50,51
 170 13 170 13 160 6 c 1,52,53
 129 3 129 3 99 1 c 0,54,55
 68 0 68 0 36 4 c 1,56,57
 55 26 55 26 90 66 c 0,58,59
 124 105 124 105 157 148 c 256,60,61
 190 191 190 191 214 234 c 0,62,63
 239 277 239 277 239 307 c 0,64,65
 239 317 239 317 231 322 c 0,66,67
 222 329 222 329 213 333 c 1,68,69
 165 330 165 330 118 318 c 0,70,71
 72 308 72 308 26 291 c 1,72,73
 31 325 31 325 46 354 c 0,74,75
 61 382 61 382 79 408 c 1,76,77
 88 413 88 413 109 419 c 0,78,79
 130 422 130 422 155 425 c 0,80,81
 178 428 178 428 200 429 c 256,82,83
 222 430 222 430 234 430 c 0,0,1
EndSplineSet
EndChar

StartChar: braceleft
Encoding: 123 123 85
Width: 614
Flags: W
LayerCount: 2
Fore
SplineSet
602 998 m 0,0,1
 606 1000 606 1000 615 1000 c 0,2,3
 636 1000 636 1000 656 991 c 0,4,5
 677 983 677 983 698 976 c 1,6,7
 660 924 660 924 620 874 c 0,8,9
 580 823 580 823 543 770 c 0,10,11
 521 738 521 738 495 701 c 0,12,13
 469 663 469 663 445 621 c 0,14,15
 420 581 420 581 396 542 c 0,16,17
 373 503 373 503 356 471 c 0,18,19
 303 363 303 363 261 263 c 0,20,21
 218 164 218 164 188 64 c 0,22,23
 160 -36 160 -36 144 -143 c 0,24,25
 127 -248 127 -248 127 -373 c 0,26,27
 127 -381 127 -381 125 -389 c 0,28,29
 122 -396 122 -396 116 -402 c 1,30,31
 90 -398 90 -398 64 -393 c 0,32,33
 39 -387 39 -387 14 -376 c 1,34,35
 13 -365 13 -365 13 -355 c 0,36,37
 13 -346 13 -346 13 -337 c 0,38,39
 13 -190 13 -190 47 -44 c 0,40,41
 81 103 81 103 138 243 c 0,42,43
 196 385 196 385 270 517 c 0,44,45
 344 651 344 651 426 770 c 0,46,47
 467 829 467 829 508 888 c 0,48,49
 550 946 550 946 602 998 c 0,0,1
EndSplineSet
EndChar

StartChar: bar
Encoding: 124 124 86
Width: 614
Flags: W
LayerCount: 2
Fore
SplineSet
512 926 m 0,0,1
 520 926 520 926 534 923 c 1,2,3
 482 820 482 820 442 712 c 0,4,5
 402 606 402 606 355 502 c 0,6,7
 300 380 300 380 251 256 c 0,8,9
 200 133 200 133 152 8 c 1,10,11
 134 8 134 8 99 8 c 0,12,13
 78 8 78 8 13 8 c 1,14,15
 21 51 21 51 38 87 c 0,16,17
 55 124 55 124 72 162 c 0,18,19
 126 287 126 287 178 412 c 0,20,21
 229 537 229 537 282 662 c 0,22,23
 304 712 304 712 324 764 c 0,24,25
 343 816 343 816 368 864 c 0,26,27
 374 876 374 876 378 881 c 0,28,29
 384 888 384 888 389 890 c 0,30,31
 394 894 394 894 402 896 c 0,32,33
 410 897 410 897 422 901 c 0,34,35
 445 907 445 907 467 916 c 0,36,37
 490 926 490 926 512 926 c 0,0,1
EndSplineSet
EndChar

StartChar: braceright
Encoding: 125 125 87
Width: 614
Flags: W
LayerCount: 2
Fore
SplineSet
-108 -400 m 0,0,1
 -112 -402 -112 -402 -121 -402 c 0,2,3
 -143 -402 -143 -402 -162 -394 c 0,4,5
 -183 -385 -183 -385 -204 -378 c 1,6,7
 -166 -326 -166 -326 -126 -276 c 0,8,9
 -87 -225 -87 -225 -49 -172 c 0,10,11
 -29 -142 -29 -142 -3 -103 c 0,12,13
 23 -65 23 -65 49 -23 c 0,14,15
 74 16 74 16 98 55 c 0,16,17
 121 95 121 95 136 126 c 0,18,19
 190 235 190 235 233 335 c 0,20,21
 276 434 276 434 304 534 c 0,22,23
 334 633 334 633 350 740 c 0,24,25
 367 846 367 846 367 970 c 0,26,27
 367 979 367 979 369 987 c 0,28,29
 372 994 372 994 378 1000 c 1,30,31
 404 996 404 996 430 991 c 0,32,33
 455 985 455 985 480 974 c 1,34,35
 481 962 481 962 481 953 c 256,36,37
 481 944 481 944 481 935 c 0,38,39
 481 788 481 788 447 642 c 0,40,41
 412 495 412 495 355 354 c 256,42,43
 298 213 298 213 224 79 c 0,44,45
 150 -53 150 -53 68 -172 c 0,46,47
 26 -231 26 -231 -14 -290 c 0,48,49
 -56 -348 -56 -348 -108 -400 c 0,0,1
EndSplineSet
EndChar

StartChar: dieresis
Encoding: 168 168 88
Width: 614
Flags: W
LayerCount: 2
Fore
SplineSet
235 710 m 0,0,1
 272 710 272 710 292 686 c 0,2,3
 313 663 313 663 313 628 c 0,4,5
 313 592 313 592 290 572 c 0,6,7
 266 552 266 552 230 552 c 0,8,9
 196 552 196 552 178 575 c 0,10,11
 160 597 160 597 160 630 c 0,12,13
 160 666 160 666 179 688 c 0,14,15
 200 710 200 710 235 710 c 0,0,1
442 710 m 0,16,17
 478 710 478 710 498 685 c 0,18,19
 519 660 519 660 519 625 c 0,20,21
 519 592 519 592 497 572 c 0,22,23
 476 552 476 552 441 552 c 0,24,25
 408 552 408 552 387 576 c 0,26,27
 367 601 367 601 367 632 c 256,28,29
 367 663 367 663 389 686 c 0,30,31
 411 710 411 710 442 710 c 0,16,17
EndSplineSet
EndChar

StartChar: guillemotleft
Encoding: 171 171 89
Width: 614
Flags: W
LayerCount: 2
Fore
SplineSet
254 425 m 1,0,1
 268 410 268 410 312 367 c 1,2,3
 264 330 264 330 218 291 c 0,4,5
 173 254 173 254 125 217 c 1,6,7
 143 195 143 195 165 177 c 0,8,9
 188 160 188 160 211 142 c 0,10,11
 233 124 233 124 254 104 c 0,12,13
 273 84 273 84 285 57 c 1,14,15
 273 48 273 48 257 39 c 0,16,17
 242 31 242 31 226 31 c 0,18,19
 213 31 213 31 200 42 c 0,20,21
 153 82 153 82 108 125 c 0,22,23
 64 168 64 168 13 207 c 1,24,25
 17 228 17 228 39 244 c 0,26,27
 61 263 61 263 77 276 c 0,28,29
 124 313 124 313 165 350 c 0,30,31
 208 387 208 387 254 425 c 1,0,1
231 228 m 1,32,33
 295 272 295 272 358 318 c 0,34,35
 420 367 420 367 477 420 c 1,36,37
 491 408 491 408 508 398 c 0,38,39
 525 387 525 387 541 377 c 1,40,41
 498 330 498 330 450 292 c 0,42,43
 402 255 402 255 348 222 c 1,44,45
 385 182 385 182 428 150 c 0,46,47
 471 117 471 117 503 73 c 1,48,49
 493 58 493 58 478 44 c 0,50,51
 464 30 464 30 445 25 c 1,52,53
 426 34 426 34 411 51 c 0,54,55
 395 69 395 69 381 84 c 0,56,57
 346 122 346 122 311 152 c 0,58,59
 274 182 274 182 231 212 c 1,60,61
 231 217 231 217 231 228 c 1,32,33
EndSplineSet
EndChar

StartChar: acute
Encoding: 180 180 90
Width: 614
Flags: W
LayerCount: 2
Fore
SplineSet
520 650 m 1,0,1
 558 650 558 650 668 653 c 1,2,3
 615 604 615 604 455 462 c 1,4,5
 441 463 441 463 399 463 c 1,6,7
 429 510 429 510 520 650 c 1,0,1
EndSplineSet
EndChar

StartChar: cedilla
Encoding: 184 184 91
Width: 614
Flags: W
LayerCount: 2
Fore
SplineSet
240 12 m 1,0,1
 229 -3 229 -3 213 -13 c 0,2,3
 199 -23 199 -23 188 -40 c 1,4,5
 191 -52 191 -52 198 -60 c 0,6,7
 203 -66 203 -66 207 -73 c 0,8,9
 212 -79 212 -79 216 -88 c 0,10,11
 220 -96 220 -96 220 -108 c 0,12,13
 220 -112 220 -112 218 -118 c 0,14,15
 218 -125 218 -125 217 -133 c 0,16,17
 216 -142 216 -142 213 -148 c 0,18,19
 212 -156 212 -156 211 -159 c 0,20,21
 195 -191 195 -191 172 -207 c 0,22,23
 150 -221 150 -221 122 -225 c 0,24,25
 103 -229 103 -229 79 -229 c 0,26,27
 74 -229 74 -229 68 -229 c 0,28,29
 39 -228 39 -228 9 -229 c 1,30,31
 12 -224 12 -224 17 -213 c 0,32,33
 21 -203 21 -203 26 -190 c 0,34,35
 32 -178 32 -178 38 -169 c 256,36,37
 44 -160 44 -160 51 -159 c 0,38,39
 65 -155 65 -155 81 -156 c 0,40,41
 98 -159 98 -159 109 -157 c 0,42,43
 122 -156 122 -156 131 -147 c 0,44,45
 140 -136 140 -136 140 -110 c 0,46,47
 140 -98 140 -98 133 -87 c 0,48,49
 125 -75 125 -75 116 -68 c 0,50,51
 108 -60 108 -60 100 -55 c 0,52,53
 94 -49 94 -49 94 -44 c 256,54,55
 94 -39 94 -39 100 -31 c 0,56,57
 108 -22 108 -22 117 -14 c 0,58,59
 126 -8 126 -8 136 -3 c 0,60,61
 147 3 147 3 152 4 c 0,62,63
 161 6 161 6 165 10 c 0,64,65
 170 13 170 13 179 13 c 0,66,67
 190 13 190 13 211 14 c 0,68,69
 214 14 214 14 218 14 c 0,70,71
 233 14 233 14 240 12 c 1,0,1
EndSplineSet
EndChar

StartChar: guillemotright
Encoding: 187 187 92
Width: 614
Flags: W
LayerCount: 2
Fore
SplineSet
44 368 m 1,0,1
 74 398 74 398 113 421 c 1,2,3
 161 365 161 365 216 316 c 0,4,5
 270 266 270 266 326 218 c 1,6,7
 299 202 299 202 265 176 c 0,8,9
 231 151 231 151 196 124 c 0,10,11
 161 98 161 98 129 70 c 0,12,13
 98 43 98 43 75 21 c 0,14,15
 72 22 72 22 61 29 c 0,16,17
 51 35 51 35 40 42 c 0,18,19
 30 48 30 48 21 55 c 0,20,21
 13 61 13 61 13 66 c 0,22,23
 13 73 13 73 17 79 c 0,24,25
 20 86 20 86 22 91 c 0,26,27
 64 126 64 126 109 156 c 0,28,29
 155 186 155 186 199 218 c 1,30,31
 159 255 159 255 120 291 c 0,32,33
 79 328 79 328 44 368 c 1,0,1
268 363 m 1,34,35
 269 373 269 373 276 380 c 256,36,37
 283 387 283 387 291 393 c 0,38,39
 300 398 300 398 311 403 c 0,40,41
 320 408 320 408 326 415 c 1,42,43
 355 390 355 390 382 363 c 0,44,45
 408 335 408 335 438 309 c 0,46,47
 464 285 464 285 493 264 c 0,48,49
 521 242 521 242 545 213 c 1,50,51
 511 192 511 192 482 170 c 0,52,53
 452 147 452 147 422 122 c 0,54,55
 391 99 391 99 365 70 c 0,56,57
 338 42 338 42 304 21 c 1,58,59
 285 21 285 21 268 36 c 0,60,61
 251 52 251 52 235 64 c 1,62,63
 276 112 276 112 325 147 c 0,64,65
 376 182 376 182 422 224 c 1,66,67
 385 261 385 261 343 292 c 0,68,69
 302 324 302 324 268 363 c 1,34,35
EndSplineSet
EndChar

StartChar: Agrave
Encoding: 192 192 93
Width: 614
Flags: W
LayerCount: 2
Fore
SplineSet
833 909 m 0,0,1
 858 909 858 909 875 904 c 0,2,3
 890 897 890 897 909 880 c 0,4,5
 933 857 933 857 946 833 c 0,6,7
 959 810 959 810 965 783 c 0,8,9
 972 757 972 757 972 727 c 0,10,11
 974 698 974 698 974 667 c 0,12,13
 974 633 974 633 959 580 c 0,14,15
 946 528 946 528 926 463 c 0,16,17
 905 400 905 400 879 333 c 0,18,19
 852 265 852 265 824 203 c 0,20,21
 797 142 797 142 771 90 c 0,22,23
 745 39 745 39 725 8 c 1,24,25
 689 8 689 8 654 9 c 0,26,27
 618 9 618 9 581 13 c 1,28,29
 614 69 614 69 644 127 c 0,30,31
 673 185 673 185 696 247 c 1,32,33
 603 243 603 243 514 244 c 0,34,35
 424 244 424 244 333 238 c 1,36,37
 332 204 332 204 329 172 c 0,38,39
 326 138 326 138 326 104 c 0,40,41
 326 48 326 48 342 -3 c 0,42,43
 356 -53 356 -53 364 -108 c 1,44,45
 286 -100 286 -100 214 -75 c 1,46,47
 192 26 192 26 192 136 c 0,48,49
 192 164 192 164 195 190 c 0,50,51
 198 217 198 217 200 243 c 1,52,53
 153 243 153 243 107 243 c 0,54,55
 60 242 60 242 13 239 c 1,56,57
 25 274 25 274 44 303 c 0,58,59
 64 333 64 333 77 367 c 1,60,61
 127 367 127 367 226 367 c 1,62,63
 242 394 242 394 254 425 c 0,64,65
 264 455 264 455 280 484 c 0,66,67
 304 525 304 525 341 573 c 0,68,69
 377 621 377 621 421 670 c 0,70,71
 464 718 464 718 515 760 c 0,72,73
 564 803 564 803 618 837 c 0,74,75
 671 871 671 871 725 890 c 0,76,77
 780 909 780 909 833 909 c 0,0,1
376 372 m 1,78,79
 390 372 390 372 404 369 c 0,80,81
 420 367 420 367 434 365 c 0,82,83
 514 365 514 365 592 368 c 0,84,85
 668 370 668 370 748 370 c 1,86,87
 762 400 762 400 775 425 c 0,88,89
 789 448 789 448 796 481 c 0,90,91
 809 532 809 532 824 578 c 0,92,93
 841 625 841 625 841 679 c 0,94,95
 841 690 841 690 841 707 c 0,96,97
 840 724 840 724 836 738 c 0,98,99
 832 754 832 754 823 763 c 0,100,101
 815 774 815 774 797 774 c 0,102,103
 796 774 796 774 793 774 c 0,104,105
 760 774 760 774 734 758 c 0,106,107
 707 740 707 740 680 722 c 0,108,109
 581 654 581 654 503 567 c 0,110,111
 425 481 425 481 376 372 c 1,78,79
874 948 m 1,112,113
 859 948 859 948 818 946 c 1,114,115
 764 994 764 994 604 1136 c 1,116,117
 641 1136 641 1136 753 1134 c 1,118,119
 783 1088 783 1088 874 948 c 1,112,113
EndSplineSet
EndChar

StartChar: Aacute
Encoding: 193 193 94
Width: 614
Flags: W
LayerCount: 2
Fore
SplineSet
833 909 m 0,0,1
 858 909 858 909 875 904 c 0,2,3
 890 897 890 897 909 880 c 0,4,5
 933 857 933 857 946 833 c 0,6,7
 959 810 959 810 965 783 c 0,8,9
 972 757 972 757 972 727 c 0,10,11
 974 698 974 698 974 667 c 0,12,13
 974 633 974 633 959 580 c 0,14,15
 946 528 946 528 926 463 c 0,16,17
 905 400 905 400 879 333 c 0,18,19
 852 265 852 265 824 203 c 0,20,21
 797 142 797 142 771 90 c 0,22,23
 745 39 745 39 725 8 c 1,24,25
 689 8 689 8 654 9 c 0,26,27
 618 9 618 9 581 13 c 1,28,29
 614 69 614 69 644 127 c 0,30,31
 673 185 673 185 696 247 c 1,32,33
 603 243 603 243 514 244 c 0,34,35
 424 244 424 244 333 238 c 1,36,37
 332 204 332 204 329 172 c 0,38,39
 326 138 326 138 326 104 c 0,40,41
 326 48 326 48 342 -3 c 0,42,43
 356 -53 356 -53 364 -108 c 1,44,45
 286 -100 286 -100 214 -75 c 1,46,47
 192 26 192 26 192 136 c 0,48,49
 192 164 192 164 195 190 c 0,50,51
 198 217 198 217 200 243 c 1,52,53
 153 243 153 243 107 243 c 0,54,55
 60 242 60 242 13 239 c 1,56,57
 25 274 25 274 44 303 c 0,58,59
 64 333 64 333 77 367 c 1,60,61
 127 367 127 367 226 367 c 1,62,63
 242 394 242 394 254 425 c 0,64,65
 264 455 264 455 280 484 c 0,66,67
 304 525 304 525 341 573 c 0,68,69
 377 621 377 621 421 670 c 0,70,71
 464 718 464 718 515 760 c 0,72,73
 564 803 564 803 618 837 c 0,74,75
 671 871 671 871 725 890 c 0,76,77
 780 909 780 909 833 909 c 0,0,1
376 372 m 1,78,79
 390 372 390 372 404 369 c 0,80,81
 420 367 420 367 434 365 c 0,82,83
 514 365 514 365 592 368 c 0,84,85
 668 370 668 370 748 370 c 1,86,87
 762 400 762 400 775 425 c 0,88,89
 789 448 789 448 796 481 c 0,90,91
 809 532 809 532 824 578 c 0,92,93
 841 625 841 625 841 679 c 0,94,95
 841 690 841 690 841 707 c 0,96,97
 840 724 840 724 836 738 c 0,98,99
 832 754 832 754 823 763 c 0,100,101
 815 774 815 774 797 774 c 0,102,103
 796 774 796 774 793 774 c 0,104,105
 760 774 760 774 734 758 c 0,106,107
 707 740 707 740 680 722 c 0,108,109
 581 654 581 654 503 567 c 0,110,111
 425 481 425 481 376 372 c 1,78,79
965 1122 m 1,112,113
 1002 1123 1002 1123 1113 1124 c 1,114,115
 1060 1078 1060 1078 900 935 c 1,116,117
 885 935 885 935 844 936 c 1,118,119
 875 983 875 983 965 1122 c 1,112,113
EndSplineSet
EndChar

StartChar: Acircumflex
Encoding: 194 194 95
Width: 614
Flags: W
LayerCount: 2
Fore
SplineSet
833 909 m 0,0,1
 858 909 858 909 875 904 c 0,2,3
 890 897 890 897 909 880 c 0,4,5
 933 857 933 857 946 833 c 0,6,7
 959 810 959 810 965 783 c 0,8,9
 972 757 972 757 972 727 c 0,10,11
 974 698 974 698 974 667 c 0,12,13
 974 633 974 633 959 580 c 0,14,15
 946 528 946 528 926 463 c 0,16,17
 905 400 905 400 879 333 c 0,18,19
 852 265 852 265 824 203 c 0,20,21
 797 142 797 142 771 90 c 0,22,23
 745 39 745 39 725 8 c 1,24,25
 689 8 689 8 654 9 c 0,26,27
 618 9 618 9 581 13 c 1,28,29
 614 69 614 69 644 127 c 0,30,31
 673 185 673 185 696 247 c 1,32,33
 603 243 603 243 514 244 c 0,34,35
 424 244 424 244 333 238 c 1,36,37
 332 204 332 204 329 172 c 0,38,39
 326 138 326 138 326 104 c 0,40,41
 326 48 326 48 342 -3 c 0,42,43
 356 -53 356 -53 364 -108 c 1,44,45
 286 -100 286 -100 214 -75 c 1,46,47
 192 26 192 26 192 136 c 0,48,49
 192 164 192 164 195 190 c 0,50,51
 198 217 198 217 200 243 c 1,52,53
 153 243 153 243 107 243 c 0,54,55
 60 242 60 242 13 239 c 1,56,57
 25 274 25 274 44 303 c 0,58,59
 64 333 64 333 77 367 c 1,60,61
 127 367 127 367 226 367 c 1,62,63
 242 394 242 394 254 425 c 0,64,65
 264 455 264 455 280 484 c 0,66,67
 304 525 304 525 341 573 c 0,68,69
 377 621 377 621 421 670 c 0,70,71
 464 718 464 718 515 760 c 0,72,73
 564 803 564 803 618 837 c 0,74,75
 671 871 671 871 725 890 c 0,76,77
 780 909 780 909 833 909 c 0,0,1
376 372 m 1,78,79
 390 372 390 372 404 369 c 0,80,81
 420 367 420 367 434 365 c 0,82,83
 514 365 514 365 592 368 c 0,84,85
 668 370 668 370 748 370 c 1,86,87
 762 400 762 400 775 425 c 0,88,89
 789 448 789 448 796 481 c 0,90,91
 809 532 809 532 824 578 c 0,92,93
 841 625 841 625 841 679 c 0,94,95
 841 690 841 690 841 707 c 0,96,97
 840 724 840 724 836 738 c 0,98,99
 832 754 832 754 823 763 c 0,100,101
 815 774 815 774 797 774 c 0,102,103
 796 774 796 774 793 774 c 0,104,105
 760 774 760 774 734 758 c 0,106,107
 707 740 707 740 680 722 c 0,108,109
 581 654 581 654 503 567 c 0,110,111
 425 481 425 481 376 372 c 1,78,79
774 1089 m 0,112,113
 775 1089 775 1089 779 1093 c 1,114,115
 812 1093 812 1093 913 1093 c 0,116,117
 914 1092 914 1092 916 1089 c 0,118,119
 933 1048 933 1048 987 927 c 1,120,121
 976 926 976 926 944 926 c 1,122,123
 915 949 915 949 829 1019 c 1,124,125
 793 996 793 996 681 926 c 1,126,127
 672 926 672 926 642 927 c 1,128,129
 675 967 675 967 774 1089 c 0,112,113
EndSplineSet
EndChar

StartChar: Atilde
Encoding: 195 195 96
Width: 614
Flags: W
LayerCount: 2
Fore
SplineSet
833 909 m 0,0,1
 858 909 858 909 875 904 c 0,2,3
 890 897 890 897 909 880 c 0,4,5
 933 857 933 857 946 833 c 0,6,7
 959 810 959 810 965 783 c 0,8,9
 972 757 972 757 972 727 c 0,10,11
 974 698 974 698 974 667 c 0,12,13
 974 633 974 633 959 580 c 0,14,15
 946 528 946 528 926 463 c 0,16,17
 905 400 905 400 879 333 c 0,18,19
 852 265 852 265 824 203 c 0,20,21
 797 142 797 142 771 90 c 0,22,23
 745 39 745 39 725 8 c 1,24,25
 689 8 689 8 654 9 c 0,26,27
 618 9 618 9 581 13 c 1,28,29
 614 69 614 69 644 127 c 0,30,31
 673 185 673 185 696 247 c 1,32,33
 603 243 603 243 514 244 c 0,34,35
 424 244 424 244 333 238 c 1,36,37
 332 204 332 204 329 172 c 0,38,39
 326 138 326 138 326 104 c 0,40,41
 326 48 326 48 342 -3 c 0,42,43
 356 -53 356 -53 364 -108 c 1,44,45
 286 -100 286 -100 214 -75 c 1,46,47
 192 26 192 26 192 136 c 0,48,49
 192 164 192 164 195 190 c 0,50,51
 198 217 198 217 200 243 c 1,52,53
 153 243 153 243 107 243 c 0,54,55
 60 242 60 242 13 239 c 1,56,57
 25 274 25 274 44 303 c 0,58,59
 64 333 64 333 77 367 c 1,60,61
 127 367 127 367 226 367 c 1,62,63
 242 394 242 394 254 425 c 0,64,65
 264 455 264 455 280 484 c 0,66,67
 304 525 304 525 341 573 c 0,68,69
 377 621 377 621 421 670 c 0,70,71
 464 718 464 718 515 760 c 0,72,73
 564 803 564 803 618 837 c 0,74,75
 671 871 671 871 725 890 c 0,76,77
 780 909 780 909 833 909 c 0,0,1
376 372 m 1,78,79
 390 372 390 372 404 369 c 0,80,81
 420 367 420 367 434 365 c 0,82,83
 514 365 514 365 592 368 c 0,84,85
 668 370 668 370 748 370 c 1,86,87
 762 400 762 400 775 425 c 0,88,89
 789 448 789 448 796 481 c 0,90,91
 809 532 809 532 824 578 c 0,92,93
 841 625 841 625 841 679 c 0,94,95
 841 690 841 690 841 707 c 0,96,97
 840 724 840 724 836 738 c 0,98,99
 832 754 832 754 823 763 c 0,100,101
 815 774 815 774 797 774 c 0,102,103
 796 774 796 774 793 774 c 0,104,105
 760 774 760 774 734 758 c 0,106,107
 707 740 707 740 680 722 c 0,108,109
 581 654 581 654 503 567 c 0,110,111
 425 481 425 481 376 372 c 1,78,79
993 1091 m 1,112,113
 998 1088 998 1088 1006 1080 c 0,114,115
 1013 1074 1013 1074 1018 1065 c 0,116,117
 1023 1057 1023 1057 1028 1048 c 0,118,119
 1032 1040 1032 1040 1032 1035 c 0,120,121
 1032 1008 1032 1008 1005 985 c 0,122,123
 978 963 978 963 930 962 c 0,124,125
 901 962 901 962 884 974 c 0,126,127
 868 984 868 984 854 997 c 0,128,129
 841 1010 841 1010 827 1022 c 0,130,131
 814 1034 814 1034 792 1034 c 0,132,133
 777 1034 777 1034 770 1023 c 0,134,135
 762 1013 762 1013 757 1001 c 0,136,137
 751 991 751 991 746 980 c 0,138,139
 742 970 742 970 736 970 c 0,140,141
 714 970 714 970 690 982 c 0,142,143
 667 993 667 993 664 1000 c 1,144,145
 677 1030 677 1030 688 1050 c 0,146,147
 698 1071 698 1071 711 1086 c 0,148,149
 725 1098 725 1098 748 1104 c 0,150,151
 770 1109 770 1109 806 1109 c 0,152,153
 833 1109 833 1109 849 1098 c 0,154,155
 864 1088 864 1088 876 1074 c 0,156,157
 888 1061 888 1061 898 1050 c 0,158,159
 909 1040 909 1040 928 1040 c 0,160,161
 954 1039 954 1039 968 1057 c 0,162,163
 983 1075 983 1075 993 1091 c 1,112,113
EndSplineSet
EndChar

StartChar: Adieresis
Encoding: 196 196 97
Width: 614
Flags: W
LayerCount: 2
Fore
SplineSet
448 916 m 0,0,1
 480 914 480 914 497 894 c 0,2,3
 515 875 515 875 515 845 c 0,4,5
 514 815 514 815 490 792 c 0,6,7
 468 770 468 770 439 770 c 0,8,9
 438 770 438 770 437 770 c 0,10,11
 406 770 406 770 387 790 c 0,12,13
 372 810 372 810 372 838 c 0,14,15
 372 840 372 840 372 842 c 0,16,17
 372 883 372 883 391 900 c 0,18,19
 411 916 411 916 448 916 c 0,0,1
815 909 m 0,20,21
 858 909 858 909 887 889 c 0,22,23
 916 870 916 870 932 837 c 0,24,25
 949 806 949 806 956 767 c 0,26,27
 961 729 961 729 961 694 c 0,28,29
 961 632 961 632 937 543 c 0,30,31
 913 455 913 455 878 363 c 0,32,33
 842 269 842 269 802 182 c 0,34,35
 763 96 763 96 731 40 c 0,36,37
 720 21 720 21 701 21 c 0,38,39
 680 21 680 21 662 18 c 0,40,41
 649 17 649 17 634 16 c 0,42,43
 621 13 621 13 608 13 c 0,44,45
 588 13 588 13 576 23 c 1,46,47
 576 39 576 39 584 52 c 0,48,49
 590 65 590 65 598 77 c 0,50,51
 625 120 625 120 647 164 c 0,52,53
 668 208 668 208 689 254 c 1,54,55
 598 254 598 254 508 251 c 0,56,57
 420 248 420 248 328 248 c 1,58,59
 320 203 320 203 320 157 c 0,60,61
 318 91 318 91 329 26 c 0,62,63
 341 -38 341 -38 352 -103 c 1,64,65
 321 -99 321 -99 286 -92 c 0,66,67
 251 -87 251 -87 220 -75 c 0,68,69
 203 -69 203 -69 202 -56 c 0,70,71
 200 -43 200 -43 199 -29 c 0,72,73
 196 17 196 17 187 61 c 0,74,75
 179 105 179 105 181 152 c 0,76,77
 181 176 181 176 185 200 c 0,78,79
 187 225 187 225 195 248 c 1,80,81
 150 254 150 254 104 252 c 0,82,83
 58 252 58 252 13 256 c 1,84,85
 21 278 21 278 31 300 c 0,86,87
 40 324 40 324 51 346 c 0,88,89
 55 354 55 354 61 363 c 0,90,91
 66 370 66 370 77 373 c 0,92,93
 110 378 110 378 147 374 c 0,94,95
 182 372 182 372 216 372 c 1,96,97
 242 438 242 438 281 504 c 0,98,99
 318 569 318 569 365 629 c 256,100,101
 412 689 412 689 468 740 c 0,102,103
 523 790 523 790 585 828 c 0,104,105
 634 858 634 858 696 884 c 0,106,107
 753 910 753 910 810 909 c 0,108,109
 812 909 812 909 815 909 c 0,20,21
359 377 m 1,110,111
 452 376 452 376 546 377 c 0,112,113
 640 380 640 380 732 376 c 1,114,115
 748 410 748 410 766 450 c 0,116,117
 783 489 783 489 796 530 c 0,118,119
 811 572 811 572 820 614 c 0,120,121
 829 655 829 655 829 694 c 0,122,123
 829 723 829 723 820 748 c 0,124,125
 811 772 811 772 776 774 c 0,126,127
 745 774 745 774 719 758 c 0,128,129
 694 742 694 742 670 727 c 0,130,131
 568 659 568 659 489 575 c 0,132,133
 410 490 410 490 359 377 c 1,110,111
1058 913 m 0,134,135
 1087 913 1087 913 1106 893 c 0,136,137
 1126 872 1126 872 1126 844 c 0,138,139
 1126 826 1126 826 1112 811 c 1,140,141
 1104 792 1104 792 1086 783 c 0,142,143
 1067 774 1067 774 1048 774 c 0,144,145
 1018 774 1018 774 1000 796 c 0,146,147
 983 815 983 815 983 841 c 0,148,149
 983 844 983 844 983 845 c 0,150,151
 983 884 983 884 1004 898 c 0,152,153
 1024 913 1024 913 1058 913 c 0,134,135
EndSplineSet
EndChar

StartChar: Aring
Encoding: 197 197 98
Width: 614
Flags: W
LayerCount: 2
Fore
SplineSet
833 909 m 0,0,1
 858 909 858 909 875 904 c 0,2,3
 890 897 890 897 909 880 c 0,4,5
 933 857 933 857 946 833 c 0,6,7
 959 810 959 810 965 783 c 0,8,9
 972 757 972 757 972 727 c 0,10,11
 974 698 974 698 974 667 c 0,12,13
 974 633 974 633 959 580 c 0,14,15
 946 528 946 528 926 463 c 0,16,17
 905 400 905 400 879 333 c 0,18,19
 852 265 852 265 824 203 c 0,20,21
 797 142 797 142 771 90 c 0,22,23
 745 39 745 39 725 8 c 1,24,25
 689 8 689 8 654 9 c 0,26,27
 618 9 618 9 581 13 c 1,28,29
 614 69 614 69 644 127 c 0,30,31
 673 185 673 185 696 247 c 1,32,33
 603 243 603 243 514 244 c 0,34,35
 424 244 424 244 333 238 c 1,36,37
 332 204 332 204 329 172 c 0,38,39
 326 138 326 138 326 104 c 0,40,41
 326 48 326 48 342 -3 c 0,42,43
 356 -53 356 -53 364 -108 c 1,44,45
 286 -100 286 -100 214 -75 c 1,46,47
 192 26 192 26 192 136 c 0,48,49
 192 164 192 164 195 190 c 0,50,51
 198 217 198 217 200 243 c 1,52,53
 153 243 153 243 107 243 c 0,54,55
 60 242 60 242 13 239 c 1,56,57
 25 274 25 274 44 303 c 0,58,59
 64 333 64 333 77 367 c 1,60,61
 127 367 127 367 226 367 c 1,62,63
 242 394 242 394 254 425 c 0,64,65
 264 455 264 455 280 484 c 0,66,67
 304 525 304 525 341 573 c 0,68,69
 377 621 377 621 421 670 c 0,70,71
 464 718 464 718 515 760 c 0,72,73
 564 803 564 803 618 837 c 0,74,75
 671 871 671 871 725 890 c 0,76,77
 780 909 780 909 833 909 c 0,0,1
376 372 m 1,78,79
 390 372 390 372 404 369 c 0,80,81
 420 367 420 367 434 365 c 0,82,83
 514 365 514 365 592 368 c 0,84,85
 668 370 668 370 748 370 c 1,86,87
 762 400 762 400 775 425 c 0,88,89
 789 448 789 448 796 481 c 0,90,91
 809 532 809 532 824 578 c 0,92,93
 841 625 841 625 841 679 c 0,94,95
 841 690 841 690 841 707 c 0,96,97
 840 724 840 724 836 738 c 0,98,99
 832 754 832 754 823 763 c 0,100,101
 815 774 815 774 797 774 c 0,102,103
 796 774 796 774 793 774 c 0,104,105
 760 774 760 774 734 758 c 0,106,107
 707 740 707 740 680 722 c 0,108,109
 581 654 581 654 503 567 c 0,110,111
 425 481 425 481 376 372 c 1,78,79
849 1086 m 0,112,113
 849 1080 849 1080 849 1075 c 0,114,115
 849 1061 849 1061 858 1049 c 0,116,117
 871 1036 871 1036 890 1036 c 0,118,119
 910 1036 910 1036 927 1049 c 0,120,121
 944 1063 944 1063 948 1086 c 0,122,123
 948 1088 948 1088 948 1092 c 0,124,125
 949 1108 949 1108 939 1119 c 0,126,127
 928 1134 928 1134 907 1134 c 0,128,129
 888 1134 888 1134 870 1119 c 0,130,131
 852 1105 852 1105 849 1086 c 0,112,113
776 1086 m 0,132,133
 780 1109 780 1109 794 1131 c 0,134,135
 810 1154 810 1154 829 1170 c 0,136,137
 849 1187 849 1187 874 1197 c 0,138,139
 897 1208 897 1208 923 1208 c 0,140,141
 948 1208 948 1208 967 1197 c 0,142,143
 988 1187 988 1187 1001 1170 c 0,144,145
 1015 1154 1015 1154 1020 1131 c 0,146,147
 1024 1118 1024 1118 1024 1105 c 0,148,149
 1024 1095 1024 1095 1022 1086 c 0,150,151
 1011 1034 1011 1034 970 997 c 0,152,153
 928 961 928 961 878 961 c 0,154,155
 852 961 852 961 831 970 c 0,156,157
 811 980 811 980 796 997 c 0,158,159
 783 1014 783 1014 777 1036 c 0,160,161
 774 1048 774 1048 774 1061 c 0,162,163
 774 1072 774 1072 776 1086 c 0,132,133
EndSplineSet
EndChar

StartChar: AE
Encoding: 198 198 99
Width: 614
Flags: W
LayerCount: 2
Fore
SplineSet
1280 924 m 0,0,1
 1309 924 1309 924 1336 916 c 0,2,3
 1365 909 1365 909 1386 893 c 0,4,5
 1408 878 1408 878 1422 854 c 0,6,7
 1435 831 1435 831 1435 798 c 0,8,9
 1435 755 1435 755 1421 711 c 0,10,11
 1405 668 1405 668 1375 637 c 0,12,13
 1332 595 1332 595 1283 558 c 0,14,15
 1234 520 1234 520 1182 489 c 1,16,17
 1152 506 1152 506 1121 519 c 0,18,19
 1091 533 1091 533 1061 547 c 1,20,21
 1091 572 1091 572 1130 599 c 0,22,23
 1169 625 1169 625 1206 654 c 0,24,25
 1243 682 1243 682 1274 715 c 256,26,27
 1305 748 1305 748 1317 786 c 1,28,29
 1294 794 1294 794 1270 794 c 0,30,31
 1239 794 1239 794 1204 786 c 0,32,33
 1169 777 1169 777 1134 763 c 0,34,35
 1101 750 1101 750 1069 732 c 0,36,37
 1037 715 1037 715 1013 698 c 0,38,39
 1001 688 1001 688 987 673 c 0,40,41
 972 659 972 659 958 641 c 0,42,43
 945 623 945 623 936 604 c 0,44,45
 928 586 928 586 928 569 c 0,46,47
 928 542 928 542 941 519 c 0,48,49
 954 497 954 497 970 477 c 0,50,51
 987 458 987 458 1001 441 c 0,52,53
 1014 424 1014 424 1014 406 c 0,54,55
 1014 391 1014 391 1005 376 c 256,56,57
 996 361 996 361 985 351 c 0,58,59
 962 333 962 333 935 316 c 0,60,61
 907 298 907 298 883 282 c 0,62,63
 827 244 827 244 772 209 c 0,64,65
 718 173 718 173 664 134 c 1,66,67
 806 133 806 133 946 134 c 0,68,69
 1088 134 1088 134 1228 136 c 1,70,71
 1221 103 1221 103 1201 72 c 0,72,73
 1180 42 1180 42 1160 14 c 0,74,75
 1149 1 1149 1 1130 0 c 0,76,77
 1112 -1 1112 -1 1096 -1 c 0,78,79
 954 0 954 0 670 1 c 0,80,81
 642 1 642 1 615 6 c 0,82,83
 588 10 588 10 564 22 c 0,84,85
 542 35 542 35 528 56 c 256,86,87
 514 77 514 77 514 110 c 0,88,89
 514 127 514 127 519 148 c 0,90,91
 523 168 523 168 532 182 c 0,92,93
 538 192 538 192 552 209 c 0,94,95
 568 225 568 225 592 243 c 1,96,97
 525 243 525 243 462 243 c 0,98,99
 396 242 396 242 333 238 c 1,100,101
 332 204 332 204 329 172 c 0,102,103
 326 138 326 138 326 104 c 0,104,105
 326 48 326 48 342 -3 c 0,106,107
 356 -53 356 -53 364 -108 c 1,108,109
 286 -100 286 -100 214 -75 c 1,110,111
 192 26 192 26 192 136 c 0,112,113
 192 164 192 164 195 190 c 0,114,115
 198 217 198 217 200 243 c 1,116,117
 153 243 153 243 107 243 c 0,118,119
 60 242 60 242 13 239 c 1,120,121
 25 274 25 274 44 303 c 0,122,123
 64 333 64 333 77 367 c 1,124,125
 127 367 127 367 226 367 c 1,126,127
 242 394 242 394 254 425 c 0,128,129
 264 455 264 455 280 484 c 0,130,131
 304 525 304 525 341 573 c 0,132,133
 377 621 377 621 421 670 c 0,134,135
 464 718 464 718 515 760 c 0,136,137
 564 803 564 803 618 837 c 0,138,139
 671 871 671 871 725 890 c 0,140,141
 780 909 780 909 833 909 c 0,142,143
 858 909 858 909 875 904 c 0,144,145
 890 897 890 897 909 880 c 0,146,147
 937 854 937 854 952 820 c 1,148,149
 991 845 991 845 1034 864 c 0,150,151
 1075 884 1075 884 1118 897 c 0,152,153
 1162 910 1162 910 1204 918 c 0,154,155
 1244 924 1244 924 1280 924 c 0,0,1
797 774 m 0,156,157
 796 774 796 774 793 774 c 0,158,159
 760 774 760 774 734 758 c 0,160,161
 707 740 707 740 680 722 c 0,162,163
 581 654 581 654 503 567 c 0,164,165
 425 481 425 481 376 372 c 1,166,167
 415 367 415 367 463 365 c 0,168,169
 511 364 511 364 560 364 c 0,170,171
 611 365 611 365 660 367 c 0,172,173
 711 369 711 369 757 369 c 1,174,175
 784 387 784 387 841 426 c 1,176,177
 832 450 832 450 823 465 c 0,178,179
 814 482 814 482 807 497 c 0,180,181
 800 511 800 511 796 530 c 256,182,183
 792 549 792 549 792 578 c 0,184,185
 792 618 792 618 805 653 c 0,186,187
 818 686 818 686 840 718 c 1,188,189
 837 738 837 738 828 757 c 0,190,191
 820 774 820 774 797 774 c 0,156,157
EndSplineSet
EndChar

StartChar: Ccedilla
Encoding: 199 199 100
Width: 614
Flags: W
LayerCount: 2
Fore
SplineSet
784 933 m 0,0,1
 848 933 848 933 889 896 c 0,2,3
 930 857 930 857 930 792 c 0,4,5
 930 746 930 746 907 701 c 0,6,7
 887 654 887 654 852 608 c 0,8,9
 819 563 819 563 774 520 c 256,10,11
 729 477 729 477 682 439 c 0,12,13
 637 402 637 402 594 370 c 0,14,15
 550 338 550 338 515 316 c 0,16,17
 504 309 504 309 493 303 c 0,18,19
 482 298 482 298 468 298 c 0,20,21
 433 298 433 298 389 311 c 0,22,23
 344 322 344 322 313 337 c 1,24,25
 347 359 347 359 386 378 c 0,26,27
 425 396 425 396 456 422 c 0,28,29
 473 436 473 436 488 448 c 0,30,31
 503 462 503 462 520 476 c 0,32,33
 550 499 550 499 585 526 c 0,34,35
 620 554 620 554 655 584 c 0,36,37
 689 612 689 612 720 645 c 0,38,39
 753 676 753 676 772 708 c 0,40,41
 783 727 783 727 785 748 c 0,42,43
 788 768 788 768 788 788 c 1,44,45
 777 792 777 792 767 794 c 0,46,47
 757 797 757 797 745 797 c 0,48,49
 715 797 715 797 689 786 c 0,50,51
 664 776 664 776 640 762 c 0,52,53
 566 722 566 722 491 668 c 0,54,55
 419 615 419 615 352 551 c 0,56,57
 289 488 289 488 238 413 c 0,58,59
 186 339 186 339 159 259 c 0,60,61
 152 240 152 240 152 226 c 0,62,63
 151 187 151 187 174 161 c 0,64,65
 199 135 199 135 237 134 c 0,66,67
 270 134 270 134 303 131 c 0,68,69
 337 129 337 129 372 129 c 0,70,71
 439 129 439 129 507 131 c 0,72,73
 573 134 573 134 642 133 c 1,74,75
 633 96 633 96 607 66 c 0,76,77
 581 38 581 38 562 6 c 1,78,79
 488 3 488 3 412 3 c 0,80,81
 338 1 338 1 264 1 c 0,82,83
 207 1 207 1 160 12 c 0,84,85
 113 22 113 22 81 48 c 0,86,87
 49 73 49 73 32 116 c 0,88,89
 14 157 14 157 14 221 c 0,90,91
 14 248 14 248 25 285 c 0,92,93
 36 320 36 320 52 354 c 0,94,95
 68 389 68 389 87 421 c 0,96,97
 105 454 105 454 121 477 c 0,98,99
 199 585 199 585 286 671 c 256,100,101
 373 757 373 757 485 827 c 0,102,103
 555 871 555 871 627 902 c 256,104,105
 699 933 699 933 784 933 c 0,0,1
462 12 m 1,106,107
 450 -3 450 -3 434 -13 c 0,108,109
 420 -23 420 -23 410 -40 c 1,110,111
 412 -52 412 -52 419 -60 c 0,112,113
 424 -66 424 -66 428 -73 c 0,114,115
 433 -79 433 -79 437 -88 c 0,116,117
 441 -96 441 -96 441 -108 c 0,118,119
 441 -112 441 -112 439 -118 c 0,120,121
 439 -125 439 -125 438 -133 c 0,122,123
 437 -142 437 -142 434 -148 c 0,124,125
 433 -156 433 -156 432 -159 c 0,126,127
 415 -191 415 -191 393 -207 c 0,128,129
 370 -221 370 -221 343 -225 c 0,130,131
 324 -229 324 -229 300 -229 c 0,132,133
 295 -229 295 -229 289 -229 c 0,134,135
 260 -228 260 -228 230 -229 c 1,136,137
 233 -224 233 -224 238 -213 c 0,138,139
 242 -203 242 -203 247 -190 c 0,140,141
 254 -178 254 -178 259 -169 c 0,142,143
 265 -160 265 -160 272 -159 c 0,144,145
 286 -155 286 -155 302 -156 c 0,146,147
 318 -159 318 -159 330 -157 c 0,148,149
 343 -156 343 -156 352 -147 c 0,150,151
 361 -136 361 -136 361 -110 c 0,152,153
 361 -98 361 -98 354 -87 c 0,154,155
 346 -75 346 -75 337 -68 c 0,156,157
 329 -60 329 -60 321 -55 c 0,158,159
 315 -49 315 -49 315 -44 c 256,160,161
 315 -39 315 -39 321 -31 c 0,162,163
 329 -22 329 -22 338 -14 c 0,164,165
 347 -8 347 -8 358 -3 c 0,166,167
 368 3 368 3 373 4 c 0,168,169
 382 6 382 6 386 10 c 0,170,171
 391 13 391 13 400 13 c 0,172,173
 411 13 411 13 432 14 c 0,174,175
 436 14 436 14 439 14 c 0,176,177
 454 14 454 14 462 12 c 1,106,107
EndSplineSet
EndChar

StartChar: Egrave
Encoding: 200 200 101
Width: 614
Flags: W
LayerCount: 2
Fore
SplineSet
780 924 m 0,0,1
 809 924 809 924 836 916 c 0,2,3
 864 909 864 909 885 893 c 0,4,5
 907 878 907 878 922 854 c 0,6,7
 935 831 935 831 935 798 c 0,8,9
 935 755 935 755 920 711 c 0,10,11
 905 668 905 668 875 637 c 0,12,13
 832 595 832 595 783 558 c 0,14,15
 733 520 733 520 681 489 c 1,16,17
 651 506 651 506 620 519 c 0,18,19
 590 533 590 533 560 547 c 1,20,21
 590 572 590 572 629 599 c 0,22,23
 668 625 668 625 706 654 c 0,24,25
 742 682 742 682 774 715 c 0,26,27
 803 748 803 748 816 786 c 1,28,29
 793 794 793 794 770 794 c 0,30,31
 738 794 738 794 703 786 c 0,32,33
 668 777 668 777 633 763 c 0,34,35
 601 750 601 750 568 732 c 0,36,37
 537 715 537 715 512 698 c 0,38,39
 500 688 500 688 486 673 c 0,40,41
 471 659 471 659 458 641 c 256,42,43
 445 623 445 623 436 604 c 0,44,45
 428 586 428 586 428 569 c 0,46,47
 428 542 428 542 441 519 c 0,48,49
 454 497 454 497 469 477 c 0,50,51
 486 458 486 458 500 441 c 256,52,53
 514 424 514 424 514 406 c 0,54,55
 514 391 514 391 504 376 c 0,56,57
 495 361 495 361 485 351 c 0,58,59
 462 333 462 333 434 316 c 0,60,61
 407 298 407 298 382 282 c 0,62,63
 326 244 326 244 272 209 c 0,64,65
 217 173 217 173 164 134 c 1,66,67
 304 133 304 133 446 134 c 0,68,69
 588 134 588 134 728 136 c 1,70,71
 720 103 720 103 701 72 c 0,72,73
 680 42 680 42 659 14 c 0,74,75
 649 1 649 1 629 0 c 0,76,77
 611 -1 611 -1 595 -1 c 0,78,79
 454 0 454 0 169 1 c 0,80,81
 142 1 142 1 114 6 c 0,82,83
 87 10 87 10 64 22 c 0,84,85
 42 35 42 35 27 56 c 0,86,87
 13 77 13 77 13 110 c 0,88,89
 13 127 13 127 18 148 c 0,90,91
 22 168 22 168 31 182 c 0,92,93
 43 204 43 204 84 238 c 0,94,95
 125 273 125 273 173 309 c 0,96,97
 222 346 222 346 269 378 c 0,98,99
 317 410 317 410 341 426 c 1,100,101
 332 450 332 450 322 465 c 0,102,103
 313 482 313 482 307 497 c 0,104,105
 299 511 299 511 295 530 c 256,106,107
 291 549 291 549 291 578 c 0,108,109
 291 630 291 630 316 677 c 0,110,111
 339 724 339 724 378 762 c 0,112,113
 419 800 419 800 468 829 c 0,114,115
 519 861 519 861 573 881 c 0,116,117
 628 902 628 902 681 913 c 256,118,119
 734 924 734 924 780 924 c 0,0,1
772 936 m 1,120,121
 758 936 758 936 716 935 c 1,122,123
 663 982 663 982 503 1124 c 1,124,125
 540 1124 540 1124 651 1122 c 1,126,127
 681 1075 681 1075 772 936 c 1,120,121
EndSplineSet
EndChar

StartChar: Eacute
Encoding: 201 201 102
Width: 614
Flags: W
LayerCount: 2
Fore
SplineSet
780 924 m 0,0,1
 809 924 809 924 836 916 c 0,2,3
 864 909 864 909 885 893 c 0,4,5
 907 878 907 878 922 854 c 0,6,7
 935 831 935 831 935 798 c 0,8,9
 935 755 935 755 920 711 c 0,10,11
 905 668 905 668 875 637 c 0,12,13
 832 595 832 595 783 558 c 0,14,15
 733 520 733 520 681 489 c 1,16,17
 651 506 651 506 620 519 c 0,18,19
 590 533 590 533 560 547 c 1,20,21
 590 572 590 572 629 599 c 0,22,23
 668 625 668 625 706 654 c 0,24,25
 742 682 742 682 774 715 c 0,26,27
 803 748 803 748 816 786 c 1,28,29
 793 794 793 794 770 794 c 0,30,31
 738 794 738 794 703 786 c 0,32,33
 668 777 668 777 633 763 c 0,34,35
 601 750 601 750 568 732 c 0,36,37
 537 715 537 715 512 698 c 0,38,39
 500 688 500 688 486 673 c 0,40,41
 471 659 471 659 458 641 c 256,42,43
 445 623 445 623 436 604 c 0,44,45
 428 586 428 586 428 569 c 0,46,47
 428 542 428 542 441 519 c 0,48,49
 454 497 454 497 469 477 c 0,50,51
 486 458 486 458 500 441 c 256,52,53
 514 424 514 424 514 406 c 0,54,55
 514 391 514 391 504 376 c 0,56,57
 495 361 495 361 485 351 c 0,58,59
 462 333 462 333 434 316 c 0,60,61
 407 298 407 298 382 282 c 0,62,63
 326 244 326 244 272 209 c 0,64,65
 217 173 217 173 164 134 c 1,66,67
 304 133 304 133 446 134 c 0,68,69
 588 134 588 134 728 136 c 1,70,71
 720 103 720 103 701 72 c 0,72,73
 680 42 680 42 659 14 c 0,74,75
 649 1 649 1 629 0 c 0,76,77
 611 -1 611 -1 595 -1 c 0,78,79
 454 0 454 0 169 1 c 0,80,81
 142 1 142 1 114 6 c 0,82,83
 87 10 87 10 64 22 c 0,84,85
 42 35 42 35 27 56 c 0,86,87
 13 77 13 77 13 110 c 0,88,89
 13 127 13 127 18 148 c 0,90,91
 22 168 22 168 31 182 c 0,92,93
 43 204 43 204 84 238 c 0,94,95
 125 273 125 273 173 309 c 0,96,97
 222 346 222 346 269 378 c 0,98,99
 317 410 317 410 341 426 c 1,100,101
 332 450 332 450 322 465 c 0,102,103
 313 482 313 482 307 497 c 0,104,105
 299 511 299 511 295 530 c 256,106,107
 291 549 291 549 291 578 c 0,108,109
 291 630 291 630 316 677 c 0,110,111
 339 724 339 724 378 762 c 0,112,113
 419 800 419 800 468 829 c 0,114,115
 519 861 519 861 573 881 c 0,116,117
 628 902 628 902 681 913 c 256,118,119
 734 924 734 924 780 924 c 0,0,1
958 1123 m 1,120,121
 996 1124 996 1124 1106 1126 c 1,122,123
 1053 1079 1053 1079 893 936 c 1,124,125
 879 936 879 936 837 937 c 1,126,127
 867 984 867 984 958 1123 c 1,120,121
EndSplineSet
EndChar

StartChar: Ecircumflex
Encoding: 202 202 103
Width: 614
Flags: W
LayerCount: 2
Fore
SplineSet
780 924 m 0,0,1
 809 924 809 924 836 916 c 0,2,3
 864 909 864 909 885 893 c 0,4,5
 907 878 907 878 922 854 c 0,6,7
 935 831 935 831 935 798 c 0,8,9
 935 755 935 755 920 711 c 0,10,11
 905 668 905 668 875 637 c 0,12,13
 832 595 832 595 783 558 c 0,14,15
 733 520 733 520 681 489 c 1,16,17
 651 506 651 506 620 519 c 0,18,19
 590 533 590 533 560 547 c 1,20,21
 590 572 590 572 629 599 c 0,22,23
 668 625 668 625 706 654 c 0,24,25
 742 682 742 682 774 715 c 0,26,27
 803 748 803 748 816 786 c 1,28,29
 793 794 793 794 770 794 c 0,30,31
 738 794 738 794 703 786 c 0,32,33
 668 777 668 777 633 763 c 0,34,35
 601 750 601 750 568 732 c 0,36,37
 537 715 537 715 512 698 c 0,38,39
 500 688 500 688 486 673 c 0,40,41
 471 659 471 659 458 641 c 256,42,43
 445 623 445 623 436 604 c 0,44,45
 428 586 428 586 428 569 c 0,46,47
 428 542 428 542 441 519 c 0,48,49
 454 497 454 497 469 477 c 0,50,51
 486 458 486 458 500 441 c 256,52,53
 514 424 514 424 514 406 c 0,54,55
 514 391 514 391 504 376 c 0,56,57
 495 361 495 361 485 351 c 0,58,59
 462 333 462 333 434 316 c 0,60,61
 407 298 407 298 382 282 c 0,62,63
 326 244 326 244 272 209 c 0,64,65
 217 173 217 173 164 134 c 1,66,67
 304 133 304 133 446 134 c 0,68,69
 588 134 588 134 728 136 c 1,70,71
 720 103 720 103 701 72 c 0,72,73
 680 42 680 42 659 14 c 0,74,75
 649 1 649 1 629 0 c 0,76,77
 611 -1 611 -1 595 -1 c 0,78,79
 454 0 454 0 169 1 c 0,80,81
 142 1 142 1 114 6 c 0,82,83
 87 10 87 10 64 22 c 0,84,85
 42 35 42 35 27 56 c 0,86,87
 13 77 13 77 13 110 c 0,88,89
 13 127 13 127 18 148 c 0,90,91
 22 168 22 168 31 182 c 0,92,93
 43 204 43 204 84 238 c 0,94,95
 125 273 125 273 173 309 c 0,96,97
 222 346 222 346 269 378 c 0,98,99
 317 410 317 410 341 426 c 1,100,101
 332 450 332 450 322 465 c 0,102,103
 313 482 313 482 307 497 c 0,104,105
 299 511 299 511 295 530 c 256,106,107
 291 549 291 549 291 578 c 0,108,109
 291 630 291 630 316 677 c 0,110,111
 339 724 339 724 378 762 c 0,112,113
 419 800 419 800 468 829 c 0,114,115
 519 861 519 861 573 881 c 0,116,117
 628 902 628 902 681 913 c 256,118,119
 734 924 734 924 780 924 c 0,0,1
734 1089 m 0,120,121
 736 1089 736 1089 740 1093 c 1,122,123
 774 1093 774 1093 875 1093 c 1,124,125
 875 1092 875 1092 878 1089 c 0,126,127
 894 1048 894 1048 948 927 c 1,128,129
 937 926 937 926 905 926 c 1,130,131
 876 949 876 949 790 1019 c 1,132,133
 754 996 754 996 644 926 c 1,134,135
 633 926 633 926 603 927 c 1,136,137
 636 967 636 967 734 1089 c 0,120,121
EndSplineSet
EndChar

StartChar: Edieresis
Encoding: 203 203 104
Width: 614
Flags: W
LayerCount: 2
Fore
SplineSet
445 1027 m 0,0,1
 481 1027 481 1027 502 1004 c 0,2,3
 521 980 521 980 521 945 c 0,4,5
 521 907 521 907 498 889 c 0,6,7
 476 870 476 870 439 870 c 0,8,9
 404 870 404 870 386 892 c 0,10,11
 369 913 369 913 369 948 c 256,12,13
 369 983 369 983 389 1005 c 0,14,15
 408 1027 408 1027 445 1027 c 0,0,1
1014 982 m 0,16,17
 1050 982 1050 982 1071 957 c 256,18,19
 1092 932 1092 932 1092 897 c 0,20,21
 1092 863 1092 863 1070 844 c 0,22,23
 1048 824 1048 824 1013 824 c 0,24,25
 982 824 982 824 959 848 c 0,26,27
 939 872 939 872 939 904 c 0,28,29
 939 935 939 935 961 958 c 0,30,31
 984 982 984 982 1014 982 c 0,16,17
780 924 m 0,32,33
 809 924 809 924 836 916 c 0,34,35
 864 909 864 909 885 893 c 0,36,37
 907 878 907 878 922 854 c 0,38,39
 935 831 935 831 935 798 c 0,40,41
 935 755 935 755 920 711 c 0,42,43
 905 668 905 668 875 637 c 0,44,45
 832 595 832 595 783 558 c 0,46,47
 733 520 733 520 681 489 c 1,48,49
 651 506 651 506 620 519 c 0,50,51
 590 533 590 533 560 547 c 1,52,53
 590 572 590 572 629 599 c 0,54,55
 668 625 668 625 706 654 c 0,56,57
 742 682 742 682 774 715 c 0,58,59
 803 748 803 748 816 786 c 1,60,61
 793 794 793 794 770 794 c 0,62,63
 738 794 738 794 703 786 c 0,64,65
 668 777 668 777 633 763 c 0,66,67
 601 750 601 750 568 732 c 0,68,69
 537 715 537 715 512 698 c 0,70,71
 500 688 500 688 486 673 c 0,72,73
 471 659 471 659 458 641 c 256,74,75
 445 623 445 623 436 604 c 0,76,77
 428 586 428 586 428 569 c 0,78,79
 428 542 428 542 441 519 c 0,80,81
 454 497 454 497 469 477 c 0,82,83
 486 458 486 458 500 441 c 256,84,85
 514 424 514 424 514 406 c 0,86,87
 514 391 514 391 504 376 c 0,88,89
 495 361 495 361 485 351 c 0,90,91
 462 333 462 333 434 316 c 0,92,93
 407 298 407 298 382 282 c 0,94,95
 326 244 326 244 272 209 c 0,96,97
 217 173 217 173 164 134 c 1,98,99
 304 133 304 133 446 134 c 0,100,101
 588 134 588 134 728 136 c 1,102,103
 720 103 720 103 701 72 c 0,104,105
 680 42 680 42 659 14 c 0,106,107
 649 1 649 1 629 0 c 0,108,109
 611 -1 611 -1 595 -1 c 0,110,111
 454 0 454 0 169 1 c 0,112,113
 142 1 142 1 114 6 c 0,114,115
 87 10 87 10 64 22 c 0,116,117
 42 35 42 35 27 56 c 0,118,119
 13 77 13 77 13 110 c 0,120,121
 13 127 13 127 18 148 c 0,122,123
 22 168 22 168 31 182 c 0,124,125
 43 204 43 204 84 238 c 0,126,127
 125 273 125 273 173 309 c 0,128,129
 222 346 222 346 269 378 c 0,130,131
 317 410 317 410 341 426 c 1,132,133
 332 450 332 450 322 465 c 0,134,135
 313 482 313 482 307 497 c 0,136,137
 299 511 299 511 295 530 c 256,138,139
 291 549 291 549 291 578 c 0,140,141
 291 630 291 630 316 677 c 0,142,143
 339 724 339 724 378 762 c 0,144,145
 419 800 419 800 468 829 c 0,146,147
 519 861 519 861 573 881 c 0,148,149
 628 902 628 902 681 913 c 256,150,151
 734 924 734 924 780 924 c 0,32,33
EndSplineSet
EndChar

StartChar: Igrave
Encoding: 204 204 105
Width: 614
Flags: W
LayerCount: 2
Fore
SplineSet
890 939 m 0,0,1
 939 939 939 939 968 904 c 0,2,3
 998 870 998 870 998 823 c 0,4,5
 998 800 998 800 984 754 c 256,6,7
 970 708 970 708 950 656 c 0,8,9
 932 604 932 604 913 558 c 0,10,11
 893 510 893 510 883 486 c 0,12,13
 852 412 852 412 820 338 c 0,14,15
 788 263 788 263 742 198 c 0,16,17
 698 133 698 133 636 87 c 0,18,19
 575 40 575 40 488 23 c 0,20,21
 443 16 443 16 398 13 c 0,22,23
 351 10 351 10 307 8 c 0,24,25
 160 4 160 4 13 4 c 1,26,27
 25 44 25 44 52 75 c 0,28,29
 78 107 78 107 99 143 c 1,30,31
 166 143 166 143 234 144 c 0,32,33
 300 146 300 146 369 146 c 0,34,35
 429 146 429 146 474 157 c 0,36,37
 520 169 520 169 568 205 c 0,38,39
 603 230 603 230 625 257 c 0,40,41
 647 285 647 285 663 315 c 0,42,43
 680 344 680 344 694 378 c 0,44,45
 707 411 707 411 723 448 c 0,46,47
 755 519 755 519 784 589 c 0,48,49
 814 659 814 659 841 731 c 0,50,51
 842 742 842 742 846 755 c 0,52,53
 849 767 849 767 849 779 c 0,54,55
 849 794 849 794 836 800 c 1,56,57
 807 800 807 800 777 789 c 0,58,59
 746 777 746 777 719 760 c 0,60,61
 690 742 690 742 664 723 c 0,62,63
 640 702 640 702 618 684 c 0,64,65
 606 673 606 673 581 650 c 0,66,67
 556 625 556 625 532 598 c 0,68,69
 506 571 506 571 486 545 c 0,70,71
 467 517 467 517 467 503 c 0,72,73
 467 464 467 464 488 430 c 0,74,75
 508 395 508 395 532 365 c 1,76,77
 506 335 506 335 481 309 c 0,78,79
 455 282 455 282 430 254 c 1,80,81
 395 309 395 309 367 370 c 0,82,83
 338 432 338 432 338 499 c 0,84,85
 338 516 338 516 342 537 c 0,86,87
 344 556 344 556 351 572 c 0,88,89
 367 610 367 610 396 650 c 0,90,91
 428 689 428 689 467 728 c 0,92,93
 507 767 507 767 554 801 c 0,94,95
 602 836 602 836 650 863 c 0,96,97
 699 890 699 890 745 909 c 0,98,99
 792 928 792 928 832 933 c 0,100,101
 846 936 846 936 862 937 c 0,102,103
 876 939 876 939 890 939 c 0,0,1
788 944 m 1,104,105
 774 944 774 944 732 942 c 1,106,107
 679 991 679 991 519 1132 c 1,108,109
 556 1132 556 1132 667 1130 c 1,110,111
 697 1084 697 1084 788 944 c 1,104,105
EndSplineSet
EndChar

StartChar: Iacute
Encoding: 205 205 106
Width: 614
Flags: W
LayerCount: 2
Fore
SplineSet
890 939 m 0,0,1
 939 939 939 939 968 904 c 0,2,3
 998 870 998 870 998 823 c 0,4,5
 998 800 998 800 984 754 c 256,6,7
 970 708 970 708 950 656 c 0,8,9
 932 604 932 604 913 558 c 0,10,11
 893 510 893 510 883 486 c 0,12,13
 852 412 852 412 820 338 c 0,14,15
 788 263 788 263 742 198 c 0,16,17
 698 133 698 133 636 87 c 0,18,19
 575 40 575 40 488 23 c 0,20,21
 443 16 443 16 398 13 c 0,22,23
 351 10 351 10 307 8 c 0,24,25
 160 4 160 4 13 4 c 1,26,27
 25 44 25 44 52 75 c 0,28,29
 78 107 78 107 99 143 c 1,30,31
 166 143 166 143 234 144 c 0,32,33
 300 146 300 146 369 146 c 0,34,35
 429 146 429 146 474 157 c 0,36,37
 520 169 520 169 568 205 c 0,38,39
 603 230 603 230 625 257 c 0,40,41
 647 285 647 285 663 315 c 0,42,43
 680 344 680 344 694 378 c 0,44,45
 707 411 707 411 723 448 c 0,46,47
 755 519 755 519 784 589 c 0,48,49
 814 659 814 659 841 731 c 0,50,51
 842 742 842 742 846 755 c 0,52,53
 849 767 849 767 849 779 c 0,54,55
 849 794 849 794 836 800 c 1,56,57
 807 800 807 800 777 789 c 0,58,59
 746 777 746 777 719 760 c 0,60,61
 690 742 690 742 664 723 c 0,62,63
 640 702 640 702 618 684 c 0,64,65
 606 673 606 673 581 650 c 0,66,67
 556 625 556 625 532 598 c 0,68,69
 506 571 506 571 486 545 c 0,70,71
 467 517 467 517 467 503 c 0,72,73
 467 464 467 464 488 430 c 0,74,75
 508 395 508 395 532 365 c 1,76,77
 506 335 506 335 481 309 c 0,78,79
 455 282 455 282 430 254 c 1,80,81
 395 309 395 309 367 370 c 0,82,83
 338 432 338 432 338 499 c 0,84,85
 338 516 338 516 342 537 c 0,86,87
 344 556 344 556 351 572 c 0,88,89
 367 610 367 610 396 650 c 0,90,91
 428 689 428 689 467 728 c 0,92,93
 507 767 507 767 554 801 c 0,94,95
 602 836 602 836 650 863 c 0,96,97
 699 890 699 890 745 909 c 0,98,99
 792 928 792 928 832 933 c 0,100,101
 846 936 846 936 862 937 c 0,102,103
 876 939 876 939 890 939 c 0,0,1
994 1153 m 1,104,105
 1031 1153 1031 1153 1143 1156 c 1,106,107
 1089 1108 1089 1108 930 965 c 1,108,109
 915 966 915 966 874 966 c 1,110,111
 904 1013 904 1013 994 1153 c 1,104,105
EndSplineSet
EndChar

StartChar: Icircumflex
Encoding: 206 206 107
Width: 614
Flags: W
LayerCount: 2
Fore
SplineSet
890 939 m 0,0,1
 939 939 939 939 968 904 c 0,2,3
 998 870 998 870 998 823 c 0,4,5
 998 800 998 800 984 754 c 256,6,7
 970 708 970 708 950 656 c 0,8,9
 932 604 932 604 913 558 c 0,10,11
 893 510 893 510 883 486 c 0,12,13
 852 412 852 412 820 338 c 0,14,15
 788 263 788 263 742 198 c 0,16,17
 698 133 698 133 636 87 c 0,18,19
 575 40 575 40 488 23 c 0,20,21
 443 16 443 16 398 13 c 0,22,23
 351 10 351 10 307 8 c 0,24,25
 160 4 160 4 13 4 c 1,26,27
 25 44 25 44 52 75 c 0,28,29
 78 107 78 107 99 143 c 1,30,31
 166 143 166 143 234 144 c 0,32,33
 300 146 300 146 369 146 c 0,34,35
 429 146 429 146 474 157 c 0,36,37
 520 169 520 169 568 205 c 0,38,39
 603 230 603 230 625 257 c 0,40,41
 647 285 647 285 663 315 c 0,42,43
 680 344 680 344 694 378 c 0,44,45
 707 411 707 411 723 448 c 0,46,47
 755 519 755 519 784 589 c 0,48,49
 814 659 814 659 841 731 c 0,50,51
 842 742 842 742 846 755 c 0,52,53
 849 767 849 767 849 779 c 0,54,55
 849 794 849 794 836 800 c 1,56,57
 807 800 807 800 777 789 c 0,58,59
 746 777 746 777 719 760 c 0,60,61
 690 742 690 742 664 723 c 0,62,63
 640 702 640 702 618 684 c 0,64,65
 606 673 606 673 581 650 c 0,66,67
 556 625 556 625 532 598 c 0,68,69
 506 571 506 571 486 545 c 0,70,71
 467 517 467 517 467 503 c 0,72,73
 467 464 467 464 488 430 c 0,74,75
 508 395 508 395 532 365 c 1,76,77
 506 335 506 335 481 309 c 0,78,79
 455 282 455 282 430 254 c 1,80,81
 395 309 395 309 367 370 c 0,82,83
 338 432 338 432 338 499 c 0,84,85
 338 516 338 516 342 537 c 0,86,87
 344 556 344 556 351 572 c 0,88,89
 367 610 367 610 396 650 c 0,90,91
 428 689 428 689 467 728 c 0,92,93
 507 767 507 767 554 801 c 0,94,95
 602 836 602 836 650 863 c 0,96,97
 699 890 699 890 745 909 c 0,98,99
 792 928 792 928 832 933 c 0,100,101
 846 936 846 936 862 937 c 0,102,103
 876 939 876 939 890 939 c 0,0,1
848 1104 m 0,104,105
 849 1105 849 1105 853 1108 c 0,106,107
 887 1108 887 1108 988 1108 c 1,108,109
 988 1106 988 1106 991 1104 c 0,110,111
 1008 1063 1008 1063 1061 941 c 1,112,113
 1050 941 1050 941 1018 940 c 1,114,115
 989 963 989 963 904 1035 c 1,116,117
 867 1010 867 1010 757 940 c 1,118,119
 746 940 746 940 716 941 c 1,120,121
 749 982 749 982 848 1104 c 0,104,105
EndSplineSet
EndChar

StartChar: Idieresis
Encoding: 207 207 108
Width: 614
Flags: W
LayerCount: 2
Fore
SplineSet
890 939 m 0,0,1
 939 939 939 939 968 904 c 0,2,3
 998 870 998 870 998 823 c 0,4,5
 998 800 998 800 984 754 c 256,6,7
 970 708 970 708 950 656 c 0,8,9
 932 604 932 604 913 558 c 0,10,11
 893 510 893 510 883 486 c 0,12,13
 852 412 852 412 820 338 c 0,14,15
 788 263 788 263 742 198 c 0,16,17
 698 133 698 133 636 87 c 0,18,19
 575 40 575 40 488 23 c 0,20,21
 443 16 443 16 398 13 c 0,22,23
 351 10 351 10 307 8 c 0,24,25
 160 4 160 4 13 4 c 1,26,27
 25 44 25 44 52 75 c 0,28,29
 78 107 78 107 99 143 c 1,30,31
 166 143 166 143 234 144 c 0,32,33
 300 146 300 146 369 146 c 0,34,35
 429 146 429 146 474 157 c 0,36,37
 520 169 520 169 568 205 c 0,38,39
 603 230 603 230 625 257 c 0,40,41
 647 285 647 285 663 315 c 0,42,43
 680 344 680 344 694 378 c 0,44,45
 707 411 707 411 723 448 c 0,46,47
 755 519 755 519 784 589 c 0,48,49
 814 659 814 659 841 731 c 0,50,51
 842 742 842 742 846 755 c 0,52,53
 849 767 849 767 849 779 c 0,54,55
 849 794 849 794 836 800 c 1,56,57
 807 800 807 800 777 789 c 0,58,59
 746 777 746 777 719 760 c 0,60,61
 690 742 690 742 664 723 c 0,62,63
 640 702 640 702 618 684 c 0,64,65
 606 673 606 673 581 650 c 0,66,67
 556 625 556 625 532 598 c 0,68,69
 506 571 506 571 486 545 c 0,70,71
 467 517 467 517 467 503 c 0,72,73
 467 464 467 464 488 430 c 0,74,75
 508 395 508 395 532 365 c 1,76,77
 506 335 506 335 481 309 c 0,78,79
 455 282 455 282 430 254 c 1,80,81
 395 309 395 309 367 370 c 0,82,83
 338 432 338 432 338 499 c 0,84,85
 338 516 338 516 342 537 c 0,86,87
 344 556 344 556 351 572 c 0,88,89
 367 610 367 610 396 650 c 0,90,91
 428 689 428 689 467 728 c 0,92,93
 507 767 507 767 554 801 c 0,94,95
 602 836 602 836 650 863 c 0,96,97
 699 890 699 890 745 909 c 0,98,99
 792 928 792 928 832 933 c 0,100,101
 846 936 846 936 862 937 c 0,102,103
 876 939 876 939 890 939 c 0,0,1
790 1110 m 0,104,105
 827 1110 827 1110 848 1087 c 0,106,107
 868 1063 868 1063 868 1030 c 0,108,109
 868 992 868 992 845 972 c 0,110,111
 822 953 822 953 785 953 c 0,112,113
 751 953 751 953 733 975 c 256,114,115
 715 997 715 997 715 1032 c 0,116,117
 715 1066 715 1066 734 1088 c 0,118,119
 755 1110 755 1110 790 1110 c 0,104,105
997 1110 m 0,120,121
 1034 1110 1034 1110 1053 1086 c 0,122,123
 1074 1061 1074 1061 1074 1027 c 0,124,125
 1074 992 1074 992 1052 972 c 0,126,127
 1031 953 1031 953 996 953 c 0,128,129
 963 953 963 953 942 978 c 0,130,131
 922 1001 922 1001 922 1034 c 0,132,133
 922 1063 922 1063 944 1087 c 0,134,135
 966 1110 966 1110 997 1110 c 0,120,121
EndSplineSet
EndChar

StartChar: Eth
Encoding: 208 208 109
Width: 614
Flags: W
LayerCount: 2
Fore
SplineSet
51 451 m 1,0,1
 75 451 75 451 148 451 c 1,2,3
 159 484 159 484 172 515 c 0,4,5
 183 546 183 546 203 573 c 0,6,7
 211 588 211 588 233 598 c 0,8,9
 256 608 256 608 282 615 c 0,10,11
 309 621 309 621 335 625 c 0,12,13
 363 629 363 629 378 630 c 1,14,15
 359 598 359 598 337 551 c 256,16,17
 315 504 315 504 291 451 c 1,18,19
 341 451 341 451 441 451 c 1,20,21
 430 424 430 424 398 339 c 1,22,23
 360 339 360 339 247 339 c 1,24,25
 225 281 225 281 208 229 c 0,26,27
 191 176 191 176 183 136 c 1,28,29
 263 156 263 156 337 198 c 0,30,31
 410 238 410 238 478 280 c 0,32,33
 528 311 528 311 589 361 c 0,34,35
 651 411 651 411 706 473 c 0,36,37
 762 536 762 536 798 602 c 0,38,39
 836 668 836 668 836 731 c 0,40,41
 836 748 836 748 826 758 c 256,42,43
 816 768 816 768 801 774 c 0,44,45
 788 779 788 779 772 780 c 0,46,47
 757 781 757 781 744 781 c 0,48,49
 705 783 705 783 667 772 c 0,50,51
 629 763 629 763 592 754 c 0,52,53
 489 729 489 729 390 702 c 0,54,55
 291 673 291 673 191 637 c 0,56,57
 157 624 157 624 124 607 c 0,58,59
 90 592 90 592 53 578 c 1,60,61
 53 662 53 662 86 733 c 1,62,63
 100 748 100 748 121 757 c 0,64,65
 142 764 142 764 160 771 c 0,66,67
 234 794 234 794 311 819 c 0,68,69
 387 842 387 842 464 863 c 0,70,71
 543 883 543 883 621 896 c 0,72,73
 701 909 701 909 779 911 c 0,74,75
 784 911 784 911 793 911 c 0,76,77
 874 911 874 911 923 863 c 0,78,79
 974 814 974 814 974 733 c 0,80,81
 974 696 974 696 959 651 c 0,82,83
 945 607 945 607 924 564 c 0,84,85
 902 521 902 521 876 484 c 0,86,87
 849 445 849 445 824 417 c 0,88,89
 785 373 785 373 748 328 c 0,90,91
 711 282 711 282 664 247 c 0,92,93
 625 218 625 218 571 182 c 0,94,95
 516 146 516 146 456 110 c 0,96,97
 398 75 398 75 341 48 c 0,98,99
 282 21 282 21 237 9 c 0,100,101
 198 -1 198 -1 151 -6 c 0,102,103
 104 -12 104 -12 61 -12 c 0,104,105
 58 -12 58 -12 51 -9 c 256,106,107
 44 -6 44 -6 36 -3 c 0,108,109
 30 1 30 1 22 5 c 0,110,111
 16 8 16 8 13 9 c 0,112,113
 23 95 23 95 53 176 c 0,114,115
 84 257 84 257 112 339 c 1,116,117
 77 339 77 339 8 339 c 1,118,119
 18 368 18 368 51 451 c 1,0,1
EndSplineSet
EndChar

StartChar: Ntilde
Encoding: 209 209 110
Width: 614
Flags: W
LayerCount: 2
Fore
SplineSet
1076 942 m 1,0,1
 1083 935 1083 935 1096 916 c 256,2,3
 1109 897 1109 897 1122 876 c 0,4,5
 1136 855 1136 855 1147 837 c 0,6,7
 1157 819 1157 819 1157 811 c 0,8,9
 1157 796 1157 796 1152 784 c 256,10,11
 1147 772 1147 772 1140 762 c 0,12,13
 1101 680 1101 680 1060 601 c 0,14,15
 1018 521 1018 521 972 446 c 0,16,17
 926 372 926 372 872 299 c 0,18,19
 820 228 820 228 759 161 c 0,20,21
 742 143 742 143 718 114 c 0,22,23
 692 87 692 87 663 58 c 0,24,25
 633 32 633 32 603 13 c 256,26,27
 573 -6 573 -6 550 -6 c 0,28,29
 532 -6 532 -6 520 6 c 0,30,31
 510 20 510 20 504 38 c 0,32,33
 500 56 500 56 500 75 c 0,34,35
 499 96 499 96 499 110 c 0,36,37
 499 165 499 165 508 218 c 0,38,39
 516 273 516 273 528 326 c 0,40,41
 540 380 540 380 550 432 c 0,42,43
 562 485 562 485 569 540 c 1,44,45
 542 504 542 504 519 465 c 0,46,47
 497 428 497 428 473 391 c 0,48,49
 381 244 381 244 272 110 c 0,50,51
 259 92 259 92 244 74 c 0,52,53
 230 56 230 56 216 40 c 0,54,55
 204 26 204 26 191 16 c 0,56,57
 178 4 178 4 160 1 c 0,58,59
 142 -1 142 -1 121 1 c 0,60,61
 101 3 101 3 82 3 c 0,62,63
 65 3 65 3 48 4 c 256,64,65
 31 5 31 5 13 9 c 1,66,67
 129 116 129 116 225 239 c 0,68,69
 320 364 320 364 408 493 c 0,70,71
 477 588 477 588 533 686 c 0,72,73
 589 786 589 786 651 885 c 1,74,75
 692 897 692 897 733 906 c 0,76,77
 774 914 774 914 816 923 c 1,78,79
 781 842 781 842 748 753 c 0,80,81
 715 662 715 662 688 567 c 0,82,83
 663 474 663 474 646 380 c 0,84,85
 629 285 629 285 627 199 c 1,86,87
 676 233 676 233 711 282 c 0,88,89
 746 332 746 332 781 380 c 0,90,91
 822 434 822 434 857 491 c 0,92,93
 892 549 892 549 923 610 c 0,94,95
 935 632 935 632 945 656 c 0,96,97
 956 680 956 680 968 703 c 0,98,99
 1002 763 1002 763 1030 820 c 0,100,101
 1056 878 1056 878 1076 942 c 1,0,1
1067 1108 m 1,102,103
 1072 1105 1072 1105 1080 1098 c 0,104,105
 1088 1092 1088 1092 1093 1083 c 256,106,107
 1098 1074 1098 1074 1102 1066 c 0,108,109
 1106 1057 1106 1057 1106 1052 c 0,110,111
 1106 1024 1106 1024 1079 1004 c 0,112,113
 1052 982 1052 982 1004 980 c 0,114,115
 976 980 976 980 959 991 c 0,116,117
 942 1001 942 1001 930 1014 c 0,118,119
 916 1028 916 1028 902 1039 c 256,120,121
 888 1050 888 1050 867 1050 c 0,122,123
 852 1050 852 1050 844 1040 c 0,124,125
 836 1031 836 1031 831 1018 c 0,126,127
 826 1008 826 1008 822 997 c 0,128,129
 818 988 818 988 811 988 c 0,130,131
 788 988 788 988 764 1000 c 0,132,133
 741 1010 741 1010 738 1017 c 1,134,135
 753 1046 753 1046 762 1067 c 0,136,137
 772 1089 772 1089 785 1102 c 0,138,139
 800 1115 800 1115 822 1121 c 0,140,141
 844 1126 844 1126 880 1126 c 0,142,143
 907 1126 907 1126 923 1115 c 0,144,145
 939 1105 939 1105 950 1092 c 0,146,147
 962 1078 962 1078 974 1067 c 0,148,149
 984 1057 984 1057 1002 1057 c 0,150,151
 1030 1056 1030 1056 1043 1074 c 0,152,153
 1057 1093 1057 1093 1067 1108 c 1,102,103
EndSplineSet
EndChar

StartChar: Ograve
Encoding: 210 210 111
Width: 614
Flags: W
LayerCount: 2
Fore
SplineSet
590 909 m 0,0,1
 642 909 642 909 692 890 c 0,2,3
 741 871 741 871 783 837 c 0,4,5
 824 803 824 803 852 759 c 0,6,7
 880 714 880 714 889 662 c 1,8,9
 916 662 916 662 968 662 c 1,10,11
 978 627 978 627 982 593 c 0,12,13
 987 558 987 558 989 523 c 1,14,15
 970 523 970 523 953 524 c 0,16,17
 935 525 935 525 916 525 c 0,18,19
 906 525 906 525 897 525 c 0,20,21
 887 524 887 524 878 523 c 1,22,23
 863 462 863 462 835 399 c 0,24,25
 807 337 807 337 766 277 c 256,26,27
 725 217 725 217 676 164 c 0,28,29
 625 112 625 112 567 73 c 0,30,31
 510 35 510 35 446 12 c 0,32,33
 381 -10 381 -10 315 -10 c 0,34,35
 243 -10 243 -10 188 16 c 256,36,37
 133 42 133 42 94 86 c 0,38,39
 55 129 55 129 35 188 c 0,40,41
 14 247 14 247 14 315 c 0,42,43
 14 350 14 350 20 381 c 0,44,45
 25 411 25 411 35 441 c 0,46,47
 46 469 46 469 58 498 c 0,48,49
 70 528 70 528 86 558 c 0,50,51
 124 646 124 646 188 708 c 0,52,53
 254 772 254 772 330 824 c 0,54,55
 374 854 374 854 425 872 c 0,56,57
 477 889 477 889 529 902 c 0,58,59
 543 906 543 906 559 907 c 0,60,61
 575 909 575 909 590 909 c 0,0,1
142 318 m 0,62,63
 142 280 142 280 152 246 c 0,64,65
 164 212 164 212 185 186 c 0,66,67
 208 161 208 161 239 147 c 0,68,69
 270 131 270 131 312 131 c 0,70,71
 385 131 385 131 455 168 c 0,72,73
 524 203 524 203 581 259 c 0,74,75
 641 316 641 316 681 384 c 0,76,77
 723 452 723 452 738 519 c 1,78,79
 716 521 716 521 696 525 c 0,80,81
 675 530 675 530 659 538 c 0,82,83
 644 547 644 547 633 564 c 0,84,85
 623 581 623 581 623 611 c 0,86,87
 623 650 623 650 645 686 c 0,88,89
 666 724 666 724 681 759 c 1,90,91
 641 777 641 777 597 777 c 0,92,93
 536 777 536 777 474 750 c 256,94,95
 412 723 412 723 358 679 c 0,96,97
 303 636 303 636 260 584 c 0,98,99
 216 530 216 530 190 478 c 0,100,101
 172 439 172 439 156 400 c 0,102,103
 142 363 142 363 142 318 c 0,62,63
711 923 m 1,104,105
 697 922 697 922 655 922 c 1,106,107
 602 968 602 968 442 1112 c 1,108,109
 478 1112 478 1112 590 1109 c 1,110,111
 620 1062 620 1062 711 923 c 1,104,105
EndSplineSet
EndChar

StartChar: Oacute
Encoding: 211 211 112
Width: 614
Flags: W
LayerCount: 2
Fore
SplineSet
590 909 m 0,0,1
 642 909 642 909 692 890 c 0,2,3
 741 871 741 871 783 837 c 0,4,5
 824 803 824 803 852 759 c 0,6,7
 880 714 880 714 889 662 c 1,8,9
 916 662 916 662 968 662 c 1,10,11
 978 627 978 627 982 593 c 0,12,13
 987 558 987 558 989 523 c 1,14,15
 970 523 970 523 953 524 c 0,16,17
 935 525 935 525 916 525 c 0,18,19
 906 525 906 525 897 525 c 0,20,21
 887 524 887 524 878 523 c 1,22,23
 863 462 863 462 835 399 c 0,24,25
 807 337 807 337 766 277 c 256,26,27
 725 217 725 217 676 164 c 0,28,29
 625 112 625 112 567 73 c 0,30,31
 510 35 510 35 446 12 c 0,32,33
 381 -10 381 -10 315 -10 c 0,34,35
 243 -10 243 -10 188 16 c 256,36,37
 133 42 133 42 94 86 c 0,38,39
 55 129 55 129 35 188 c 0,40,41
 14 247 14 247 14 315 c 0,42,43
 14 350 14 350 20 381 c 0,44,45
 25 411 25 411 35 441 c 0,46,47
 46 469 46 469 58 498 c 0,48,49
 70 528 70 528 86 558 c 0,50,51
 124 646 124 646 188 708 c 0,52,53
 254 772 254 772 330 824 c 0,54,55
 374 854 374 854 425 872 c 0,56,57
 477 889 477 889 529 902 c 0,58,59
 543 906 543 906 559 907 c 0,60,61
 575 909 575 909 590 909 c 0,0,1
142 318 m 0,62,63
 142 280 142 280 152 246 c 0,64,65
 164 212 164 212 185 186 c 0,66,67
 208 161 208 161 239 147 c 0,68,69
 270 131 270 131 312 131 c 0,70,71
 385 131 385 131 455 168 c 0,72,73
 524 203 524 203 581 259 c 0,74,75
 641 316 641 316 681 384 c 0,76,77
 723 452 723 452 738 519 c 1,78,79
 716 521 716 521 696 525 c 0,80,81
 675 530 675 530 659 538 c 0,82,83
 644 547 644 547 633 564 c 0,84,85
 623 581 623 581 623 611 c 0,86,87
 623 650 623 650 645 686 c 0,88,89
 666 724 666 724 681 759 c 1,90,91
 641 777 641 777 597 777 c 0,92,93
 536 777 536 777 474 750 c 256,94,95
 412 723 412 723 358 679 c 0,96,97
 303 636 303 636 260 584 c 0,98,99
 216 530 216 530 190 478 c 0,100,101
 172 439 172 439 156 400 c 0,102,103
 142 363 142 363 142 318 c 0,62,63
826 1098 m 1,104,105
 862 1098 862 1098 974 1101 c 1,106,107
 920 1053 920 1053 760 910 c 1,108,109
 746 911 746 911 705 911 c 1,110,111
 734 958 734 958 826 1098 c 1,104,105
EndSplineSet
EndChar

